<svg width="1164" height="492" viewBox="0 0 1164 492" fill="none" xmlns="http://www.w3.org/2000/svg">
<g clip-path="url(#clip0_4935_6746)">
<rect x="91.5" y="0.509766" width="981" height="454" rx="20" fill="#C8DBFF"/>
<rect x="91.5" y="0.509766" width="981" height="454" rx="20" fill="#ECF2FF"/>
<rect x="35.5" y="20.5098" width="1093" height="454" rx="20" fill="#C8DBFF"/>
<rect x="35.5" y="20.5098" width="1093" height="454" rx="20" fill="#C8DBFF"/>
<rect x="0.5" y="37.5098" width="1163" height="454" rx="20" fill="#134574"/>
<path d="M1343.04 183.551C1275.22 216.59 1204.54 227.395 1145.1 218.179C1085.66 208.963 1037.51 179.738 1014.62 132.759C991.734 85.7801 998.4 29.8479 1027.78 -22.6416C1057.16 -75.129 1109.23 -124.127 1177.05 -157.166C1244.87 -190.204 1315.55 -201.009 1374.99 -191.793C1434.43 -182.577 1482.58 -153.352 1505.47 -106.373C1528.36 -59.3944 1521.69 -3.46218 1492.31 49.0272C1462.93 101.515 1410.86 150.513 1343.04 183.551Z" stroke="white"/>
<path d="M1362.86 224.235C1295.04 257.274 1224.37 268.078 1164.92 258.863C1105.48 249.646 1057.33 220.421 1034.44 173.443C1011.55 126.464 1018.22 70.5315 1047.6 18.042C1076.98 -34.4454 1129.05 -83.4433 1196.87 -116.482C1264.69 -149.521 1335.37 -160.326 1394.81 -151.11C1454.25 -141.894 1502.4 -112.668 1525.29 -65.6896C1548.18 -18.7108 1541.51 37.2214 1512.13 89.7108C1482.75 142.198 1430.68 191.196 1362.86 224.235Z" stroke="white"/>
<path d="M1382.68 264.919C1314.87 297.957 1244.19 308.762 1184.75 299.546C1125.3 290.33 1077.15 261.105 1054.26 214.126C1031.37 167.147 1038.04 111.215 1067.42 58.7257C1096.8 6.23829 1148.87 -42.7596 1216.69 -75.7983C1284.51 -108.837 1355.19 -119.642 1414.63 -110.426C1474.07 -101.21 1522.22 -71.9847 1545.11 -25.0059C1568 21.9729 1561.33 77.9051 1531.95 130.395C1502.57 182.882 1450.5 231.88 1382.68 264.919Z" stroke="white"/>
<path d="M64.0401 616.55C-3.77582 649.588 -74.4556 660.393 -133.896 651.177C-193.339 641.961 -241.492 612.736 -264.379 565.757C-287.267 518.778 -280.6 462.846 -251.219 410.357C-221.84 357.869 -169.767 308.871 -101.951 275.833C-34.135 242.794 36.5448 231.989 95.9853 241.205C155.428 250.421 203.581 279.646 226.469 326.625C249.356 373.604 242.69 429.536 213.309 482.026C183.929 534.513 131.856 583.511 64.0401 616.55Z" stroke="white"/>
<path d="M83.8604 657.233C16.0445 690.272 -54.6353 701.077 -114.076 691.861C-173.519 682.645 -221.672 653.42 -244.559 606.441C-267.446 559.462 -260.78 503.53 -231.399 451.04C-202.019 398.553 -149.947 349.555 -82.1306 316.516C-14.3147 283.478 56.3651 272.673 115.806 281.889C175.248 291.105 223.402 320.33 246.289 367.309C269.176 414.287 262.51 470.22 233.129 522.709C203.749 575.197 151.676 624.194 83.8604 657.233Z" stroke="white"/>
<path d="M103.681 697.917C35.8648 730.956 -34.815 741.76 -94.2555 732.545C-153.698 723.328 -201.852 694.103 -224.739 647.125C-247.626 600.146 -240.96 544.213 -211.579 491.724C-182.199 439.237 -130.126 390.239 -62.3103 357.2C5.50562 324.161 76.1854 313.356 135.626 322.572C195.069 331.788 243.222 361.014 266.109 407.992C288.996 454.971 282.33 510.903 252.949 563.393C223.569 615.88 171.497 664.878 103.681 697.917Z" stroke="white"/>
</g>
<defs>
<clipPath id="clip0_4935_6746">
<rect width="1163" height="491" fill="white" transform="translate(0.5 0.509766)"/>
</clipPath>
</defs>
</svg>
