<svg width="390" height="399" viewBox="0 0 390 399" fill="none" xmlns="http://www.w3.org/2000/svg">
<g clip-path="url(#clip0_7020_670)">
<rect x="29" y="10.7031" width="339" height="374" rx="20" fill="#C8DBFF"/>
<rect x="29" y="10.7031" width="339" height="374" rx="20" fill="#ECF2FF"/>
<rect x="14" y="23.7031" width="361" height="375" rx="20" fill="#C8DBFF"/>
<rect x="14" y="23.7031" width="361" height="375" rx="20" fill="#C8DBFF"/>
<rect y="37.7031" width="391" height="361" rx="20" fill="#134574"/>
<path d="M642.935 271.285C583.287 300.345 521.123 309.847 468.847 301.742C416.568 293.636 374.228 267.936 354.105 226.631C333.983 185.326 339.841 136.144 365.681 89.981C391.519 43.8197 437.318 0.724328 496.966 -28.3351C556.614 -57.3945 618.779 -66.8968 671.055 -58.7917C723.333 -50.6863 765.673 -24.9854 785.796 16.3192C805.919 57.6238 800.061 106.806 774.221 152.969C748.382 199.13 702.583 242.226 642.935 271.285Z" stroke="white"/>
<path d="M660.371 307.075C600.723 336.134 538.559 345.637 486.282 337.531C434.004 329.426 391.664 303.725 371.541 262.421C351.418 221.116 357.277 171.934 383.116 125.771C408.955 79.6093 454.754 36.5139 514.402 7.45448C574.05 -21.6049 636.214 -31.1072 688.491 -23.0022C740.769 -14.8967 783.109 10.8042 803.232 52.1088C823.355 93.4133 817.496 142.596 791.657 188.759C765.818 234.92 720.019 278.015 660.371 307.075Z" stroke="white"/>
<path d="M677.807 342.864C618.159 371.923 555.995 381.426 503.718 373.321C451.44 365.215 409.1 339.514 388.977 298.21C368.854 256.905 374.713 207.723 400.552 161.56C426.391 115.398 472.19 72.3029 531.838 43.2435C591.486 14.1841 653.65 4.68183 705.927 12.7869C758.205 20.8923 800.545 46.5933 820.668 87.8978C840.791 129.202 834.932 178.385 809.093 224.548C783.254 270.709 737.455 313.804 677.807 342.864Z" stroke="white"/>
<path d="M-36.7056 625.956C-96.9575 655.31 -159.752 664.908 -212.558 656.721C-265.366 648.534 -308.136 622.572 -328.463 580.848C-348.79 539.124 -342.872 489.442 -316.77 442.811C-290.67 396.183 -244.407 352.651 -184.155 323.297C-123.904 293.943 -61.1093 284.345 -8.30336 292.532C44.5048 300.72 87.2746 326.681 107.602 368.405C127.929 410.129 122.011 459.811 95.9094 506.442C69.8089 553.071 23.5464 596.602 -36.7056 625.956Z" stroke="white"/>
<path d="M-19.0933 662.107C-79.3452 691.461 -142.139 701.06 -194.945 692.872C-247.753 684.685 -290.523 658.723 -310.851 616.999C-331.178 575.275 -325.26 525.594 -299.158 478.963C-273.058 432.334 -226.795 388.802 -166.543 359.448C-106.291 330.095 -43.497 320.496 9.30894 328.683C62.1171 336.871 104.887 362.832 125.214 404.557C145.541 446.281 139.623 495.962 113.522 542.593C87.4212 589.222 41.1587 632.754 -19.0933 662.107Z" stroke="white"/>
<path d="M-1.48143 698.258C-61.7333 727.612 -124.528 737.211 -177.333 729.024C-230.142 720.836 -272.911 694.874 -293.239 653.15C-313.566 611.426 -307.648 561.745 -281.546 515.114C-255.446 468.485 -209.183 424.953 -148.931 395.6C-88.6794 366.246 -25.8852 356.647 26.9208 364.834C79.7289 373.022 122.499 398.984 142.826 440.708C163.153 482.432 157.235 532.113 131.134 578.744C105.033 625.373 58.7705 668.905 -1.48143 698.258Z" stroke="white"/>
</g>
<defs>
<clipPath id="clip0_7020_670">
<rect width="390" height="398" fill="white" transform="translate(0 0.703125)"/>
</clipPath>
</defs>
</svg>
