<svg width="348" height="806" viewBox="0 0 348 806" fill="none" xmlns="http://www.w3.org/2000/svg">
<path d="M391.53 517.03C340.589 545.847 287.433 555.109 242.683 546.811C197.931 538.514 161.631 512.671 144.286 471.325C126.941 429.978 131.793 380.855 153.752 334.819C175.711 288.786 214.756 245.889 265.697 217.072C316.638 188.254 369.794 178.993 414.544 187.29C459.296 195.588 495.597 221.431 512.942 262.777C530.286 304.123 525.434 353.246 503.475 399.282C481.517 445.316 442.471 488.213 391.53 517.03Z" stroke="url(#paint0_linear_4935_6638)"/>
<path d="M406.566 552.874C355.625 581.691 302.47 590.952 257.719 582.655C212.967 574.358 176.667 548.515 159.322 507.168C141.977 465.822 146.829 416.699 168.788 370.663C190.747 324.629 229.792 281.733 280.733 252.915C331.674 224.098 384.83 214.837 429.58 223.134C474.332 231.431 510.633 257.274 527.978 298.621C545.323 339.967 540.47 389.09 518.511 435.126C496.553 481.16 457.507 524.056 406.566 552.874Z" stroke="url(#paint1_linear_4935_6638)"/>
<path d="M421.599 588.707C370.658 617.524 317.503 626.785 272.753 618.488C228 610.191 191.7 584.348 174.355 543.001C157.01 501.655 161.862 452.532 183.822 406.496C205.78 360.462 244.825 317.566 295.767 288.748C346.708 259.931 399.863 250.67 444.613 258.967C489.366 267.264 525.666 293.107 543.011 334.454C560.356 375.8 555.504 424.923 533.544 470.959C511.586 516.993 472.541 559.889 421.599 588.707Z" stroke="url(#paint2_linear_4935_6638)"/>
<defs>
<linearGradient id="paint0_linear_4935_6638" x1="231.601" y1="268.693" x2="377.484" y2="525.605" gradientUnits="userSpaceOnUse">
<stop offset="0.51" stop-color="#134574"/>
<stop offset="1" stop-color="#EF2689"/>
</linearGradient>
<linearGradient id="paint1_linear_4935_6638" x1="246.637" y1="304.537" x2="392.52" y2="561.449" gradientUnits="userSpaceOnUse">
<stop offset="0.51" stop-color="#134574"/>
<stop offset="1" stop-color="#EF2689"/>
</linearGradient>
<linearGradient id="paint2_linear_4935_6638" x1="261.67" y1="340.37" x2="407.553" y2="597.282" gradientUnits="userSpaceOnUse">
<stop offset="0.51" stop-color="#134574"/>
<stop offset="1" stop-color="#EF2689"/>
</linearGradient>
</defs>
</svg>
