<svg width="101" height="61" viewBox="0 0 101 61" fill="none" xmlns="http://www.w3.org/2000/svg">
<path d="M28.8559 22.4732C28.7434 26.0122 30.5121 27.5794 30.5559 28.5747C30.5351 28.7773 30.4661 28.972 30.3546 29.1424C30.2432 29.3129 30.0925 29.4542 29.9153 29.5544L27.9153 30.9544C27.6564 31.1359 27.3513 31.2399 27.0356 31.2544C26.9684 31.2513 25.7559 31.5404 23.8356 27.2529C22.664 28.7154 21.1734 29.8904 19.4777 30.688C17.7821 31.4856 15.9264 31.8846 14.0528 31.8544C11.509 31.9935 4.61526 30.4107 4.96994 23.0716C4.72151 17.0904 10.2918 13.3747 16.0528 13.6888C17.1621 13.6919 19.4278 13.7466 23.3949 14.6685V12.2279C23.8153 8.09349 21.0981 4.88568 16.3934 5.36693C16.0184 5.36849 13.3621 5.2888 9.23088 6.94661C8.08088 7.47474 7.93401 7.38724 7.55119 7.38724C6.39338 7.38724 6.86994 4.03099 7.09182 3.60599C7.90588 2.60599 12.6949 0.738802 17.3949 0.765364C20.5375 0.487489 23.6632 1.45736 26.0965 3.46536C27.0855 4.57182 27.84 5.8672 28.3146 7.27333C28.7891 8.67945 28.9738 10.1671 28.8574 11.6466L28.8559 22.4732ZM15.3528 27.5341C20.4199 27.4607 22.5653 24.4138 23.0543 22.7732C23.4387 21.2029 23.3746 20.2091 23.3746 18.4919C21.8637 18.1294 19.6887 17.7341 17.1934 17.731C14.8262 17.5529 10.5028 18.6107 10.6715 22.7716C10.4778 25.3951 12.409 27.6779 15.3528 27.5341ZM42.059 31.1357C40.8309 31.2482 40.259 30.3763 40.0778 29.5154L32.2965 3.7888C32.1449 3.35443 32.0449 2.90599 31.9965 2.44818C31.9678 2.25943 32.0152 2.06701 32.1283 1.9132C32.2414 1.75938 32.4109 1.65675 32.5996 1.62786C32.6371 1.62161 32.2668 1.62786 36.0762 1.62786C37.4481 1.49036 37.8949 2.57005 38.0371 3.24818L43.6184 25.2529L48.7996 3.24818C48.8824 2.74505 49.259 1.51849 50.7996 1.64818H53.4809C53.8199 1.62005 55.2168 1.57005 55.4621 3.26849L60.684 25.5544L66.4449 3.26849C66.5199 2.92786 66.8699 1.49193 68.4262 1.64818H71.5074C71.6403 1.62786 72.4684 1.52161 72.3278 2.9888C72.2606 3.27786 72.8606 1.32318 64.0856 29.5357C63.9059 30.3966 63.3324 31.2685 62.1043 31.156H59.184C57.4746 31.3357 57.2293 29.6466 57.2027 29.4763L52.0215 8.04974L46.8996 29.4544C46.8746 29.6247 46.6293 31.3138 44.9184 31.1341H42.059V31.1357ZM84.7903 32.0154C83.8715 32.0169 79.4902 31.9685 75.8278 30.0951C75.4629 29.9406 75.1521 29.6813 74.9349 29.35C74.7176 29.0187 74.6036 28.6303 74.6074 28.2341V26.5544C74.6074 25.2341 75.5762 25.4763 75.9871 25.6341C77.5559 26.2685 78.5621 26.7497 80.4887 27.1341C86.2152 28.3107 88.734 26.7747 89.3512 26.4341C91.4059 25.2138 91.5684 22.4216 90.1715 20.9732C88.534 19.5997 87.7527 19.5482 81.8699 17.6919C81.1449 17.4904 75.0418 15.5654 75.0277 9.51068C74.9324 5.09818 78.9418 0.732551 85.8902 0.768489C87.8699 0.766926 93.1449 1.4138 94.5731 3.20911C94.784 3.53568 94.8887 3.92005 94.8731 4.30911V5.8888C94.8731 6.58255 94.6199 6.92943 94.1121 6.92943C92.9074 6.79505 90.7699 5.18411 86.4309 5.24974C85.3543 5.19349 80.1981 5.39193 80.4293 9.1513C80.3621 12.1138 84.5871 13.2247 85.0699 13.3529C90.7668 15.0669 92.6715 15.3513 94.9324 17.9747C97.6106 21.4513 96.1668 25.5216 95.6121 26.6372C92.6309 32.4951 84.9215 32.0185 84.7903 32.0154ZM91.0715 48.3997C80.1293 56.481 64.2449 60.7826 50.6824 60.7826C32.3825 60.9032 14.6994 54.1742 1.10901 41.9185C0.0886949 40.9982 0.988695 39.7372 2.22932 40.4388C17.305 49.0625 34.3739 53.5936 51.7418 53.5825C64.7117 53.5131 77.5401 50.882 89.4902 45.8404C91.3309 45.0591 92.8918 47.0591 91.0715 48.3997ZM95.6324 43.1982C94.2324 41.3982 86.3699 42.3575 82.8496 42.7779C81.7887 42.8982 81.609 41.9779 82.5699 41.2982C88.8309 36.8966 99.1137 38.1576 100.295 39.6372C101.475 41.1169 99.9746 51.42 94.1137 56.3419C93.2137 57.1029 92.3527 56.7013 92.7527 55.7013C94.0715 52.381 97.0324 44.9997 95.6324 43.1982Z" fill="#828282"/>
</svg>
