<svg width="81" height="81" viewBox="0 0 81 81" fill="none" xmlns="http://www.w3.org/2000/svg">
<rect x="0.5" y="0.519043" width="80" height="80" rx="16" fill="#FDF4F9"/>
<path d="M40.5 48.3315C40.5 50.4035 41.2902 52.3907 42.6967 53.8558C44.1032 55.3209 46.0109 56.144 48 56.144C49.9891 56.144 51.8968 55.3209 53.3033 53.8558C54.7098 52.3907 55.5 50.4035 55.5 48.3315C55.5 46.2595 54.7098 44.2724 53.3033 42.8073C51.8968 41.3421 49.9891 40.519 48 40.519C46.0109 40.519 44.1032 41.3421 42.6967 42.8073C41.2902 44.2724 40.5 46.2595 40.5 48.3315Z" stroke="#EF2689" stroke-width="2" stroke-linecap="round" stroke-linejoin="round"/>
<path d="M43 54.8418V66.5605L48 62.6543L53 66.5605V54.8418" stroke="#EF2689" stroke-width="2" stroke-linecap="round" stroke-linejoin="round"/>
<path d="M35.5 58.7481H23C21.6739 58.7481 20.4021 58.1994 19.4645 57.2226C18.5268 56.2459 18 54.9211 18 53.5398V27.4981C18 24.6335 20.25 22.2898 23 22.2898H58C59.3261 22.2898 60.5979 22.8385 61.5355 23.8153C62.4732 24.792 63 26.1168 63 27.4981V53.5398C62.9991 54.4531 62.7676 55.3502 62.3288 56.1409C61.8901 56.9317 61.2593 57.5883 60.5 58.045M25.5 32.7065H55.5M25.5 40.519H33M25.5 48.3315H30.5" stroke="#EF2689" stroke-width="2" stroke-linecap="round" stroke-linejoin="round"/>
</svg>
