<svg width="81" height="81" viewBox="0 0 81 81" fill="none" xmlns="http://www.w3.org/2000/svg">
<rect x="0.5" y="0.519043" width="80" height="80" rx="16" fill="#FDF4F9"/>
<path d="M46.125 34.6597L51.75 40.519L46.125 46.3784M34.875 46.3784L29.25 40.519L34.875 34.6597M25.5 62.0034H55.5C56.9918 62.0034 58.4226 61.3861 59.4775 60.2872C60.5324 59.1884 61.125 57.698 61.125 56.144V24.894C61.125 23.34 60.5324 21.8497 59.4775 20.7508C58.4226 19.652 56.9918 19.0347 55.5 19.0347H25.5C24.0082 19.0347 22.5774 19.652 21.5225 20.7508C20.4676 21.8497 19.875 23.34 19.875 24.894V56.144C19.875 57.698 20.4676 59.1884 21.5225 60.2872C22.5774 61.3861 24.0082 62.0034 25.5 62.0034Z" stroke="#EF2689" stroke-width="1.5" stroke-linecap="round" stroke-linejoin="round"/>
</svg>
