<svg width="43" height="43" viewBox="0 0 43 43" fill="none" xmlns="http://www.w3.org/2000/svg">
<rect x="0.671387" y="0.654541" width="41.5286" height="41.5286" rx="20.7643" fill="white" fill-opacity="0.2"/>
<g clip-path="url(#clip0_5218_2128)">
<path d="M29.123 14.8896C27.3077 13.092 24.8555 12.0848 22.3008 12.0874H22.2005C19.632 12.1138 17.1778 13.1527 15.3709 14.9783C13.5641 16.804 12.5506 19.2688 12.5508 21.8374C12.5508 25.8687 15.0427 29.2493 19.0533 30.6658C19.5056 30.8253 19.9896 30.874 20.4647 30.8078C20.9397 30.7417 21.392 30.5626 21.7836 30.2855C22.1751 30.0085 22.4945 29.6416 22.715 29.2156C22.9355 28.7897 23.0506 28.3171 23.0508 27.8374C23.0508 27.4396 23.2088 27.0581 23.4901 26.7767C23.7714 26.4954 24.153 26.3374 24.5508 26.3374H28.883C29.5635 26.3407 30.2246 26.1112 30.7567 25.6869C31.2888 25.2626 31.6597 24.6691 31.808 24.0049C31.9756 23.2668 32.0571 22.5118 32.0508 21.7549C32.0412 20.4738 31.7775 19.2073 31.275 18.0288C30.7724 16.8503 30.0409 15.7833 29.123 14.8896ZM18.1758 25.5874C17.9533 25.5874 17.7358 25.5214 17.5508 25.3978C17.3658 25.2742 17.2216 25.0985 17.1364 24.8929C17.0513 24.6874 17.029 24.4612 17.0724 24.2429C17.1158 24.0247 17.223 23.8242 17.3803 23.6669C17.5376 23.5096 17.7381 23.4024 17.9563 23.359C18.1745 23.3156 18.4007 23.3379 18.6063 23.423C18.8119 23.5082 18.9876 23.6524 19.1112 23.8374C19.2348 24.0224 19.3008 24.2399 19.3008 24.4624C19.3008 24.7608 19.1823 25.0469 18.9713 25.2579C18.7603 25.4689 18.4741 25.5874 18.1758 25.5874ZM18.1758 20.3374C17.9533 20.3374 17.7358 20.2714 17.5508 20.1478C17.3658 20.0242 17.2216 19.8485 17.1364 19.6429C17.0513 19.4374 17.029 19.2112 17.0724 18.9929C17.1158 18.7747 17.223 18.5742 17.3803 18.4169C17.5376 18.2596 17.7381 18.1524 17.9563 18.109C18.1745 18.0656 18.4007 18.0879 18.6063 18.173C18.8119 18.2582 18.9876 18.4024 19.1112 18.5874C19.2348 18.7724 19.3008 18.9899 19.3008 19.2124C19.3008 19.5108 19.1823 19.7969 18.9713 20.0079C18.7603 20.2189 18.4741 20.3374 18.1758 20.3374ZM22.3008 18.0874C22.0783 18.0874 21.8608 18.0214 21.6758 17.8978C21.4908 17.7742 21.3466 17.5985 21.2614 17.3929C21.1763 17.1874 21.154 16.9612 21.1974 16.7429C21.2408 16.5247 21.348 16.3242 21.5053 16.1669C21.6626 16.0096 21.8631 15.9024 22.0813 15.859C22.2995 15.8156 22.5257 15.8379 22.7313 15.923C22.9369 16.0082 23.1126 16.1524 23.2362 16.3374C23.3598 16.5224 23.4258 16.7399 23.4258 16.9624C23.4258 17.2608 23.3073 17.5469 23.0963 17.7579C22.8853 17.9689 22.5991 18.0874 22.3008 18.0874ZM26.4258 20.3374C26.2033 20.3374 25.9858 20.2714 25.8008 20.1478C25.6158 20.0242 25.4716 19.8485 25.3864 19.6429C25.3013 19.4374 25.279 19.2112 25.3224 18.9929C25.3658 18.7747 25.473 18.5742 25.6303 18.4169C25.7876 18.2596 25.9881 18.1524 26.2063 18.109C26.4245 18.0656 26.6507 18.0879 26.8563 18.173C27.0619 18.2582 27.2376 18.4024 27.3612 18.5874C27.4848 18.7724 27.5508 18.9899 27.5508 19.2124C27.5508 19.5108 27.4323 19.7969 27.2213 20.0079C27.0103 20.2189 26.7241 20.3374 26.4258 20.3374Z" fill="white"/>
</g>
<defs>
<clipPath id="clip0_5218_2128">
<rect width="23.5068" height="23.5068" fill="white" transform="translate(10.8574 9.66553)"/>
</clipPath>
</defs>
</svg>
