<svg width="24" height="24" viewBox="0 0 24 24" fill="none" xmlns="http://www.w3.org/2000/svg">
<path d="M10.5 16.4595C9.98006 16.4015 9.46862 16.2832 8.976 16.107C8.991 15.753 8.999 15.384 9 15V14.4945C9.465 14.7165 9.9705 14.871 10.5 14.9475V11.25C10.5 10.6533 10.7371 10.081 11.159 9.65904C11.581 9.23708 12.1533 9.00003 12.75 9.00003H16.4475C16.3279 8.16886 16.0106 7.37851 15.5224 6.69531C15.0341 6.01212 14.3891 5.45601 13.6414 5.07367C12.8938 4.69132 12.0654 4.4939 11.2256 4.49796C10.3859 4.50203 9.5594 4.70746 8.8155 5.09703C8.69673 4.60647 8.50133 4.13771 8.2365 3.70803C9.2089 3.22267 10.2841 2.97928 11.3708 2.99856C12.4574 3.01784 13.5233 3.29922 14.4779 3.81877C15.4325 4.33832 16.2475 5.08069 16.8536 5.98275C17.4598 6.88482 17.8392 7.91991 17.9595 9.00003H20.25C20.8467 9.00003 21.419 9.23708 21.841 9.65904C22.2629 10.081 22.5 10.6533 22.5 11.25V18.75C22.5 19.3468 22.2629 19.9191 21.841 20.341C21.419 20.763 20.8467 21 20.25 21H12.75C12.1533 21 11.581 20.763 11.159 20.341C10.7371 19.9191 10.5 19.3468 10.5 18.75V16.4595ZM17.9595 10.5C17.7896 12.0221 17.1071 13.4412 16.0241 14.5242C14.9412 15.6071 13.5221 16.2896 12 16.4595V18.75C12 18.9489 12.079 19.1397 12.2197 19.2804C12.3603 19.421 12.5511 19.5 12.75 19.5H20.25C20.4489 19.5 20.6397 19.421 20.7803 19.2804C20.921 19.1397 21 18.9489 21 18.75V11.25C21 11.0511 20.921 10.8604 20.7803 10.7197C20.6397 10.579 20.4489 10.5 20.25 10.5H17.9595ZM16.4475 10.5H12.75C12.5511 10.5 12.3603 10.579 12.2197 10.7197C12.079 10.8604 12 11.0511 12 11.25V14.9475C13.1222 14.7858 14.1618 14.2652 14.9635 13.4635C15.7652 12.6618 16.2858 11.6222 16.4475 10.5ZM7.1925 11.3415C7.035 10.7625 6.78 10.182 6.342 9.73653C7.05 9.06603 7.5 7.99803 7.5 6.75003C7.5 5.70453 7.2885 4.98603 6.906 4.41153C6.73581 4.1648 6.53969 3.937 6.321 3.73203L6.066 3.49203C5.9745 3.40653 5.8905 3.32853 5.781 3.21903C5.556 2.99403 5.5305 2.81403 5.5305 2.71953C5.52991 2.66693 5.53854 2.61464 5.556 2.56503C5.62458 2.41672 5.64285 2.25007 5.60803 2.09042C5.57321 1.93077 5.4872 1.78687 5.36309 1.68058C5.23898 1.5743 5.08356 1.51146 4.92046 1.50161C4.75735 1.49176 4.5955 1.53545 4.4595 1.62603L4.4565 1.62753L4.452 1.63053L4.4385 1.63953L4.3935 1.66953L4.2405 1.78203C4.07078 1.91063 3.90567 2.04521 3.7455 2.18553C3.3675 2.51553 2.88 3.00603 2.5335 3.59103C2.23064 4.07581 1.98785 4.59563 1.8105 5.13903C1.6305 5.67753 1.5 6.26103 1.5 6.75003C1.5 7.99803 1.95 9.06453 2.658 9.73803C2.22 10.182 1.965 10.7625 1.8075 11.343C1.5 12.471 1.5 13.866 1.5 14.9445V15C1.5 18.087 2.0775 19.92 2.7315 21.0105C3.06 21.5565 3.402 21.909 3.6885 22.131C3.84158 22.2495 4.00765 22.3501 4.1835 22.431C4.2854 22.4682 4.39187 22.4914 4.5 22.5C4.626 22.5 4.8165 22.431 4.8165 22.431C4.99235 22.3501 5.15842 22.2495 5.3115 22.131C5.5965 21.909 5.9415 21.5565 6.2685 21.0105C6.9225 19.9215 7.5 18.087 7.5 15V14.946C7.5 13.866 7.5 12.4725 7.1925 11.3415ZM3.7305 10.7865C3.9 10.6155 4.1265 10.5 4.5 10.5C4.875 10.5 5.1 10.617 5.2695 10.785C5.4585 10.9755 5.622 11.2845 5.745 11.736C5.994 12.6525 6 13.8555 6 15C6 17.913 5.4525 19.455 4.9815 20.2395C4.8015 20.5395 4.632 20.733 4.5 20.8545C4.31339 20.6714 4.15151 20.4646 4.0185 20.2395C3.5475 19.4535 3 17.913 3 15C3 13.8555 3.006 12.6525 3.255 11.736C3.378 11.286 3.5415 10.977 3.7305 10.7865ZM4.5 9.00003C3.9225 9.00003 3 8.35803 3 6.75003C3 6.49053 3.078 6.07953 3.234 5.61453C3.3758 5.17539 3.57181 4.75565 3.8175 4.36503C3.948 4.14453 4.1175 3.93003 4.3005 3.73353C4.4025 3.91753 4.5425 4.10003 4.7205 4.28103C4.83 4.39053 4.9725 4.52253 5.094 4.63653L5.28 4.81053C5.4375 4.96353 5.559 5.09703 5.6565 5.24553C5.8365 5.51403 6 5.92053 6 6.75003C6 8.35803 5.0775 9.00003 4.5 9.00003Z" fill="#134574"/>
</svg>
