<svg width="43" height="42" viewBox="0 0 43 42" fill="none" xmlns="http://www.w3.org/2000/svg">
<rect x="0.671387" y="0.390381" width="41.5286" height="41.5286" rx="20.7643" fill="white" fill-opacity="0.2"/>
<g clip-path="url(#clip0_5218_2910)">
<path d="M18.0085 15.3538C17.9388 15.2842 17.8835 15.2015 17.8457 15.1104C17.808 15.0194 17.7886 14.9218 17.7886 14.8232C17.7886 14.7247 17.808 14.6271 17.8457 14.536C17.8835 14.445 17.9388 14.3623 18.0085 14.2926L21.7585 10.5426C21.8282 10.4729 21.9109 10.4175 22.002 10.3798C22.093 10.3421 22.1906 10.3226 22.2892 10.3226C22.3877 10.3226 22.4853 10.3421 22.5764 10.3798C22.6674 10.4175 22.7501 10.4729 22.8198 10.5426L26.5698 14.2926C26.6395 14.3623 26.6948 14.445 26.7326 14.536C26.7703 14.6271 26.7898 14.7247 26.7898 14.8232C26.7898 14.9218 26.7703 15.0194 26.7326 15.1104C26.6948 15.2015 26.6395 15.2842 26.5698 15.3538L22.8198 19.1038C22.7501 19.1736 22.6674 19.2289 22.5764 19.2666C22.4853 19.3044 22.3877 19.3238 22.2892 19.3238C22.1906 19.3238 22.093 19.3044 22.002 19.2666C21.9109 19.2289 21.8282 19.1736 21.7585 19.1038L18.0085 15.3538ZM22.8198 22.5426C22.7501 22.4729 22.6674 22.4175 22.5764 22.3798C22.4853 22.3421 22.3877 22.3226 22.2892 22.3226C22.1906 22.3226 22.093 22.3421 22.002 22.3798C21.9109 22.4175 21.8282 22.4729 21.7585 22.5426L18.0085 26.2926C17.9388 26.3623 17.8835 26.445 17.8457 26.536C17.808 26.6271 17.7886 26.7247 17.7886 26.8232C17.7886 26.9218 17.808 27.0194 17.8457 27.1104C17.8835 27.2015 17.9388 27.2842 18.0085 27.3538L21.7585 31.1038C21.8282 31.1736 21.9109 31.2289 22.002 31.2666C22.093 31.3044 22.1906 31.3238 22.2892 31.3238C22.3877 31.3238 22.4853 31.3044 22.5764 31.2666C22.6674 31.2289 22.7501 31.1736 22.8198 31.1038L26.5698 27.3538C26.6395 27.2842 26.6948 27.2015 26.7326 27.1104C26.7703 27.0194 26.7898 26.9218 26.7898 26.8232C26.7898 26.7247 26.7703 26.6271 26.7326 26.536C26.6948 26.445 26.6395 26.3623 26.5698 26.2926L22.8198 22.5426ZM32.5698 20.2926L28.8198 16.5426C28.7501 16.4729 28.6674 16.4175 28.5764 16.3798C28.4853 16.3421 28.3877 16.3226 28.2892 16.3226C28.1906 16.3226 28.093 16.3421 28.002 16.3798C27.9109 16.4175 27.8282 16.4729 27.7585 16.5426L24.0085 20.2926C23.9388 20.3623 23.8835 20.445 23.8457 20.536C23.808 20.6271 23.7886 20.7247 23.7886 20.8232C23.7886 20.9218 23.808 21.0194 23.8457 21.1104C23.8835 21.2015 23.9388 21.2842 24.0085 21.3538L27.7585 25.1038C27.8282 25.1736 27.9109 25.2289 28.002 25.2666C28.093 25.3044 28.1906 25.3238 28.2892 25.3238C28.3877 25.3238 28.4853 25.3044 28.5764 25.2666C28.6674 25.2289 28.7501 25.1736 28.8198 25.1038L32.5698 21.3538C32.6395 21.2842 32.6948 21.2015 32.7326 21.1104C32.7703 21.0194 32.7898 20.9218 32.7898 20.8232C32.7898 20.7247 32.7703 20.6271 32.7326 20.536C32.6948 20.445 32.6395 20.3623 32.5698 20.2926ZM20.5698 20.2926L16.8198 16.5426C16.7501 16.4729 16.6674 16.4175 16.5764 16.3798C16.4853 16.3421 16.3877 16.3226 16.2892 16.3226C16.1906 16.3226 16.093 16.3421 16.002 16.3798C15.9109 16.4175 15.8282 16.4729 15.7585 16.5426L12.0085 20.2926C11.9388 20.3623 11.8835 20.445 11.8457 20.536C11.808 20.6271 11.7886 20.7247 11.7886 20.8232C11.7886 20.9218 11.808 21.0194 11.8457 21.1104C11.8835 21.2015 11.9388 21.2842 12.0085 21.3538L15.7585 25.1038C15.8282 25.1736 15.9109 25.2289 16.002 25.2666C16.093 25.3044 16.1906 25.3238 16.2892 25.3238C16.3877 25.3238 16.4853 25.3044 16.5764 25.2666C16.6674 25.2289 16.7501 25.1736 16.8198 25.1038L20.5698 21.3538C20.6395 21.2842 20.6948 21.2015 20.7326 21.1104C20.7703 21.0194 20.7898 20.9218 20.7898 20.8232C20.7898 20.7247 20.7703 20.6271 20.7326 20.536C20.6948 20.445 20.6395 20.3623 20.5698 20.2926Z" fill="white"/>
</g>
<defs>
<clipPath id="clip0_5218_2910">
<rect width="23.5068" height="23.5068" fill="white" transform="translate(10.8574 9.40137)"/>
</clipPath>
</defs>
</svg>
