<svg width="81" height="81" viewBox="0 0 81 81" fill="none" xmlns="http://www.w3.org/2000/svg">
<rect x="0.5" y="0.519043" width="80" height="80" rx="16" fill="#FDF4F9"/>
<path d="M67.5 26.4565C67.5 30.1861 66.0777 33.763 63.5459 36.4002C61.0142 39.0375 57.5804 40.519 54 40.519C50.4196 40.519 46.9858 39.0375 44.4541 36.4002C41.9223 33.763 40.5 30.1861 40.5 26.4565C40.5 22.7269 41.9223 19.1501 44.4541 16.5129C46.9858 13.8756 50.4196 12.394 54 12.394C57.5804 12.394 61.0142 13.8756 63.5459 16.5129C66.0777 19.1501 67.5 22.7269 67.5 26.4565ZM55.5 20.2065C55.5 19.7921 55.342 19.3947 55.0607 19.1017C54.7794 18.8087 54.3978 18.644 54 18.644C53.6022 18.644 53.2206 18.8087 52.9393 19.1017C52.658 19.3947 52.5 19.7921 52.5 20.2065V24.894H48C47.6022 24.894 47.2206 25.0587 46.9393 25.3517C46.658 25.6447 46.5 26.0421 46.5 26.4565C46.5 26.8709 46.658 27.2684 46.9393 27.5614C47.2206 27.8544 47.6022 28.019 48 28.019H52.5V32.7065C52.5 33.1209 52.658 33.5184 52.9393 33.8114C53.2206 34.1044 53.6022 34.269 54 34.269C54.3978 34.269 54.7794 34.1044 55.0607 33.8114C55.342 33.5184 55.5 33.1209 55.5 32.7065V28.019H60C60.3978 28.019 60.7794 27.8544 61.0607 27.5614C61.342 27.2684 61.5 26.8709 61.5 26.4565C61.5 26.0421 61.342 25.6447 61.0607 25.3517C60.7794 25.0587 60.3978 24.894 60 24.894H55.5V20.2065ZM55.5 53.8847V43.5722C56.5149 43.4774 57.5192 43.2849 58.5 42.9972V54.5815C58.5004 54.7869 58.4618 54.9903 58.3867 55.1801C58.3115 55.3699 58.2012 55.5424 58.062 55.6878L58.056 55.6909L58.05 55.6972L58.029 55.719L57.96 55.7878L57.72 56.019C57.4271 56.2875 57.126 56.546 56.817 56.794C55.7403 57.6571 54.5952 58.4234 53.394 59.0847C49.423 61.2765 44.994 62.4132 40.5 62.394C36.006 62.4132 31.577 61.2765 27.606 59.0847C26.4059 58.4233 25.2617 57.657 24.186 56.794C23.7908 56.4753 23.4084 56.1396 23.04 55.7878C22.8748 55.6366 22.7415 55.4513 22.6486 55.2437C22.5556 55.036 22.505 54.8106 22.5 54.5815V40.5565L16.5 36.969V51.4565C16.5 51.8709 16.342 52.2684 16.0607 52.5614C15.7794 52.8544 15.3978 53.019 15 53.019C14.6022 53.019 14.2206 52.8544 13.9393 52.5614C13.658 52.2684 13.5 51.8709 13.5 51.4565V34.269C13.4998 33.9885 13.5721 33.7131 13.7094 33.4717C13.8466 33.2303 14.0437 33.0318 14.28 32.8972L36.018 19.8972C37.0152 19.3 38.113 18.9075 39.252 18.7409C38.696 19.8933 38.2663 21.1072 37.971 22.3597C37.815 22.4326 37.662 22.5159 37.512 22.6097L18.012 34.269L37.512 45.9315C38.4213 46.4755 39.4515 46.7617 40.5 46.7617C41.5485 46.7617 42.5787 46.4755 43.488 45.9315L48.78 42.7659C50.226 43.2659 51.762 43.569 53.358 43.6315L44.982 48.6409C43.6181 49.4568 42.0728 49.8861 40.5 49.8861C38.9272 49.8861 37.3819 49.4568 36.018 48.6409L25.5 42.3503V53.8847C25.64 54.0097 25.813 54.1555 26.019 54.3222C26.9626 55.0783 27.9662 55.7495 29.019 56.3284C31.659 57.7972 35.544 59.269 40.5 59.269C44.501 59.2884 48.4448 58.2783 51.981 56.3284C53.23 55.6393 54.4089 54.8205 55.5 53.8847Z" fill="#EF2689"/>
</svg>
