<svg width="81" height="81" viewBox="0 0 81 81" fill="none" xmlns="http://www.w3.org/2000/svg">
<rect x="0.5" y="0.519043" width="80" height="80" rx="16" fill="#FDF4F9"/>
<path d="M47.95 27.5399C47.95 27.5399 49.2 28.842 50.45 31.4461C50.45 31.4461 54.4225 24.9357 57.95 23.6336M35.4875 14.5321C29.24 14.2586 24.415 15.006 24.415 15.006C21.3675 15.2352 15.5275 17.0112 15.5275 27.4071C15.5275 37.7092 15.465 50.4123 15.5275 55.4774C15.5275 58.5711 17.3675 65.7899 23.7325 66.1753C31.47 66.6441 45.4075 66.7456 51.8025 66.1753C53.5125 66.0737 59.2125 64.6753 59.9325 58.217C60.68 51.5243 60.5325 46.8758 60.5325 45.7691" stroke="#EF2689" stroke-width="1.5" stroke-linecap="round" stroke-linejoin="round"/>
<path d="M27.95 43.1649H37.95M27.95 53.5816H47.95M65.5 27.5399C65.5 34.73 59.9 40.5607 52.9875 40.5607C51.3449 40.5624 49.7181 40.2269 48.2001 39.5733C46.6821 38.9197 45.3026 37.9609 44.1405 36.7516C42.9785 35.5423 42.0566 34.1064 41.4277 32.5257C40.7987 30.9451 40.475 29.2509 40.475 27.5399C40.475 20.3472 46.0775 14.519 52.9875 14.519C54.63 14.5173 56.2568 14.8529 57.7748 15.5065C59.2928 16.1601 60.6723 17.1189 61.8344 18.3282C62.9964 19.5374 63.9183 20.9734 64.5473 22.554C65.1762 24.1346 65.5 25.8289 65.5 27.5399Z" stroke="#EF2689" stroke-width="1.5" stroke-linecap="round" stroke-linejoin="round"/>
</svg>
