<svg width="24" height="24" viewBox="0 0 24 24" fill="none" xmlns="http://www.w3.org/2000/svg">
<path d="M3.2957 20.6026L9.6597 14.2386M17.6737 11.4086L15.7687 17.1236C15.7383 17.2152 15.6862 17.2981 15.617 17.3653C15.5477 17.4325 15.4632 17.482 15.3707 17.5096L3.6927 20.9806C3.58749 21.0118 3.47572 21.0136 3.36957 20.9857C3.26341 20.9579 3.16693 20.9014 3.09062 20.8226C3.01432 20.7437 2.96111 20.6454 2.93679 20.5383C2.91247 20.4313 2.91797 20.3197 2.9527 20.2156L6.7447 8.84157C6.77187 8.7599 6.8163 8.68504 6.87497 8.62206C6.93363 8.55908 7.00516 8.50946 7.0847 8.47657L12.4717 6.25857C12.5812 6.21334 12.7017 6.20155 12.8179 6.22468C12.9341 6.24782 13.0409 6.30484 13.1247 6.38857L17.5287 10.7946C17.6075 10.8734 17.6628 10.9725 17.6884 11.081C17.714 11.1894 17.7089 11.3029 17.6737 11.4086Z" stroke="#134574" stroke-width="1.5" stroke-linecap="round" stroke-linejoin="round"/>
<path d="M17.7904 11.0565L20.6184 8.22748C20.9933 7.85242 21.2039 7.34381 21.2039 6.81348C21.2039 6.28315 20.9933 5.77453 20.6184 5.39948L18.4984 3.27748C18.3126 3.09168 18.0921 2.94428 17.8494 2.84372C17.6067 2.74316 17.3466 2.69141 17.0839 2.69141C16.8212 2.69141 16.561 2.74316 16.3183 2.84372C16.0756 2.94428 15.8551 3.09168 15.6694 3.27748L12.8414 6.10648M11.7794 12.1165C11.64 11.9772 11.4746 11.8668 11.2926 11.7914C11.1106 11.7161 10.9155 11.6773 10.7185 11.6774C10.5215 11.6774 10.3265 11.7162 10.1445 11.7917C9.96249 11.8671 9.79714 11.9776 9.65788 12.117C9.51861 12.2563 9.40815 12.4217 9.3328 12.6037C9.25746 12.7858 9.2187 12.9808 9.21875 13.1778C9.2188 13.3748 9.25764 13.5699 9.33308 13.7519C9.40851 13.9339 9.51904 14.0992 9.65838 14.2385C9.93977 14.5197 10.3214 14.6777 10.7192 14.6776C11.1171 14.6775 11.4986 14.5194 11.7799 14.238C12.0611 13.9566 12.2191 13.575 12.219 13.1771C12.2189 12.7793 12.0608 12.3977 11.7794 12.1165Z" stroke="#134574" stroke-width="1.5" stroke-linecap="round" stroke-linejoin="round"/>
</svg>
