<svg width="24" height="24" viewBox="0 0 24 24" fill="none" xmlns="http://www.w3.org/2000/svg">
<g clip-path="url(#clip0_5003_15118)">
<path d="M21.375 3.15033C21.1171 2.9835 20.8222 2.88258 20.5162 2.85642C20.2102 2.83027 19.9024 2.87968 19.62 3.00033L10.365 6.64533C10.1459 6.7345 9.91156 6.78035 9.675 6.78033H3.75C3.25272 6.78033 2.77581 6.97787 2.42417 7.3295C2.07254 7.68114 1.875 8.15805 1.875 8.65533V8.80533H0V13.3053H1.875V13.5003C1.88675 13.9898 2.08947 14.4552 2.43983 14.7972C2.7902 15.1391 3.26042 15.3305 3.75 15.3303L6 20.1003C6.15236 20.4215 6.39222 20.6933 6.69204 20.8843C6.99187 21.0753 7.33949 21.178 7.695 21.1803H8.64C9.13468 21.1764 9.60775 20.9771 9.95614 20.6259C10.3045 20.2747 10.5 19.8 10.5 19.3053V15.5103L19.62 19.1553C19.8443 19.2446 20.0836 19.2904 20.325 19.2903C20.6996 19.2843 21.0643 19.1697 21.375 18.9603C21.6217 18.7937 21.8252 18.5708 21.9687 18.31C22.1121 18.0491 22.1914 17.7579 22.2 17.4603V4.69533C22.1986 4.3901 22.1228 4.08983 21.979 3.82058C21.8352 3.55133 21.6279 3.32126 21.375 3.15033ZM8.625 8.65533V13.5003H3.75V8.65533H8.625ZM8.625 19.3053H7.68L5.835 15.3303H8.625V19.3053ZM11.055 13.7253C10.8769 13.6343 10.6912 13.559 10.5 13.5003V8.55033C10.6894 8.51126 10.875 8.45606 11.055 8.38533L20.325 4.69533V17.4153L11.055 13.7253ZM22.245 9.18033V12.9303C22.7423 12.9303 23.2192 12.7328 23.5708 12.3812C23.9225 12.0295 24.12 11.5526 24.12 11.0553C24.12 10.558 23.9225 10.0811 23.5708 9.7295C23.2192 9.37787 22.7423 9.18033 22.245 9.18033Z" fill="#134574"/>
</g>
<defs>
<clipPath id="clip0_5003_15118">
<rect width="24" height="24" fill="white"/>
</clipPath>
</defs>
</svg>
