<svg width="24" height="25" viewBox="0 0 24 25" fill="none" xmlns="http://www.w3.org/2000/svg">
<path d="M12 19.509L12.01 19.498" stroke="#134574" stroke-width="1.5" stroke-linecap="round" stroke-linejoin="round"/>
<path d="M18 18.5V21.9C18 21.9788 17.9845 22.0568 17.9543 22.1296C17.9242 22.2024 17.88 22.2685 17.8243 22.3243C17.7685 22.38 17.7024 22.4242 17.6296 22.4543C17.5568 22.4845 17.4788 22.5 17.4 22.5H6.6C6.52121 22.5 6.44319 22.4845 6.37039 22.4543C6.29759 22.4242 6.23145 22.38 6.17574 22.3243C6.12002 22.2685 6.07583 22.2024 6.04567 22.1296C6.01552 22.0568 6 21.9788 6 21.9V18.5M18 6.5V3.1C18 2.94087 17.9368 2.78826 17.8243 2.67574C17.7117 2.56321 17.5591 2.5 17.4 2.5H6.6C6.44087 2.5 6.28826 2.56321 6.17574 2.67574C6.06321 2.78826 6 2.94087 6 3.1V6.5" stroke="#134574" stroke-width="1.5" stroke-linecap="round"/>
<path d="M15.5 9L19 12.5L15.5 16M8.5 9L5 12.5L8.5 16" stroke="#134574" stroke-width="1.5" stroke-linecap="round" stroke-linejoin="round"/>
</svg>
