<svg width="80" height="91" viewBox="0 0 80 91" fill="none" xmlns="http://www.w3.org/2000/svg">
<path d="M40 90.7529C38.8036 90.7529 37.5893 90.4314 36.5357 89.8243L25.5179 83.3064C23.875 82.3779 24.6786 82.0564 25.2143 81.8779C27.4107 81.11 27.8571 80.9493 30.1964 79.61C30.4464 79.4671 30.7679 79.5207 31.0179 79.6814L39.4821 84.6993C39.7857 84.8779 40.2143 84.8779 40.5 84.6993L73.4821 65.6636C73.7857 65.485 73.9821 65.1279 73.9821 64.7707V26.6993C73.9821 26.3243 73.7857 25.985 73.4643 25.7886L40.5 6.77072C40.1964 6.59215 39.7857 6.59215 39.4821 6.77072L6.53571 25.8064C6.21429 25.985 6.01786 26.3421 6.01786 26.7171V64.7707C6.01786 65.1279 6.21429 65.485 6.53571 65.6457L15.5714 70.86C20.4821 73.3064 23.4821 70.4314 23.4821 67.5207V29.9493C23.4821 29.4136 23.9107 29.0029 24.4464 29.0029H28.625C29.1429 29.0029 29.5893 29.4136 29.5893 29.9493V67.5386C29.5893 74.0743 26.0179 77.8243 19.8214 77.8243C17.9107 77.8243 16.4107 77.8243 12.2321 75.7529L3.58929 70.7707C1.44643 69.5386 0.125 67.235 0.125 64.7529V26.6993C0.125 24.235 1.44643 21.9136 3.58929 20.6814L36.5357 1.64572C38.625 0.467152 41.3929 0.467152 43.4643 1.64572L76.4464 20.6993C78.5893 21.9314 79.9107 24.235 79.9107 26.7171V64.7707C79.9107 67.235 78.5893 69.5386 76.4464 70.7886L43.4643 89.8243C42.4107 90.4314 41.2143 90.7529 40 90.7529ZM66.625 53.235C66.625 46.11 61.8036 44.2171 51.6786 42.8779C41.4286 41.5207 40.3929 40.8243 40.3929 38.4314C40.3929 36.4493 41.2679 33.8064 48.8571 33.8064C55.625 33.8064 58.125 35.2707 59.1607 39.8421C59.25 40.2707 59.6429 40.5922 60.0893 40.5922H64.375C64.6429 40.5922 64.8929 40.485 65.0714 40.2886C65.25 40.0921 65.3393 39.8243 65.3214 39.5564C64.6607 31.6814 59.4286 28.0207 48.8571 28.0207C39.4464 28.0207 33.8393 31.985 33.8393 38.6457C33.8393 45.86 39.4286 47.86 48.4464 48.7529C59.25 49.8064 60.0893 51.3957 60.0893 53.5207C60.0893 57.1993 57.125 58.7707 50.1786 58.7707C41.4464 58.7707 39.5357 56.5743 38.8929 52.235C38.8214 51.7707 38.4286 51.4314 37.9464 51.4314H33.6786C33.1429 51.4314 32.7321 51.86 32.7321 52.3779C32.7321 57.9314 35.75 64.5564 50.1964 64.5564C60.625 64.5386 66.625 60.4136 66.625 53.235Z" fill="#828282"/>
</svg>
