<svg width="80" height="72" viewBox="0 0 80 72" fill="none" xmlns="http://www.w3.org/2000/svg">
<path d="M47.4333 35.7662C47.4333 37.7424 46.6485 39.6376 45.2515 41.0353C43.8544 42.433 41.9595 43.2186 39.9833 43.2195C38.0066 43.2195 36.1108 42.4343 34.713 41.0365C33.3153 39.6387 32.53 37.7429 32.53 35.7662C32.53 33.79 33.3148 31.8947 34.7119 30.4971C36.1089 29.0994 38.0038 28.3137 39.98 28.3129C41.9567 28.3129 43.8525 29.0981 45.2503 30.4959C46.6481 31.8937 47.4333 33.7894 47.4333 35.7662ZM56.26 0.132864C51.7733 0.132864 45.9033 3.33286 39.9667 8.87286C34.0333 3.36286 28.16 0.19953 23.6767 0.19953C22.31 0.19953 21.0667 0.50953 19.99 1.1262C15.4067 3.76953 14.38 12.0062 16.7467 22.3429C6.6 25.4762 0 30.4862 0 35.7662C0 41.0662 6.63333 46.0895 16.81 49.1995C14.4633 59.5762 15.51 67.8262 20.1033 70.4662C21.17 71.0895 22.4033 71.3829 23.7767 71.3829C28.26 71.3829 34.1333 68.1829 40.07 62.6362C46.0033 68.1495 51.8767 71.3129 56.36 71.3129C57.7267 71.3129 58.97 71.0129 60.0467 70.3962C64.6267 67.7562 65.6567 59.5195 63.29 49.1795C73.4 46.0729 80 41.0529 80 35.7662C80 30.4662 73.3667 25.4429 63.19 22.3262C65.5367 11.9595 64.49 3.70286 59.8967 1.05953C58.7861 0.435506 57.5338 0.115839 56.26 0.132864ZM56.2433 3.7662V3.7862C56.9933 3.7862 57.5967 3.93286 58.1033 4.20953C60.3233 5.48286 61.2867 10.3262 60.5367 16.5562C60.3567 18.0895 60.0633 19.7062 59.7033 21.3562C56.2948 20.5317 52.8348 19.937 49.3467 19.5762C47.2685 16.7102 45.0024 13.9853 42.5633 11.4195C47.87 6.4862 52.8533 3.77953 56.2467 3.76953L56.2433 3.7662ZM23.6767 3.83286C27.05 3.83286 32.0567 6.5262 37.3767 11.4329C35.09 13.8329 32.81 16.5562 30.6433 19.5729C27.1474 19.9321 23.6804 20.5313 20.2667 21.3662C19.9087 19.8029 19.6261 18.2233 19.42 16.6329C18.6533 10.4062 19.6 5.5662 21.8 4.2762C22.4333 3.9762 23.1333 3.84953 23.6767 3.83286ZM39.95 13.9995C41.47 15.564 42.9811 17.3018 44.4833 19.2129C43.0167 19.1462 41.5167 19.0995 40 19.0995C38.4644 19.0973 36.9533 19.1351 35.4667 19.2129C36.9333 17.3062 38.45 15.5629 39.95 13.9995ZM40 22.7529C42.4667 22.7529 44.9233 22.8662 47.34 23.0629C48.6956 25.0051 50.01 27.0718 51.2833 29.2629C52.5211 31.3984 53.6522 33.5606 54.6767 35.7495C53.65 37.9329 52.5233 40.1162 51.3 42.2495C50.0333 44.4495 48.7233 46.5429 47.3667 48.4829C42.4741 48.9116 37.5536 48.9172 32.66 48.4995C31.2617 46.4874 29.9462 44.419 28.7167 42.2995C27.4789 40.164 26.3478 38.0018 25.3233 35.8129C26.3527 33.5932 27.4794 31.42 28.7 29.2995C29.9667 27.0995 31.2767 25.0129 32.6333 23.0729C35.0829 22.8553 37.5408 22.7463 40 22.7462V22.7529ZM27.8833 23.5995C27.0833 24.8562 26.2833 26.1429 25.5367 27.4662C24.79 28.7662 24.0844 30.0706 23.42 31.3795C22.5367 29.1929 21.7867 27.0129 21.1667 24.8895C23.3 24.3895 25.55 23.9429 27.8833 23.5995ZM52.0833 23.5995C54.4033 23.9395 56.6322 24.3695 58.77 24.8895C58.17 26.9962 57.42 29.1629 56.57 31.3329C55.2096 28.6797 53.7131 26.0985 52.0867 23.5995H52.0833ZM62.2933 25.8495C63.9089 26.3518 65.4367 26.9051 66.8767 27.5095C72.65 29.9762 76.3833 33.2029 76.3833 35.7629C76.3667 38.3229 72.6333 41.5629 66.86 44.0129C65.46 44.6129 63.9267 45.1529 62.3433 45.6562C61.3418 42.2677 60.1169 38.9494 58.6767 35.7229C60.1767 32.3329 61.3767 29.0229 62.2933 25.8429V25.8495ZM17.6433 25.8629C18.57 29.0629 19.7933 32.3862 21.31 35.7962C19.8785 39.0027 18.669 42.3038 17.69 45.6762C16.0767 45.1762 14.5433 44.6162 13.1233 44.0095C7.35 41.5529 3.61667 38.3229 3.61667 35.7629C3.61667 33.2029 7.35 29.9562 13.1233 27.5095C14.5233 26.9095 16.0567 26.3695 17.6433 25.8629ZM56.57 40.1295C57.4533 42.3195 58.2033 44.5029 58.8233 46.6229C56.69 47.1462 54.4367 47.5895 52.1033 47.9229C53.7271 45.4041 55.2157 42.8028 56.57 40.1295ZM23.42 40.1962C24.0867 41.5029 24.7867 42.8062 25.5533 44.1129C26.32 45.4151 27.1033 46.6851 27.9033 47.9229C25.6557 47.5977 23.4244 47.1684 21.2167 46.6362C21.8167 44.5362 22.57 42.3629 23.4167 40.1929L23.42 40.1962ZM59.7333 50.1529C60.1067 51.7962 60.4 53.3795 60.58 54.8962C61.3467 61.1229 60.4 65.9629 58.2 67.2562C57.71 67.5562 57.0733 67.6829 56.3233 67.6829C52.95 67.6829 47.9433 64.9929 42.6233 60.0829C44.91 57.6829 47.19 54.9629 49.3567 51.9495C53.0467 51.5562 56.5367 50.9529 59.7333 50.1529ZM20.3 50.1862C23.5 50.9662 26.9867 51.5695 30.6567 51.9595C32.8567 54.9762 35.14 57.7162 37.44 60.1129C32.1233 65.0562 27.1333 67.7629 23.74 67.7629C23.0992 67.766 22.467 67.6151 21.8967 67.3229C19.6767 66.0562 18.7133 61.2095 19.4633 54.9795C19.6433 53.4462 19.94 51.8329 20.3 50.1862ZM35.5 52.3195C36.9689 52.3906 38.4633 52.4284 39.9833 52.4329C41.5189 52.4351 43.03 52.3973 44.5167 52.3195C43.05 54.2262 41.5333 55.9695 40.0333 57.5362C38.5133 55.9673 37.0022 54.2284 35.5 52.3195Z" fill="#828282"/>
</svg>
