<svg width="81" height="77" viewBox="0 0 81 77" fill="none" xmlns="http://www.w3.org/2000/svg">
<path d="M55.7799 53.7662C58.6799 53.5162 60.9232 50.9662 60.7799 47.9195C60.6232 44.8729 58.1265 42.4262 55.0832 42.4262H54.8799C53.3696 42.4801 51.9425 43.1315 50.9124 44.2372C49.8823 45.343 49.3334 46.8126 49.3865 48.3229C49.4865 49.9195 50.1399 51.2195 51.0332 52.1662C47.5399 58.9595 42.2965 63.9529 34.3499 68.1495C29.0065 70.9429 23.3632 71.9962 17.8699 71.2495C13.2765 70.5995 9.6832 68.5495 7.4832 65.2529C4.18987 60.2562 3.88987 54.8662 6.6332 49.4729C8.6332 45.5729 11.6299 42.7295 13.6299 41.3295C13.0267 39.6552 12.5585 37.9353 12.2299 36.1862C-2.56013 46.7795 -1.05346 61.2595 3.43987 68.1029C6.78654 73.0962 13.6299 76.2895 21.1199 76.2895C23.1199 76.2895 25.2199 76.1429 27.2632 75.6429C40.2532 73.1462 50.0899 65.3562 55.7332 53.8695L55.7799 53.7662ZM73.6065 41.2795C65.8732 32.1862 54.4799 27.1929 41.4932 27.1929H39.7932C38.9499 25.3462 37.0032 24.1962 34.7999 24.1962H34.6499C31.5065 24.1962 29.0565 26.8962 29.1599 30.0395C29.2599 33.0329 31.8065 35.5329 34.8532 35.5329H35.0999C36.1805 35.4911 37.2263 35.1392 38.1123 34.5192C38.9983 33.8991 39.6872 33.0372 40.0965 32.0362H41.9465C49.6432 32.0362 56.9299 34.2829 63.5732 38.6762C68.6632 42.0262 72.3132 46.4195 74.3632 51.6662C76.1565 55.9595 76.0599 60.1562 74.2132 63.6562C71.3632 69.1462 66.5665 72.0462 60.2265 72.0462C56.2299 72.0462 52.3365 70.7962 50.3365 69.8995C49.1365 70.8929 47.1365 72.5429 45.6899 73.5429C50.0832 75.5362 54.5299 76.6862 58.8232 76.6862C68.5632 76.6862 75.8032 71.1962 78.5532 65.8995C81.5465 59.9062 81.2999 49.8195 73.6532 41.1795L73.6065 41.2795ZM21.9665 55.5595C22.0665 58.5562 24.6099 61.0529 27.6599 61.0529H27.8599C28.6102 61.035 29.3494 60.8674 30.034 60.5599C30.7187 60.2524 31.335 59.8112 31.8467 59.2622C32.3585 58.7132 32.7553 58.0674 33.014 57.3629C33.2727 56.6584 33.3881 55.9093 33.3532 55.1595C33.3532 52.1595 30.7565 49.6695 27.7099 49.6695H27.5099C27.3099 49.6695 27.0099 49.6695 26.7565 49.7662C22.6132 42.7729 20.8632 35.2762 21.5165 27.1929C21.9165 21.0995 23.9165 15.8029 27.5065 11.4095C30.5065 7.66287 36.1499 5.80953 39.9965 5.7162C50.7832 5.51287 55.2799 18.9529 55.6265 24.2962L60.6199 25.7962C59.4699 9.40953 49.2865 0.819534 39.5465 0.819534C30.3999 0.819534 21.9665 7.46287 18.5665 17.2029C13.9232 30.1862 16.9699 42.6762 22.6665 52.6662C22.1665 53.3162 21.8665 54.4629 21.9665 55.5595Z" fill="#828282"/>
</svg>
