<svg width="43" height="43" viewBox="0 0 43 43" fill="none" xmlns="http://www.w3.org/2000/svg">
<rect x="0.671387" y="0.654541" width="41.5286" height="41.5286" rx="20.7643" fill="white" fill-opacity="0.2"/>
<path d="M31.819 16.8292C30.8083 17.1355 29.0543 17.6332 27.1746 18.0208C26.7417 15.3892 25.9827 12.7645 25.6177 11.5759C28.3327 12.4048 30.5708 14.3269 31.819 16.8292Z" fill="white"/>
<path d="M25.6607 18.3025C24.5968 18.4745 23.5448 18.5868 22.6131 18.5868C21.6813 18.5868 20.6294 18.4745 19.5654 18.3026C19.9732 15.8126 20.701 13.2689 21.0731 12.0547C21.1684 11.7439 21.2062 11.6219 21.2718 11.458C21.3045 11.3762 21.3378 11.3011 21.3846 11.2034C21.7874 11.1554 22.1973 11.1307 22.6131 11.1307C23.0473 11.1307 23.4753 11.1577 23.8954 11.2099C23.9044 11.244 23.9126 11.2745 23.9207 11.3034C23.9447 11.3887 23.9825 11.5085 24.0457 11.7096L24.0524 11.7308C24.3697 12.7392 25.2104 15.552 25.6607 18.3025Z" fill="white"/>
<path d="M18.0471 18.0207C18.4781 15.4008 19.232 12.7902 19.5964 11.6012L19.6042 11.5759C16.8891 12.4048 14.651 14.3269 13.4028 16.8292C14.4135 17.1355 16.1674 17.6332 18.0471 18.0207Z" fill="white"/>
<path d="M22.6109 26.3008C23.4698 26.3008 24.412 26.2148 25.3684 26.0779C24.9632 28.0197 24.4455 29.8146 24.1508 30.776C24.0556 31.0868 24.0177 31.2088 23.9522 31.3727C23.9195 31.4546 23.8861 31.5296 23.8393 31.6274C23.4366 31.6753 23.0266 31.7 22.6109 31.7C22.1951 31.7 21.7852 31.6753 21.3824 31.6274C21.3357 31.5296 21.3024 31.4546 21.2697 31.3727C21.2041 31.2089 21.1662 31.0868 21.0709 30.7761C20.7763 29.8147 20.2587 28.0199 19.8535 26.0783C20.8067 26.2147 21.749 26.3008 22.6109 26.3008Z" fill="white"/>
<path d="M15.7931 25.2579C14.5199 24.9411 13.4354 24.6228 12.7739 24.4198C13.7697 27.6814 16.3429 30.2546 19.6045 31.2503L19.5967 31.225C19.2785 30.1868 18.6634 28.0648 18.2255 25.7991C17.3739 25.6344 16.546 25.4452 15.7931 25.2579Z" fill="white"/>
<path d="M32.423 24.4275C31.3847 24.7458 29.2626 25.361 26.9967 25.7988C26.5589 28.0646 25.9436 30.1867 25.6255 31.225L25.6177 31.2503C28.8792 30.2546 31.4525 27.6814 32.4483 24.4198L32.423 24.4275Z" fill="white"/>
<path d="M12.8182 18.2672C12.499 19.2601 12.3267 20.3188 12.3267 21.4176C12.3267 21.8476 12.353 22.2713 12.4043 22.6873L12.5663 22.7413L12.5676 22.7418L12.5692 22.7423L12.5703 22.7427C12.6225 22.76 14.1514 23.2649 16.1649 23.7658C16.7331 23.9072 17.3347 24.047 17.9488 24.175C17.8118 23.2187 17.7259 22.2765 17.7259 21.4176C17.7259 20.8289 17.7663 20.2009 17.8358 19.5561C15.7883 19.1398 13.9057 18.5989 12.9006 18.2931L12.8936 18.291L12.8182 18.2672Z" fill="#E4CBFF"/>
<path d="M12.4351 22.7146C12.4707 22.7192 12.4997 22.7241 12.5093 22.7263C12.5177 22.7284 12.531 22.7318 12.5357 22.7332L12.5463 22.7362L12.552 22.7379L12.558 22.7398L12.5631 22.7413C12.5602 22.7405 12.5031 22.7262 12.4351 22.7146Z" fill="#E4CBFF"/>
<path d="M27.3849 19.5561C27.4545 20.201 27.4949 20.8291 27.4949 21.4176C27.4949 22.2766 27.409 23.2188 27.272 24.1751C29.2138 23.7699 31.0088 23.2522 31.9702 22.9576C32.2809 22.8623 32.403 22.8244 32.5668 22.7589C32.6487 22.7262 32.7237 22.6929 32.8215 22.6461C32.8694 22.2433 32.8941 21.8334 32.8941 21.4176C32.8941 20.3188 32.7217 19.2601 32.4026 18.2672L32.3195 18.2934C31.3142 18.5992 29.432 19.1399 27.3849 19.5561Z" fill="#E4CBFF"/>
<path d="M25.8658 19.8313C25.922 20.3824 25.9543 20.9158 25.9543 21.4151C25.9543 22.3496 25.8413 23.4048 25.6686 24.4717C24.6017 24.6444 23.5464 24.7574 22.6119 24.7574C21.6816 24.7574 20.6267 24.6448 19.5551 24.4713C19.3825 23.4045 19.2695 22.3495 19.2695 21.4151C19.2695 20.916 19.3017 20.3825 19.3581 19.8313C20.4827 20.0113 21.6045 20.1295 22.6119 20.1295C23.6194 20.1295 24.7412 20.0113 25.8658 19.8313Z" fill="#E4CBFF"/>
</svg>
