<svg width="62" height="63" viewBox="0 0 62 63" fill="none" xmlns="http://www.w3.org/2000/svg">
<rect y="0.0385742" width="62" height="62" rx="12" fill="#FCD1E6" fill-opacity="0.84"/>
<path d="M18.75 44.9998C17.7875 44.9998 16.9638 44.6573 16.279 43.9725C15.5942 43.2877 15.2512 42.4634 15.25 41.4998V16.9998C15.25 16.0373 15.593 15.2136 16.279 14.5288C16.965 13.8439 17.7887 13.5009 18.75 13.4998H43.25C44.2125 13.4998 45.0367 13.8428 45.7227 14.5288C46.4088 15.2148 46.7512 16.0384 46.75 16.9998V24.0435C46.75 24.5393 46.582 24.9477 46.246 25.2685C45.91 25.5893 45.4947 25.7498 45 25.7498C44.5053 25.7498 44.09 25.5818 43.754 25.2458C43.418 24.9098 43.25 24.4944 43.25 23.9998V16.9998H18.75V32.7498H24.9625C25.3125 32.7498 25.6187 32.8303 25.8812 32.9913C26.1437 33.1523 26.3479 33.3634 26.4938 33.6248C26.8146 34.1206 27.1722 34.5365 27.5665 34.8725C27.9608 35.2085 28.4053 35.4926 28.9 35.7248C29.2208 35.8706 29.4763 36.0893 29.6665 36.381C29.8567 36.6727 29.9512 36.9935 29.95 37.3435C29.95 37.9268 29.7242 38.4157 29.2727 38.81C28.8212 39.2043 28.2595 39.2843 27.5875 39.0498C26.8292 38.8164 26.1659 38.4373 25.5977 37.9123C25.0296 37.3873 24.497 36.8331 24 36.2498H18.75V41.4998H28.2C28.6958 41.4998 29.1117 41.6678 29.4478 42.0038C29.7838 42.3398 29.9512 42.7551 29.95 43.2498C29.9488 43.7444 29.7808 44.1603 29.446 44.4975C29.1112 44.8347 28.6958 45.0021 28.2 44.9998H18.75ZM39.2688 44.1248C38.9188 43.9789 38.5909 43.8261 38.2852 43.6663C37.9796 43.5064 37.6658 43.3093 37.3438 43.0748L35.4625 43.6435C35.2583 43.7018 35.0688 43.6948 34.8938 43.6225C34.7188 43.5502 34.5729 43.4259 34.4563 43.2498L33.4062 41.4998C33.2896 41.3248 33.2604 41.1352 33.3188 40.931C33.3771 40.7268 33.4792 40.5518 33.625 40.406L35.0688 39.1373C35.0104 38.7873 34.9812 38.4081 34.9812 37.9998C34.9812 37.5914 35.0104 37.2123 35.0688 36.8623L33.625 35.5935C33.4792 35.4477 33.3771 35.2727 33.3188 35.0685C33.2604 34.8643 33.2896 34.6748 33.4062 34.4998L34.4563 32.7498C34.5729 32.5748 34.7188 32.4511 34.8938 32.3788C35.0688 32.3064 35.2583 32.2988 35.4625 32.356L37.3438 32.9248C37.6646 32.6914 37.9784 32.4948 38.2852 32.335C38.5921 32.1752 38.9199 32.0218 39.2688 31.8748L39.6625 29.9498C39.7208 29.7456 39.8159 29.5776 39.9478 29.4458C40.0796 29.3139 40.2616 29.2486 40.4937 29.2498H42.5938C42.8271 29.2498 43.0097 29.3157 43.1415 29.4475C43.2733 29.5793 43.3678 29.7468 43.425 29.9498L43.8188 31.8748C44.1688 32.0206 44.4972 32.174 44.804 32.335C45.1108 32.496 45.4241 32.6926 45.7437 32.9248L47.625 32.356C47.8292 32.2977 48.0188 32.3053 48.1938 32.3788C48.3688 32.4523 48.5146 32.5759 48.6313 32.7498L49.6812 34.4998C49.7979 34.6748 49.8271 34.8643 49.7687 35.0685C49.7104 35.2727 49.6083 35.4477 49.4625 35.5935L48.0187 36.8623C48.0771 37.2123 48.1063 37.5914 48.1063 37.9998C48.1063 38.4081 48.0771 38.7873 48.0187 39.1373L49.4625 40.406C49.6083 40.5518 49.7104 40.7268 49.7687 40.931C49.8271 41.1352 49.7979 41.3248 49.6812 41.4998L48.6313 43.2498C48.5146 43.4248 48.3688 43.549 48.1938 43.6225C48.0188 43.696 47.8292 43.703 47.625 43.6435L45.7437 43.0748C45.4229 43.3081 45.1097 43.5053 44.804 43.6663C44.4983 43.8273 44.1699 43.9801 43.8188 44.1248L43.425 46.0498C43.3667 46.2539 43.2722 46.4219 43.1415 46.5538C43.0108 46.6856 42.8283 46.7509 42.5938 46.7498H40.4937C40.2604 46.7498 40.0784 46.6844 39.9478 46.5538C39.8171 46.4231 39.722 46.2551 39.6625 46.0498L39.2688 44.1248ZM41.5437 41.4998C42.5062 41.4998 43.3305 41.1573 44.0165 40.4725C44.7025 39.7877 45.0449 38.9634 45.0437 37.9998C45.0426 37.0361 44.7002 36.2124 44.0165 35.5288C43.3328 34.8451 42.5086 34.5021 41.5437 34.4998C40.5789 34.4974 39.7553 34.8404 39.0728 35.5288C38.3903 36.2171 38.0472 37.0408 38.0437 37.9998C38.0402 38.9588 38.3833 39.783 39.0728 40.4725C39.7623 41.162 40.5859 41.5044 41.5437 41.4998Z" fill="#EF2689"/>
</svg>
