<svg width="62" height="63" viewBox="0 0 62 63" fill="none" xmlns="http://www.w3.org/2000/svg">
<rect y="0.0385742" width="62" height="62" rx="12" fill="#FCD1E6" fill-opacity="0.84"/>
<g clip-path="url(#clip0_5147_6383)">
<path d="M37.5625 9.99976C37.918 9.99976 38.2256 10.1296 38.4854 10.3894L51.6104 23.5144C51.8701 23.7742 52 24.0818 52 24.4373C52 24.7927 51.8701 25.1003 51.6104 25.3601L46.627 30.3435C46.9688 30.6853 47.3037 31.0134 47.6318 31.3279C47.96 31.6423 48.2471 31.9636 48.4932 32.2917C48.7393 32.6199 48.9443 32.989 49.1084 33.3992C49.2725 33.8093 49.3545 34.2673 49.3545 34.7732C49.3545 35.3201 49.252 35.8396 49.0469 36.3318C48.8418 36.824 48.5615 37.2546 48.2061 37.6238C47.8506 37.9929 47.4336 38.2869 46.9551 38.5056C46.4766 38.7244 45.9639 38.8406 45.417 38.8542C45.3896 39.4148 45.2734 39.9275 45.0684 40.3923C44.8633 40.8572 44.5898 41.2673 44.248 41.6228C43.9062 41.9783 43.4961 42.2585 43.0176 42.4636C42.5391 42.6687 42.0264 42.7781 41.4795 42.7917C41.4658 43.3386 41.3496 43.8513 41.1309 44.3298C40.9121 44.8083 40.6182 45.2253 40.249 45.5808C39.8799 45.9363 39.4492 46.2234 38.957 46.4421C38.4648 46.6609 37.9453 46.7634 37.3984 46.7498C36.9609 46.7498 36.5166 46.6746 36.0654 46.5242C35.915 46.948 35.7168 47.3308 35.4707 47.6726C35.2246 48.0144 34.9238 48.3152 34.5684 48.575C34.2129 48.8347 33.8369 49.033 33.4404 49.1697C33.0439 49.3064 32.6133 49.3748 32.1484 49.3748C31.793 49.3748 31.4785 49.3474 31.2051 49.2927C30.9316 49.238 30.6787 49.1423 30.4463 49.0056C30.2139 48.8689 29.9814 48.7185 29.749 48.5544C29.5166 48.3904 29.2773 48.1921 29.0312 47.9597C28.5527 48.3972 28.0879 48.739 27.6367 48.9851C27.1855 49.2312 26.6113 49.3611 25.9141 49.3748C25.3672 49.3748 24.8477 49.2722 24.3555 49.0671C23.8633 48.8621 23.4326 48.5818 23.0635 48.2263C22.6943 47.8708 22.4004 47.4539 22.1816 46.9753C21.9629 46.4968 21.8467 45.9773 21.833 45.4167C21.2998 45.4031 20.7939 45.2937 20.3154 45.0886C19.8369 44.8835 19.4199 44.6033 19.0645 44.2478C18.709 43.8923 18.4287 43.4753 18.2236 42.9968C18.0186 42.5183 17.9092 42.0125 17.8955 41.4792C17.3486 41.4656 16.8428 41.3562 16.3779 41.1511C15.9131 40.946 15.5029 40.6658 15.1475 40.3103C14.792 39.9548 14.5117 39.5378 14.3066 39.0593C14.1016 38.5808 13.9854 38.075 13.958 37.5417C13.3975 37.5281 12.8779 37.4119 12.3994 37.1931C11.9209 36.9744 11.5039 36.6804 11.1484 36.3113C10.793 35.9421 10.5127 35.5183 10.3076 35.0398C10.1025 34.5613 10 34.0417 10 33.4812C10 32.9207 10.1025 32.3943 10.3076 31.9021C10.5127 31.4099 10.8135 30.9656 11.21 30.5691L13.3838 28.3748L10.3896 25.3601C10.1299 25.1003 10 24.7927 10 24.4373C10 24.0818 10.1299 23.7742 10.3896 23.5144L23.5146 10.3894C23.7744 10.1296 24.082 9.99976 24.4375 9.99976C24.793 9.99976 25.1006 10.1296 25.3604 10.3894L28.0674 13.0964C28.2451 13.0417 28.5869 12.9255 29.0928 12.7478C29.5986 12.5701 30.1934 12.3718 30.877 12.1531C31.5605 11.9343 32.2646 11.6951 32.9893 11.4353C33.7139 11.1755 34.4111 10.9431 35.0811 10.738C35.751 10.533 36.3047 10.3552 36.7422 10.2048C37.1797 10.0544 37.4531 9.98608 37.5625 9.99976ZM16.3984 29.6873C16.002 29.6873 15.6602 29.8308 15.373 30.1179L13.0557 32.4148C12.7686 32.7019 12.625 33.0505 12.625 33.4607C12.625 33.8708 12.7617 34.2126 13.0352 34.4861C13.3086 34.7595 13.6572 34.9031 14.0811 34.9167C14.5049 34.9167 14.8535 34.78 15.127 34.5066L17.4443 32.2097C17.7314 31.9226 17.875 31.574 17.875 31.1638C17.875 30.7537 17.7314 30.405 17.4443 30.1179C17.1572 29.8308 16.8086 29.6873 16.3984 29.6873ZM20.3359 33.6248C20.1445 33.6248 19.96 33.6589 19.7822 33.7273C19.6045 33.7957 19.4404 33.905 19.29 34.0554L16.9932 36.3728C16.7061 36.6599 16.5625 37.0085 16.5625 37.4187C16.5625 37.8152 16.7061 38.1501 16.9932 38.4236C17.2803 38.697 17.6289 38.8406 18.0391 38.8542C18.2305 38.8542 18.415 38.8201 18.5928 38.7517C18.7705 38.6833 18.9346 38.5808 19.085 38.4441L21.3818 36.1267C21.6689 35.8396 21.8125 35.4978 21.8125 35.1013C21.8125 34.6912 21.6689 34.3425 21.3818 34.0554C21.0947 33.7683 20.7461 33.6248 20.3359 33.6248ZM24.2734 37.5623C23.877 37.5623 23.5352 37.7058 23.248 37.9929L20.9307 40.2898C20.6436 40.5769 20.5 40.9255 20.5 41.3357C20.5 41.7458 20.6367 42.0876 20.9102 42.3611C21.1836 42.6345 21.5322 42.7781 21.9561 42.7917C22.3799 42.7917 22.7285 42.655 23.002 42.3816L25.3193 40.0847C25.6064 39.7976 25.75 39.449 25.75 39.0388C25.75 38.6287 25.6064 38.28 25.3193 37.9929C25.0322 37.7058 24.6836 37.5623 24.2734 37.5623ZM24.4375 45.2937C24.4375 45.6902 24.5811 46.0251 24.8682 46.2986C25.1553 46.572 25.5039 46.7156 25.9141 46.7292C26.1055 46.7292 26.29 46.6951 26.4678 46.6267C26.6455 46.5583 26.8096 46.4558 26.96 46.3191L29.2568 44.0017C29.5439 43.7146 29.6875 43.3728 29.6875 42.9763C29.6875 42.5662 29.5439 42.2175 29.2568 41.9304C28.9697 41.6433 28.6211 41.4998 28.2109 41.4998C28.0195 41.4998 27.835 41.5339 27.6572 41.6023C27.4795 41.6707 27.3154 41.78 27.165 41.9304L24.8682 44.2478C24.5811 44.5349 24.4375 44.8835 24.4375 45.2937ZM45.2734 36.2498C45.6699 36.2498 46.0117 36.1062 46.2988 35.8191C46.5859 35.532 46.7363 35.1902 46.75 34.7937C46.75 34.3835 46.6064 34.0349 46.3193 33.7478L33.3584 20.7664C33.3174 20.7253 33.249 20.6912 33.1533 20.6638C33.0576 20.6365 32.9619 20.6091 32.8662 20.5818C32.7705 20.5544 32.668 20.5339 32.5586 20.5203C32.4492 20.5066 32.3672 20.4998 32.3125 20.4998C31.957 20.4998 31.6221 20.5681 31.3076 20.7048C30.9932 20.8416 30.7129 21.0261 30.4668 21.2585C30.2207 21.491 30.0293 21.7712 29.8926 22.0994C29.7559 22.4275 29.6875 22.7693 29.6875 23.1248C29.6875 23.8494 29.5508 24.5261 29.2773 25.155C29.0039 25.7839 28.6279 26.3445 28.1494 26.8367C27.6709 27.3289 27.1172 27.7048 26.4883 27.9646C25.8594 28.2244 25.1758 28.3611 24.4375 28.3748C23.8906 28.3748 23.3779 28.2722 22.8994 28.0671C22.4209 27.8621 22.0039 27.5818 21.6484 27.2263C21.293 26.8708 21.0127 26.4539 20.8076 25.9753C20.6025 25.4968 20.5 24.9841 20.5 24.4373C20.5 24.1091 20.5342 23.7468 20.6025 23.3503C20.6709 22.9539 20.7803 22.5984 20.9307 22.2839L24.7656 14.5935C24.8887 14.3748 25.0732 14.197 25.3193 14.0603L24.4375 13.1785L13.1582 24.4373L15.9268 27.1853C16.542 27.1169 17.123 27.158 17.6699 27.3083C18.2168 27.4587 18.6953 27.7117 19.1055 28.0671C19.5156 28.4226 19.8438 28.8533 20.0898 29.3591C20.3359 29.865 20.4658 30.4324 20.4795 31.0613C21.0264 31.0886 21.5391 31.198 22.0176 31.3894C22.4961 31.5808 22.9062 31.8542 23.248 32.2097C23.5898 32.5652 23.8701 32.9753 24.0889 33.4402C24.3076 33.905 24.417 34.4246 24.417 34.9988C24.9639 35.0261 25.4766 35.1355 25.9551 35.3269C26.4336 35.5183 26.8438 35.7917 27.1855 36.1472C27.5273 36.5027 27.8076 36.9128 28.0264 37.3777C28.2451 37.8425 28.3545 38.3621 28.3545 38.9363C28.915 38.9636 29.4346 39.0798 29.9131 39.2849C30.3916 39.49 30.8086 39.7703 31.1641 40.1257C31.5195 40.4812 31.7998 40.905 32.0049 41.3972C32.21 41.8894 32.3125 42.4158 32.3125 42.9763C32.3125 43.5916 32.1895 44.1658 31.9434 44.699C31.6973 45.2322 31.3418 45.697 30.877 46.0935C31.082 46.2849 31.2666 46.4421 31.4307 46.5652C31.5947 46.6882 31.834 46.7498 32.1484 46.7498C32.5449 46.7498 32.8867 46.6062 33.1738 46.3191C33.4609 46.032 33.6113 45.6902 33.625 45.2937C33.625 44.8835 33.4814 44.5349 33.1943 44.2478L35.04 42.3816L36.373 43.6941C36.6875 43.9812 37.0293 44.1248 37.3984 44.1248C37.7949 44.1248 38.1367 43.9812 38.4238 43.6941C38.7109 43.407 38.8613 43.0652 38.875 42.6687C38.875 42.2585 38.7314 41.9099 38.4443 41.6228L36.127 39.3054L37.9932 37.4597L40.29 39.7566C40.5771 40.0437 40.9258 40.1873 41.3359 40.1873C41.7461 40.1873 42.0947 40.0437 42.3818 39.7566C42.6689 39.4695 42.8125 39.1208 42.8125 38.7107C42.8125 38.3005 42.6689 37.9519 42.3818 37.6648L40.0645 35.3679L41.9307 33.5017L44.248 35.8191C44.5352 36.1062 44.877 36.2498 45.2734 36.2498ZM48.8213 24.4373L37.2139 12.8093L26.8779 16.2546L23.3096 23.3914C23.2412 23.5144 23.1934 23.6853 23.166 23.9041C23.1387 24.1228 23.125 24.3005 23.125 24.4373C23.125 24.7927 23.2549 25.1003 23.5146 25.3601C23.7744 25.6199 24.082 25.7498 24.4375 25.7498C24.8066 25.7498 25.1484 25.6814 25.4629 25.5447C25.7773 25.408 26.0508 25.2234 26.2832 24.991C26.5156 24.7585 26.707 24.4783 26.8574 24.1501C27.0078 23.822 27.0762 23.4802 27.0625 23.1248C27.0625 22.4001 27.1992 21.7234 27.4727 21.0945C27.7461 20.4656 28.1221 19.905 28.6006 19.4128C29.0791 18.9207 29.6328 18.5447 30.2617 18.2849C30.8906 18.0251 31.5742 17.8884 32.3125 17.8748C32.5312 17.8748 32.7637 17.8953 33.0098 17.9363C33.2559 17.9773 33.5156 18.032 33.7891 18.1003C34.0625 18.1687 34.3018 18.2644 34.5068 18.3875C34.7119 18.5105 34.9102 18.6541 35.1016 18.8181L44.7812 28.4978L48.8213 24.4373Z" fill="#EF2689"/>
</g>
<defs>
<clipPath id="clip0_5147_6383">
<rect width="42" height="42" fill="white" transform="translate(10 9.99976)"/>
</clipPath>
</defs>
</svg>
