<svg width="62" height="63" viewBox="0 0 62 63" fill="none" xmlns="http://www.w3.org/2000/svg">
<rect y="0.0385742" width="62" height="62" rx="12" fill="#FCD1E6" fill-opacity="0.84"/>
<path d="M45.875 31.0386C45.1458 31.0386 44.5263 30.7837 44.0165 30.2739C43.5067 29.764 43.2512 29.144 43.25 28.4136V17.9136C43.25 17.1845 43.5055 16.565 44.0165 16.0551C44.5275 15.5453 45.147 15.2898 45.875 15.2886C46.603 15.2875 47.2231 15.543 47.7353 16.0551C48.2474 16.5673 48.5023 17.1868 48.5 17.9136V28.4136C48.5 29.1428 48.2451 29.7629 47.7353 30.2739C47.2254 30.7849 46.6053 31.0398 45.875 31.0386ZM27.5 31.0386C25.575 31.0386 23.9271 30.3532 22.5563 28.9824C21.1854 27.6115 20.5 25.9636 20.5 24.0386C20.5 22.1136 21.1854 20.4657 22.5563 19.0949C23.9271 17.724 25.575 17.0386 27.5 17.0386C29.425 17.0386 31.0729 17.724 32.4438 19.0949C33.8146 20.4657 34.5 22.1136 34.5 24.0386C34.5 25.9636 33.8146 27.6115 32.4438 28.9824C31.0729 30.3532 29.425 31.0386 27.5 31.0386ZM13.5 45.0386V40.1386C13.5 39.147 13.7479 38.2358 14.2437 37.4051C14.7396 36.5745 15.425 35.9398 16.3 35.5011C18.05 34.6261 19.8659 33.9553 21.7478 33.4886C23.6296 33.022 25.547 32.7886 27.5 32.7886C29.453 32.7886 31.371 33.022 33.254 33.4886C35.137 33.9553 36.9523 34.6261 38.7 35.5011C39.575 35.9386 40.2604 36.5733 40.7563 37.4051C41.2521 38.237 41.5 39.1481 41.5 40.1386V45.0386H13.5ZM17 41.5386H38V40.1386C38 39.8178 37.9271 39.5261 37.7813 39.2636C37.6354 39.0011 37.4167 38.797 37.125 38.6511C35.6375 37.8928 34.0847 37.3095 32.4665 36.9011C30.8483 36.4928 29.1928 36.2886 27.5 36.2886C25.8072 36.2886 24.1517 36.4928 22.5335 36.9011C20.9153 37.3095 19.3625 37.8928 17.875 38.6511C17.5833 38.797 17.3646 39.0011 17.2188 39.2636C17.0729 39.5261 17 39.8178 17 40.1386V41.5386ZM27.5 27.5386C28.4625 27.5386 29.2868 27.1962 29.9728 26.5114C30.6588 25.8265 31.0012 25.0023 31 24.0386C30.9988 23.075 30.6564 22.2513 29.9728 21.5676C29.2891 20.884 28.4648 20.541 27.5 20.5386C26.5352 20.5363 25.7115 20.8793 25.029 21.5676C24.3465 22.256 24.0035 23.0796 24 24.0386C23.9965 24.9976 24.3395 25.8219 25.029 26.5114C25.7185 27.2009 26.5422 27.5433 27.5 27.5386Z" fill="#EF2689"/>
</svg>
