<svg width="62" height="63" viewBox="0 0 62 63" fill="none" xmlns="http://www.w3.org/2000/svg">
<rect y="0.0385742" width="62" height="62" rx="12" fill="#FCD1E6" fill-opacity="0.84"/>
<path d="M26.75 20.4998V13.4998M26.75 48.4998V41.4998M37.25 48.4998V41.4998M49.5 36.2498H42.5M21.5 36.2498H14.5M21.5 25.7498H14.5M37.25 15.2498C40.0348 15.2498 42.7055 16.356 44.6746 18.3251C46.6438 20.2943 47.75 22.965 47.75 25.7498M21.5 22.2498C21.5 21.7856 21.6844 21.3405 22.0126 21.0123C22.3408 20.6841 22.7859 20.4998 23.25 20.4998H37.25C38.6424 20.4998 39.9777 21.0529 40.9623 22.0374C41.9469 23.022 42.5 24.3574 42.5 25.7498V39.7498C42.5 40.2139 42.3156 40.659 41.9874 40.9872C41.6592 41.3154 41.2141 41.4998 40.75 41.4998H23.25C22.7859 41.4998 22.3408 41.3154 22.0126 40.9872C21.6844 40.659 21.5 40.2139 21.5 39.7498V22.2498Z" stroke="#EF2689" stroke-width="3"/>
</svg>
