<svg width="24" height="25" viewBox="0 0 24 25" fill="none" xmlns="http://www.w3.org/2000/svg">
<path d="M14 18.82C12.9093 18.2928 11.9726 17.4939 11.28 16.5H3V4.5H21V6.76C21.8092 7.32947 22.4904 8.0618 23 8.91V4.5C23 3.96957 22.7893 3.46086 22.4142 3.08579C22.0391 2.71071 21.5304 2.5 21 2.5H3C2.46957 2.5 1.96086 2.71071 1.58579 3.08579C1.21071 3.46086 1 3.96957 1 4.5V16.5C1 17.0304 1.21071 17.5391 1.58579 17.9142C1.96086 18.2893 2.46957 18.5 3 18.5H10V20.5H8V22.5H16V20.5H14V18.82Z" fill="black"/>
<path d="M17 6.5C15.8133 6.5 14.6533 6.85189 13.6666 7.51118C12.6799 8.17047 11.9109 9.10754 11.4567 10.2039C11.0026 11.3003 10.8838 12.5067 11.1153 13.6705C11.3468 14.8344 11.9182 15.9035 12.7574 16.7426C13.5965 17.5818 14.6656 18.1532 15.8295 18.3847C16.9933 18.6162 18.1997 18.4974 19.2961 18.0433C20.3925 17.5892 21.3295 16.8201 21.9888 15.8334C22.6481 14.8467 23 13.6867 23 12.5C23 10.9087 22.3679 9.38258 21.2426 8.25736C20.1174 7.13214 18.5913 6.5 17 6.5ZM17 14C16.7033 14 16.4133 13.912 16.1666 13.7472C15.92 13.5824 15.7277 13.3481 15.6142 13.074C15.5007 12.7999 15.4709 12.4983 15.5288 12.2074C15.5867 11.9164 15.7296 11.6491 15.9393 11.4393C16.1491 11.2296 16.4164 11.0867 16.7074 11.0288C16.9983 10.9709 17.2999 11.0006 17.574 11.1142C17.8481 11.2277 18.0824 11.42 18.2472 11.6666C18.412 11.9133 18.5 12.2033 18.5 12.5C18.5 12.8978 18.342 13.2794 18.0607 13.5607C17.7794 13.842 17.3978 14 17 14Z" fill="black"/>
</svg>
