<svg width="16" height="23" viewBox="0 0 16 23" fill="none" xmlns="http://www.w3.org/2000/svg">
<path d="M8 18.509L8.01 18.498" stroke="black" stroke-width="1.5" stroke-linecap="round" stroke-linejoin="round"/>
<path d="M14 17.5V20.9C14 20.9788 13.9845 21.0568 13.9543 21.1296C13.9242 21.2024 13.88 21.2685 13.8243 21.3243C13.7685 21.38 13.7024 21.4242 13.6296 21.4543C13.5568 21.4845 13.4788 21.5 13.4 21.5H2.6C2.52121 21.5 2.44319 21.4845 2.37039 21.4543C2.29759 21.4242 2.23145 21.38 2.17574 21.3243C2.12002 21.2685 2.07583 21.2024 2.04567 21.1296C2.01552 21.0568 2 20.9788 2 20.9V17.5M14 5.5V2.1C14 1.94087 13.9368 1.78826 13.8243 1.67574C13.7117 1.56321 13.5591 1.5 13.4 1.5H2.6C2.44087 1.5 2.28826 1.56321 2.17574 1.67574C2.06321 1.78826 2 1.94087 2 2.1V5.5" stroke="black" stroke-width="1.5" stroke-linecap="round"/>
<path d="M11.5 8L15 11.5L11.5 15M4.5 8L1 11.5L4.5 15" stroke="black" stroke-width="1.5" stroke-linecap="round" stroke-linejoin="round"/>
</svg>
