<svg width="56" height="48" viewBox="0 0 56 48" fill="none" xmlns="http://www.w3.org/2000/svg">
<mask id="path-1-inside-1_3448_1748" fill="white">
<path d="M0.414062 8.96448C0.414062 4.01354 4.42759 0 9.37853 0H46.1327C51.0837 0 55.0972 4.01353 55.0972 8.96447V38.5473C55.0972 43.4982 51.0837 47.5118 46.1328 47.5118H9.37854C4.4276 47.5118 0.414062 43.4982 0.414062 38.5473V8.96448Z"/>
</mask>
<path d="M0.414062 8.96448C0.414062 4.01354 4.42759 0 9.37853 0H46.1327C51.0837 0 55.0972 4.01353 55.0972 8.96447V38.5473C55.0972 43.4982 51.0837 47.5118 46.1328 47.5118H9.37854C4.4276 47.5118 0.414062 43.4982 0.414062 38.5473V8.96448Z" fill="white"/>
<path d="M0.414062 0H55.0972H0.414062ZM55.9937 38.5473C55.9937 43.9933 51.5788 48.4082 46.1327 48.4082H9.37853C3.9325 48.4082 -0.482384 43.9933 -0.482384 38.5473L1.31051 38.5473C1.31051 43.0032 4.92269 46.6153 9.37853 46.6153H46.1328C50.5886 46.6153 54.2008 43.0032 54.2008 38.5473L55.9937 38.5473ZM9.37853 48.4082C3.9325 48.4082 -0.482384 43.9933 -0.482384 38.5473V9.86092C-0.482384 4.41488 3.9325 0 9.37853 0C4.92269 0 1.31051 4.01353 1.31051 8.96447V38.5473C1.31051 43.0032 4.92269 46.6153 9.37853 46.6153V48.4082ZM46.1327 0C51.5788 0 55.9937 4.41488 55.9937 9.86092V38.5473C55.9937 43.9933 51.5788 48.4082 46.1327 48.4082L46.1328 46.6153C50.5886 46.6153 54.2008 43.0032 54.2008 38.5473V8.96447C54.2008 4.01353 50.5886 0 46.1328 0H46.1327Z" fill="#0D1118" mask="url(#path-1-inside-1_3448_1748)"/>
<path d="M0.414062 0H55.0972H0.414062ZM55.9937 38.5473C55.9937 43.9933 51.5788 48.4082 46.1327 48.4082H9.37853C3.9325 48.4082 -0.482384 43.9933 -0.482384 38.5473L1.31051 38.5473C1.31051 43.0032 4.92269 46.6153 9.37853 46.6153H46.1328C50.5886 46.6153 54.2008 43.0032 54.2008 38.5473L55.9937 38.5473ZM9.37853 48.4082C3.9325 48.4082 -0.482384 43.9933 -0.482384 38.5473V9.86092C-0.482384 4.41488 3.9325 0 9.37853 0C4.92269 0 1.31051 4.01353 1.31051 8.96447V38.5473C1.31051 43.0032 4.92269 46.6153 9.37853 46.6153V48.4082ZM46.1327 0C51.5788 0 55.9937 4.41488 55.9937 9.86092V38.5473C55.9937 43.9933 51.5788 48.4082 46.1327 48.4082L46.1328 46.6153C50.5886 46.6153 54.2008 43.0032 54.2008 38.5473V8.96447C54.2008 4.01353 50.5886 0 46.1328 0H46.1327Z" fill="black" fill-opacity="0.2" mask="url(#path-1-inside-1_3448_1748)"/>
<path d="M0.414062 0H55.0972H0.414062ZM55.9937 38.5473C55.9937 43.9933 51.5788 48.4082 46.1327 48.4082H9.37853C3.9325 48.4082 -0.482384 43.9933 -0.482384 38.5473L1.31051 38.5473C1.31051 43.0032 4.92269 46.6153 9.37853 46.6153H46.1328C50.5886 46.6153 54.2008 43.0032 54.2008 38.5473L55.9937 38.5473ZM9.37853 48.4082C3.9325 48.4082 -0.482384 43.9933 -0.482384 38.5473V9.86092C-0.482384 4.41488 3.9325 0 9.37853 0C4.92269 0 1.31051 4.01353 1.31051 8.96447V38.5473C1.31051 43.0032 4.92269 46.6153 9.37853 46.6153V48.4082ZM46.1327 0C51.5788 0 55.9937 4.41488 55.9937 9.86092V38.5473C55.9937 43.9933 51.5788 48.4082 46.1327 48.4082L46.1328 46.6153C50.5886 46.6153 54.2008 43.0032 54.2008 38.5473V8.96447C54.2008 4.01353 50.5886 0 46.1328 0H46.1327Z" fill="black" fill-opacity="0.2" mask="url(#path-1-inside-1_3448_1748)"/>
<path d="M0.414062 0H55.0972H0.414062ZM55.9937 38.5473C55.9937 43.9933 51.5788 48.4082 46.1327 48.4082H9.37853C3.9325 48.4082 -0.482384 43.9933 -0.482384 38.5473L1.31051 38.5473C1.31051 43.0032 4.92269 46.6153 9.37853 46.6153H46.1328C50.5886 46.6153 54.2008 43.0032 54.2008 38.5473L55.9937 38.5473ZM9.37853 48.4082C3.9325 48.4082 -0.482384 43.9933 -0.482384 38.5473V9.86092C-0.482384 4.41488 3.9325 0 9.37853 0C4.92269 0 1.31051 4.01353 1.31051 8.96447V38.5473C1.31051 43.0032 4.92269 46.6153 9.37853 46.6153V48.4082ZM46.1327 0C51.5788 0 55.9937 4.41488 55.9937 9.86092V38.5473C55.9937 43.9933 51.5788 48.4082 46.1327 48.4082L46.1328 46.6153C50.5886 46.6153 54.2008 43.0032 54.2008 38.5473V8.96447C54.2008 4.01353 50.5886 0 46.1328 0H46.1327Z" fill="black" fill-opacity="0.2" mask="url(#path-1-inside-1_3448_1748)"/>
<path d="M0.414062 0H55.0972H0.414062ZM55.9937 38.5473C55.9937 43.9933 51.5788 48.4082 46.1327 48.4082H9.37853C3.9325 48.4082 -0.482384 43.9933 -0.482384 38.5473L1.31051 38.5473C1.31051 43.0032 4.92269 46.6153 9.37853 46.6153H46.1328C50.5886 46.6153 54.2008 43.0032 54.2008 38.5473L55.9937 38.5473ZM9.37853 48.4082C3.9325 48.4082 -0.482384 43.9933 -0.482384 38.5473V9.86092C-0.482384 4.41488 3.9325 0 9.37853 0C4.92269 0 1.31051 4.01353 1.31051 8.96447V38.5473C1.31051 43.0032 4.92269 46.6153 9.37853 46.6153V48.4082ZM46.1327 0C51.5788 0 55.9937 4.41488 55.9937 9.86092V38.5473C55.9937 43.9933 51.5788 48.4082 46.1327 48.4082L46.1328 46.6153C50.5886 46.6153 54.2008 43.0032 54.2008 38.5473V8.96447C54.2008 4.01353 50.5886 0 46.1328 0H46.1327Z" fill="black" fill-opacity="0.2" mask="url(#path-1-inside-1_3448_1748)"/>
<path d="M0.414062 0H55.0972H0.414062ZM55.9937 38.5473C55.9937 43.9933 51.5788 48.4082 46.1327 48.4082H9.37853C3.9325 48.4082 -0.482384 43.9933 -0.482384 38.5473L1.31051 38.5473C1.31051 43.0032 4.92269 46.6153 9.37853 46.6153H46.1328C50.5886 46.6153 54.2008 43.0032 54.2008 38.5473L55.9937 38.5473ZM9.37853 48.4082C3.9325 48.4082 -0.482384 43.9933 -0.482384 38.5473V9.86092C-0.482384 4.41488 3.9325 0 9.37853 0C4.92269 0 1.31051 4.01353 1.31051 8.96447V38.5473C1.31051 43.0032 4.92269 46.6153 9.37853 46.6153V48.4082ZM46.1327 0C51.5788 0 55.9937 4.41488 55.9937 9.86092V38.5473C55.9937 43.9933 51.5788 48.4082 46.1327 48.4082L46.1328 46.6153C50.5886 46.6153 54.2008 43.0032 54.2008 38.5473V8.96447C54.2008 4.01353 50.5886 0 46.1328 0H46.1327Z" fill="black" fill-opacity="0.2" mask="url(#path-1-inside-1_3448_1748)"/>
<path d="M0.414062 0H55.0972H0.414062ZM55.9937 38.5473C55.9937 43.9933 51.5788 48.4082 46.1327 48.4082H9.37853C3.9325 48.4082 -0.482384 43.9933 -0.482384 38.5473L1.31051 38.5473C1.31051 43.0032 4.92269 46.6153 9.37853 46.6153H46.1328C50.5886 46.6153 54.2008 43.0032 54.2008 38.5473L55.9937 38.5473ZM9.37853 48.4082C3.9325 48.4082 -0.482384 43.9933 -0.482384 38.5473V9.86092C-0.482384 4.41488 3.9325 0 9.37853 0C4.92269 0 1.31051 4.01353 1.31051 8.96447V38.5473C1.31051 43.0032 4.92269 46.6153 9.37853 46.6153V48.4082ZM46.1327 0C51.5788 0 55.9937 4.41488 55.9937 9.86092V38.5473C55.9937 43.9933 51.5788 48.4082 46.1327 48.4082L46.1328 46.6153C50.5886 46.6153 54.2008 43.0032 54.2008 38.5473V8.96447C54.2008 4.01353 50.5886 0 46.1328 0H46.1327Z" fill="black" fill-opacity="0.2" mask="url(#path-1-inside-1_3448_1748)"/>
<path d="M24.7039 28.5H23.5039V26.5H25.5039L25.7039 27.25C25.8539 27.9 25.3539 28.5 24.7039 28.5ZM34.5039 30C34.5039 30 28.6039 26.5 25.5039 26.5V19.5C28.4039 19.5 34.5039 16 34.5039 16V30Z" fill="#90CAF9"/>
<path d="M20.5039 25.5C21.8846 25.5 23.0039 24.3807 23.0039 23C23.0039 21.6193 21.8846 20.5 20.5039 20.5C19.1232 20.5 18.0039 21.6193 18.0039 23C18.0039 24.3807 19.1232 25.5 20.5039 25.5Z" fill="#283593"/>
<path d="M36.0016 21.5H34.5016V24.5H36.0016C36.8516 24.5 37.5016 23.85 37.5016 23C37.5016 22.15 36.8516 21.5 36.0016 21.5ZM25.3016 32.6C24.8516 32.9 24.0516 33.2 23.0016 33.3C22.7016 33.35 22.4016 33.15 22.3016 32.8L20.1016 25.95C20.1016 25.95 24.5016 22.85 24.5016 26.5C24.5016 29.25 25.2516 30.7 25.6016 31.25C25.8516 31.6 25.8516 32.05 25.6016 32.4C25.5016 32.5 25.4016 32.55 25.3016 32.6Z" fill="#283593"/>
<path d="M20.5039 26.5H25.5039V19.5H20.5039C19.9539 19.5 19.5039 19.95 19.5039 20.5V25.5C19.5039 26.05 19.9539 26.5 20.5039 26.5Z" fill="#3F51B5"/>
<path d="M35.0039 31C34.4539 31 34.0039 30.55 34.0039 30V16C34.0039 15.45 34.4539 15 35.0039 15C35.5539 15 36.0039 15.45 36.0039 16V30C36.0039 30.55 35.5539 31 35.0039 31Z" fill="#42A5F5"/>
</svg>
