<svg width="31" height="30" viewBox="0 0 31 30" fill="none" xmlns="http://www.w3.org/2000/svg">
<rect x="15.6172" y="0.0952148" width="20.6943" height="20.6943" rx="10.3472" transform="rotate(45 15.6172 0.0952148)" fill="#134574"/>
<path d="M18.8686 12.1818C18.8685 11.9949 18.7941 11.8156 18.6619 11.6834C18.5298 11.5512 18.3505 11.4769 18.1635 11.4768L14.4005 11.4758C14.2133 11.4758 14.0338 11.5502 13.9015 11.6825C13.7691 11.8148 13.6948 11.9943 13.6948 12.1815C13.6948 12.3687 13.7691 12.5482 13.9015 12.6805C14.0338 12.8129 14.2133 12.8872 14.4005 12.8872L16.4601 12.8876L12.6239 16.7238C12.4916 16.8561 12.4173 17.0355 12.4173 17.2226C12.4173 17.4097 12.4916 17.5892 12.6239 17.7215C12.7562 17.8538 12.9357 17.9281 13.1228 17.9281C13.3099 17.9281 13.4893 17.8538 13.6216 17.7215L17.4578 13.8853L17.4578 15.9445C17.4578 16.0372 17.4761 16.129 17.5115 16.2146C17.547 16.3002 17.599 16.378 17.6645 16.4436C17.73 16.5091 17.8078 16.5611 17.8935 16.5965C17.9791 16.632 18.0709 16.6503 18.1635 16.6503C18.2562 16.6503 18.348 16.632 18.4336 16.5965C18.5192 16.5611 18.597 16.5091 18.6625 16.4436C18.7281 16.378 18.7801 16.3002 18.8155 16.2146C18.851 16.129 18.8692 16.0372 18.8692 15.9445L18.8686 12.1818Z" fill="white"/>
</svg>
