<svg width="63" height="63" viewBox="0 0 63 63" fill="none" xmlns="http://www.w3.org/2000/svg">
<circle cx="31.5" cy="31.5" r="31.5" fill="#FFF2E7"/>
<path d="M29.6008 18.8007C27.8032 18.8007 26.14 19.3647 24.772 20.3247C24.6832 18.9495 24.3688 17.7567 23.7904 16.7007C25.6173 15.6897 27.6764 15.1728 29.7643 15.2013C31.8521 15.2297 33.8964 15.8025 35.6951 16.8629C37.4938 17.9233 38.9847 19.4347 40.0204 21.2477C41.0561 23.0608 41.6009 25.1127 41.6008 27.2007H47.0032C48.1167 27.2007 49.1846 27.6429 49.9722 28.43C50.7598 29.2171 51.2025 30.2848 51.2032 31.3983V44.5983C51.2035 45.1502 51.095 45.6968 50.8839 46.2068C50.6729 46.7168 50.3633 47.1802 49.973 47.5705C49.5827 47.9608 49.1193 48.2704 48.6093 48.4814C48.0993 48.6925 47.5527 48.801 47.0008 48.8007H33.8008C32.6869 48.8007 31.6186 48.3582 30.8309 47.5705C30.0433 46.7829 29.6008 45.7146 29.6008 44.6007V39.2007C27.9314 39.2016 26.2802 38.8542 24.7528 38.1807C24.7848 37.3663 24.8008 36.5063 24.8008 35.6007V35.4519C24.8008 35.0511 24.8008 34.5903 24.7936 34.0911C26.2038 35.0743 27.8817 35.6013 29.6008 35.6007V31.4007C29.6008 29.0823 31.4824 27.2007 33.8008 27.2007H38.0008C38.0008 24.9729 37.1158 22.8363 35.5405 21.261C33.9652 19.6857 31.8286 18.8007 29.6008 18.8007ZM41.0512 30.8007C40.4699 32.6438 39.4528 34.3196 38.0863 35.6862C36.7197 37.0527 35.0439 38.0698 33.2008 38.6511V44.6007C33.2008 44.9319 33.4696 45.2007 33.8008 45.2007H47.0008C47.1599 45.2007 47.3125 45.1375 47.425 45.0249C47.5376 44.9124 47.6008 44.7598 47.6008 44.6007V31.4007C47.6008 31.2416 47.5376 31.0889 47.425 30.9764C47.3125 30.8639 47.1599 30.8007 47.0008 30.8007H41.0512ZM37.192 30.8007H33.8008C33.6416 30.8007 33.489 30.8639 33.3765 30.9764C33.264 31.0889 33.2008 31.2416 33.2008 31.4007V34.7919C34.9517 33.9617 36.3618 32.5516 37.192 30.8007ZM18.9952 13.1007C19.1944 13.2749 19.3304 13.5101 19.3821 13.7697C19.4337 14.0293 19.3981 14.2987 19.2808 14.5359C19.2595 14.6059 19.2489 14.6787 19.2496 14.7519C19.2496 14.9031 19.288 15.1911 19.6504 15.5511C19.8256 15.7263 19.96 15.8511 20.1064 15.9879C20.2264 16.0983 20.3536 16.2135 20.5144 16.3719C20.8264 16.6695 21.1552 17.0199 21.4504 17.4591C22.0624 18.3783 22.4008 19.5279 22.4008 21.2007C22.4008 23.2479 21.6424 24.9927 20.4592 26.0631L20.6128 26.2407C21.2848 27.0663 21.676 28.1367 21.9208 29.1927C22.4008 31.2807 22.4008 33.7911 22.4008 35.5407V35.6007C22.4008 42.2895 21.4912 46.0839 20.4904 48.2535C19.9864 49.3455 19.4512 50.0415 18.988 50.4783C18.7994 50.6587 18.5918 50.818 18.3688 50.9535C18.2665 51.0149 18.1598 51.0687 18.0496 51.1143C18.0496 51.1143 17.7784 51.2007 17.6008 51.2007C17.4232 51.2007 17.152 51.1143 17.152 51.1143C17.0417 51.0687 16.935 51.0149 16.8328 50.9535C16.6098 50.818 16.4021 50.6587 16.2136 50.4783C15.7504 50.0391 15.2152 49.3455 14.7112 48.2535C13.7104 46.0839 12.8008 42.2895 12.8008 35.6007V35.5407C12.8008 33.7887 12.8008 31.2807 13.2808 29.1927C13.5256 28.1367 13.9168 27.0663 14.5888 26.2407C14.6368 26.1799 14.688 26.1207 14.7424 26.0631C13.5592 24.9927 12.8008 23.2479 12.8008 21.2007C12.8008 20.4183 13.0096 19.4847 13.2976 18.6231C13.5856 17.7615 13.9888 16.8663 14.4544 16.1463C15.0088 15.2103 15.7888 14.4255 16.3936 13.8975C16.7264 13.6073 17.0723 13.3326 17.4304 13.0743L17.536 13.0023C17.7561 12.8556 18.0184 12.7857 18.2823 12.8035C18.5462 12.8213 18.7968 12.9258 18.9952 13.1007Z" fill="#FF7A00"/>
</svg>
