<svg width="63" height="63" viewBox="0 0 63 63" fill="none" xmlns="http://www.w3.org/2000/svg">
<circle cx="31.5" cy="31.5" r="31.5" fill="#FDF4F9"/>
<g clip-path="url(#clip0_4071_1381)">
<path d="M20.5 12C18.5109 12 16.6032 12.7902 15.1967 14.1967C13.7902 15.6032 13 17.5109 13 19.5V40.5C13 42.4891 13.7902 44.3968 15.1967 45.8033C16.6032 47.2098 18.5109 48 20.5 48H29.428C29.758 46.917 30.277 45.9 30.958 45H20.5C19.3065 45 18.1619 44.5259 17.318 43.682C16.4741 42.8381 16 41.6935 16 40.5V24H46V29.832L46.309 29.523C47.107 28.725 48.022 28.113 49 27.696V19.5C49 17.5109 48.2098 15.6032 46.8033 14.1967C45.3968 12.7902 43.4891 12 41.5 12H20.5ZM33.838 41.991L41.491 34.341C41.4548 34.0009 41.3034 33.6833 41.062 33.441L35.062 27.441C34.7807 27.1593 34.3991 27.0009 34.0011 27.0007C33.603 27.0004 33.2212 27.1582 32.9395 27.4395C32.6578 27.7208 32.4994 28.1024 32.4992 28.5004C32.4989 28.8985 32.6567 29.2803 32.938 29.562L37.879 34.5L32.938 39.438C32.7376 39.6381 32.5979 39.8907 32.5351 40.1669C32.4723 40.443 32.489 40.7312 32.5831 40.9982C32.6773 41.2653 32.8451 41.5002 33.0671 41.6759C33.2892 41.8516 33.5565 41.9608 33.838 41.991ZM46 21H16V19.5C16 18.3065 16.4741 17.1619 17.318 16.318C18.1619 15.4741 19.3065 15 20.5 15H41.5C42.6935 15 43.8381 15.4741 44.682 16.318C45.5259 17.1619 46 18.3065 46 19.5V21ZM29.062 27.438C29.2017 27.5773 29.3125 27.7429 29.3881 27.9251C29.4638 28.1073 29.5027 28.3027 29.5027 28.5C29.5027 28.6973 29.4638 28.8927 29.3881 29.0749C29.3125 29.2571 29.2017 29.4227 29.062 29.562L24.121 34.5L29.062 39.438C29.3437 39.7197 29.5019 40.1017 29.5019 40.5C29.5019 40.8983 29.3437 41.2803 29.062 41.562C28.7803 41.8437 28.3983 42.0019 28 42.0019C27.6017 42.0019 27.2197 41.8437 26.938 41.562L20.938 35.562C20.7983 35.4227 20.6875 35.2571 20.6119 35.0749C20.5362 34.8927 20.4973 34.6973 20.4973 34.5C20.4973 34.3027 20.5362 34.1073 20.6119 33.9251C20.6875 33.7429 20.7983 33.5773 20.938 33.438L26.938 27.438C27.0773 27.2983 27.2429 27.1875 27.4251 27.1119C27.6073 27.0362 27.8027 26.9973 28 26.9973C28.1973 26.9973 28.3927 27.0362 28.5749 27.1119C28.7571 27.1875 28.9227 27.2983 29.062 27.438ZM33.94 46.131L48.43 31.641C49.4826 30.5892 50.91 29.9985 52.3981 29.9991C53.8862 29.9997 55.3132 30.5914 56.365 31.644C57.4169 32.6966 58.0075 34.124 58.0069 35.6121C58.0063 37.1002 57.4146 38.5272 56.362 39.579L41.872 54.066C41.0276 54.9101 39.9701 55.5094 38.812 55.8L34.318 56.922C33.8711 57.0334 33.4031 57.0272 32.9593 56.9043C32.5155 56.7813 32.1111 56.5456 31.7853 56.2201C31.4595 55.8946 31.2234 55.4904 31.1 55.0467C30.9766 54.603 30.9701 54.135 31.081 53.688L32.206 49.194C32.4966 48.0359 33.0959 46.9784 33.94 46.134" fill="#EF2689"/>
</g>
<defs>
<clipPath id="clip0_4071_1381">
<rect width="48" height="48" fill="white" transform="translate(10 9)"/>
</clipPath>
</defs>
</svg>
