<svg width="24" height="24" viewBox="0 0 24 24" fill="none" xmlns="http://www.w3.org/2000/svg">
<path d="M10.2972 19.2077C8.49345 17.3458 8.28908 17.1565 7.78283 15.724C7.2972 14.3477 5.69596 11.7021 5.24596 10.9183C4.86721 10.2583 4.75471 9.72959 5.03596 9.11834C5.21971 8.71709 5.66596 8.21084 6.36346 8.19772C6.81908 8.18834 7.45846 8.27647 8.35471 9.53084C8.45408 9.66959 8.67158 9.61897 8.69783 9.45209C8.70721 9.39021 8.71658 9.31709 8.72221 9.22709C8.76908 8.56896 8.72221 3.49334 8.86283 2.22397C9.00346 0.95459 9.22658 0.750215 9.68033 0.48959C10.0103 0.300215 10.8466 0.31709 11.2703 0.74084C11.7166 1.18709 11.7335 2.69647 11.8235 8.28397C11.8235 9.08272 12.0072 9.26272 12.3953 9.00397C12.671 8.82022 13.3553 8.76396 13.751 8.98897C14.1016 9.18959 14.3303 9.39021 14.6622 9.31147C15.1197 9.20084 15.9335 9.13334 16.3966 9.55896C16.6685 9.80834 16.9947 9.90209 17.4653 9.89271C17.936 9.88334 19.0141 10.1233 19.016 11.5783C19.0178 13.3333 19.2747 15.184 18.8416 16.6783C18.5978 17.5202 18.3766 18.154 18.3766 19.039C18.3766 19.7683 18.4347 20.5127 18.4347 21.3583C18.4347 22.549 18.2641 23.2783 16.901 23.4658C15.5378 23.6533 12.6241 23.7002 11.591 23.4658C10.5578 23.2315 10.6197 22.5227 10.6197 21.919C10.6197 20.674 10.7378 19.6615 10.2972 19.2077Z" fill="#FAC036"/>
<mask id="mask0_517_592" style="mask-type:luminance" maskUnits="userSpaceOnUse" x="4" y="0" width="16" height="24">
<path d="M10.2972 19.2077C8.49345 17.3458 8.28908 17.1565 7.78283 15.724C7.2972 14.3477 5.69596 11.7021 5.24596 10.9183C4.86721 10.2583 4.75471 9.72959 5.03596 9.11834C5.21971 8.71709 5.66596 8.21084 6.36346 8.19772C6.81908 8.18834 7.45846 8.27647 8.35471 9.53084C8.45408 9.66959 8.67158 9.61897 8.69783 9.45209C8.70721 9.39021 8.71658 9.31709 8.72221 9.22709C8.76908 8.56896 8.72221 3.49334 8.86283 2.22397C9.00346 0.95459 9.22658 0.750215 9.68033 0.48959C10.0103 0.300215 10.8466 0.31709 11.2703 0.74084C11.7166 1.18709 11.7335 2.69647 11.8235 8.28397C11.8235 9.08272 12.0072 9.26272 12.3953 9.00397C12.671 8.82022 13.3553 8.76396 13.751 8.98897C14.1016 9.18959 14.3303 9.39021 14.6622 9.31147C15.1197 9.20084 15.9335 9.13334 16.3966 9.55896C16.6685 9.80834 16.9947 9.90209 17.4653 9.89271C17.936 9.88334 19.0141 10.1233 19.016 11.5783C19.0178 13.3333 19.3216 15.0265 18.8885 16.5208C18.6447 17.3627 18.3766 18.154 18.3766 19.039C18.3766 19.7683 18.4347 20.5127 18.4347 21.3583C18.4347 22.549 18.2641 23.2783 16.901 23.4658C15.5378 23.6533 12.6241 23.7002 11.591 23.4658C10.5578 23.2315 10.6197 22.6633 10.6197 22.0577C10.6197 20.8146 10.7378 19.6615 10.2972 19.2077Z" fill="white"/>
</mask>
<g mask="url(#mask0_517_592)">
<path d="M9.58501 12.4254C9.58501 12.4141 9.58501 12.4029 9.58314 12.3916C9.45564 10.871 9.35251 9.6691 8.13751 8.08285C8.07309 7.9986 7.97785 7.94338 7.87272 7.92932C7.7676 7.91525 7.66119 7.9435 7.57689 8.00785C7.40064 8.14285 7.36876 8.39223 7.50189 8.56848C8.57439 9.96911 8.66251 11.0135 8.78439 12.4572C8.80314 12.6766 8.99626 12.8397 9.21564 12.821C9.31584 12.814 9.40966 12.7693 9.47821 12.6959C9.54676 12.6225 9.58492 12.5258 9.58501 12.4254Z" fill="#E48C15"/>
</g>
</svg>
