<svg width="33" height="32" viewBox="0 0 33 32" fill="none" xmlns="http://www.w3.org/2000/svg">
<rect x="0.727539" y="0.200195" width="31.6524" height="31.6529" rx="15.4002" fill="#134574"/>
<path d="M14.5126 16.163C14.5126 14.9614 15.4862 13.9871 16.6874 13.9871C17.8886 13.9871 18.8627 14.9614 18.8627 16.163C18.8627 17.3646 17.8886 18.3389 16.6874 18.3389C15.4862 18.3389 14.5126 17.3646 14.5126 16.163ZM13.3367 16.163C13.3367 18.0141 14.8368 19.5147 16.6874 19.5147C18.538 19.5147 20.0381 18.0141 20.0381 16.163C20.0381 14.3119 18.538 12.8113 16.6874 12.8113C14.8368 12.8113 13.3367 14.3119 13.3367 16.163ZM19.3877 12.6784C19.3876 12.8334 19.4335 12.9848 19.5195 13.1137C19.6054 13.2425 19.7277 13.3429 19.8708 13.4023C20.0138 13.4616 20.1712 13.4772 20.3232 13.447C20.4751 13.4169 20.6146 13.3423 20.7242 13.2328C20.8337 13.1233 20.9083 12.9838 20.9386 12.8319C20.9689 12.6799 20.9535 12.5224 20.8942 12.3793C20.835 12.2362 20.7347 12.1138 20.606 12.0277C20.4773 11.9415 20.3259 11.8955 20.171 11.8955H20.1707C19.9631 11.8956 19.764 11.9781 19.6172 12.1249C19.4704 12.2717 19.3878 12.4708 19.3877 12.6784ZM14.0512 21.4761C13.415 21.4471 13.0692 21.3411 12.8394 21.2515C12.5348 21.1329 12.3174 20.9916 12.0888 20.7633C11.8603 20.535 11.7188 20.3177 11.6008 20.013C11.5112 19.7832 11.4052 19.4372 11.3763 18.8009C11.3446 18.1128 11.3383 17.9062 11.3383 16.1631C11.3383 14.42 11.3452 14.2139 11.3763 13.5253C11.4053 12.8889 11.512 12.5436 11.6008 12.3131C11.7194 12.0084 11.8606 11.7909 12.0888 11.5623C12.3171 11.3337 12.5342 11.1922 12.8394 11.0741C13.0691 10.9845 13.415 10.8785 14.0512 10.8496C14.739 10.8179 14.9456 10.8116 16.6874 10.8116C18.4292 10.8116 18.636 10.8184 19.3244 10.8496C19.9606 10.8785 20.3058 10.9853 20.5362 11.0741C20.8408 11.1922 21.0582 11.334 21.2867 11.5623C21.5153 11.7906 21.6562 12.0084 21.7748 12.3131C21.8644 12.5429 21.9704 12.8889 21.9993 13.5253C22.0309 14.2139 22.0372 14.42 22.0372 16.1631C22.0372 17.9062 22.0309 18.1123 21.9993 18.8009C21.9703 19.4372 21.8638 19.7831 21.7748 20.013C21.6562 20.3177 21.515 20.5352 21.2867 20.7633C21.0585 20.9914 20.8408 21.1329 20.5362 21.2515C20.3065 21.3411 19.9606 21.4471 19.3244 21.4761C18.6366 21.5077 18.43 21.514 16.6874 21.514C14.9448 21.514 14.7388 21.5077 14.0512 21.4761ZM13.9972 9.67527C13.3025 9.70692 12.8278 9.8171 12.4133 9.97845C11.984 10.1451 11.6205 10.3686 11.2574 10.7313C10.8942 11.094 10.6713 11.4582 10.5047 11.8876C10.3434 12.3025 10.2333 12.7771 10.2016 13.4719C10.1695 14.1679 10.1621 14.3904 10.1621 16.163C10.1621 17.9356 10.1695 18.1581 10.2016 18.8541C10.2333 19.549 10.3434 20.0235 10.5047 20.4384C10.6713 20.8676 10.8942 21.2321 11.2574 21.5947C11.6205 21.9572 11.984 22.1805 12.4133 22.3476C12.8286 22.5089 13.3025 22.6191 13.9972 22.6508C14.6933 22.6824 14.9153 22.6903 16.6874 22.6903C18.4595 22.6903 18.6819 22.6829 19.3776 22.6508C20.0723 22.6191 20.5467 22.5089 20.9615 22.3476C21.3906 22.1805 21.7543 21.9574 22.1174 21.5947C22.4806 21.232 22.703 20.8676 22.8701 20.4384C23.0314 20.0235 23.142 19.5489 23.1732 18.8541C23.2048 18.1576 23.2122 17.9356 23.2122 16.163C23.2122 14.3904 23.2048 14.1679 23.1732 13.4719C23.1415 12.777 23.0314 12.3023 22.8701 11.8876C22.703 11.4584 22.48 11.0946 22.1174 10.7313C21.7548 10.368 21.3906 10.1451 20.962 9.97845C20.5467 9.8171 20.0723 9.70639 19.3782 9.67527C18.6824 9.64363 18.46 9.63574 16.6879 9.63574C14.9159 9.63574 14.6933 9.6431 13.9972 9.67527Z" fill="white"/>
</svg>
