<svg width="5" height="6" viewBox="0 0 5 6" fill="none" xmlns="http://www.w3.org/2000/svg">
<path fill-rule="evenodd" clip-rule="evenodd" d="M3.88395 0.838192C3.54717 0.501313 3.09225 0.309119 2.61595 0.30249H2.59791C2.12157 0.309023 1.66657 0.501153 1.32972 0.838009C0.992864 1.17486 0.800733 1.62986 0.794201 2.1062C0.788339 2.4444 0.883484 2.77673 1.06746 3.06081L2.48698 5.93908H2.72733L4.14639 3.06081C4.33082 2.77673 4.42597 2.4444 4.41966 2.1062C4.41303 1.6299 4.22083 1.17497 3.88395 0.838192ZM2.57311 0.753418L2.61009 0.757927L2.64345 0.753418C2.99769 0.768846 3.33255 0.919389 3.57921 1.1741C3.82587 1.42881 3.96559 1.76834 3.96963 2.12288C3.97308 2.37451 3.89961 2.6212 3.75905 2.82994L3.75003 2.84527L3.74236 2.86105L2.60693 5.16304L1.47194 2.86331L1.46428 2.84572L1.45526 2.83039C1.3147 2.62165 1.24123 2.37497 1.24468 2.12333C1.24852 1.76838 1.3884 1.42842 1.63547 1.17355C1.88255 0.918668 2.21799 0.768293 2.57266 0.753418H2.57311ZM2.84908 1.73148C2.79984 1.69855 2.7446 1.67565 2.68651 1.66408C2.62842 1.6525 2.56861 1.65248 2.51052 1.66402C2.45242 1.67555 2.39716 1.69842 2.3479 1.73131C2.29864 1.7642 2.25634 1.80647 2.22341 1.85571C2.19049 1.90495 2.16759 1.96019 2.15601 2.01828C2.14444 2.07637 2.14442 2.13617 2.15595 2.19427C2.16749 2.25237 2.19035 2.30762 2.22324 2.35689C2.25614 2.40615 2.29841 2.44845 2.34765 2.48137C2.44709 2.54786 2.56887 2.57213 2.68621 2.54883C2.80354 2.52554 2.90681 2.45658 2.97331 2.35714C3.0398 2.2577 3.06407 2.13592 3.04077 2.01858C3.01747 1.90125 2.94852 1.79797 2.84908 1.73148ZM2.09738 1.35631C2.19577 1.28715 2.307 1.23836 2.42452 1.21282C2.54204 1.18729 2.66349 1.18551 2.78171 1.20761C2.89993 1.2297 3.01253 1.27522 3.1129 1.34148C3.21326 1.40774 3.29936 1.49341 3.36613 1.59344C3.4329 1.69347 3.47898 1.80584 3.50167 1.92395C3.52437 2.04205 3.52321 2.1635 3.49826 2.28115C3.47332 2.3988 3.4251 2.51028 3.35644 2.60902C3.28777 2.70775 3.20005 2.79176 3.09844 2.85609C2.89954 2.98202 2.65928 3.02518 2.42898 2.97636C2.19868 2.92753 1.9966 2.79059 1.86591 2.59479C1.73521 2.39898 1.68626 2.15983 1.72951 1.92842C1.77276 1.69702 1.90479 1.49169 2.09738 1.35631Z" fill="white"/>
</svg>
