<svg width="7" height="6" viewBox="0 0 7 6" fill="none" xmlns="http://www.w3.org/2000/svg">
<path d="M6.53881 1.53833V4.69482C6.53881 4.81441 6.49131 4.92911 6.40674 5.01368C6.32217 5.09824 6.20748 5.14575 6.08789 5.14575H1.12769C1.00809 5.14575 0.893397 5.09824 0.808831 5.01368C0.724266 4.92911 0.676758 4.81441 0.676758 4.69482V1.53833M6.53881 1.53833C6.53881 1.41874 6.49131 1.30404 6.40674 1.21948C6.32217 1.13491 6.20748 1.0874 6.08789 1.0874H1.12769C1.00809 1.0874 0.893397 1.13491 0.808831 1.21948C0.724266 1.30404 0.676758 1.41874 0.676758 1.53833M6.53881 1.53833L3.86436 3.38984C3.78897 3.442 3.69947 3.46995 3.60779 3.46995C3.5161 3.46995 3.4266 3.442 3.35121 3.38984L0.676758 1.53833" stroke="white" stroke-width="0.450927" stroke-linecap="round" stroke-linejoin="round"/>
</svg>
