<svg width="7" height="7" viewBox="0 0 7 7" fill="none" xmlns="http://www.w3.org/2000/svg">
<path d="M5.86262 6.75317H5.82429C1.39393 6.4984 0.764883 2.76021 0.676952 1.61936C0.669867 1.53066 0.680354 1.44143 0.707813 1.35679C0.735271 1.27215 0.779161 1.19375 0.836968 1.1261C0.894775 1.05845 0.965362 1.00287 1.04469 0.962549C1.12401 0.922225 1.21051 0.89795 1.29923 0.891113H2.54154C2.63185 0.891026 2.7201 0.918059 2.79488 0.968709C2.86965 1.01936 2.92748 1.0913 2.9609 1.1752L3.3036 2.01843C3.3366 2.1004 3.34479 2.19025 3.32715 2.27683C3.30952 2.36341 3.26683 2.44291 3.2044 2.50543L2.72416 2.99018C2.79918 3.41648 3.00333 3.80944 3.30899 4.11591C3.61466 4.42238 4.00708 4.62757 4.43318 4.7037L4.92243 4.21896C4.9859 4.15722 5.06614 4.11553 5.15315 4.09909C5.24015 4.08265 5.33007 4.09219 5.41169 4.12652L6.26169 4.46697C6.34432 4.50144 6.41483 4.55973 6.46422 4.63441C6.5136 4.7091 6.53964 4.79679 6.53901 4.88633V6.07678C6.53901 6.25617 6.46775 6.42821 6.3409 6.55506C6.21405 6.68191 6.04201 6.75317 5.86262 6.75317ZM1.35334 1.34204C1.29355 1.34204 1.2362 1.3658 1.19392 1.40808C1.15163 1.45036 1.12788 1.50771 1.12788 1.5675V1.58554C1.23159 2.92029 1.89671 6.07678 5.84909 6.30224C5.87871 6.30407 5.9084 6.30004 5.93646 6.29037C5.96451 6.2807 5.99039 6.26559 6.01259 6.2459C6.03479 6.22621 6.05289 6.20233 6.06585 6.17563C6.0788 6.14893 6.08636 6.11993 6.08808 6.09031V4.88633L5.23808 4.54588L4.591 5.18845L4.48278 5.17492C2.52125 4.92917 2.2552 2.96763 2.2552 2.94734L2.24167 2.83912L2.88199 2.19204L2.54379 1.34204H1.35334Z" fill="white"/>
</svg>
