<svg width="56" height="48" viewBox="0 0 56 48" fill="none" xmlns="http://www.w3.org/2000/svg">
<mask id="path-1-inside-1_3448_1762" fill="white">
<path d="M0.410156 8.96442C0.410156 4.01351 4.42366 0 9.37458 0H46.1289C51.0798 0 55.0933 4.01351 55.0933 8.96442V38.5472C55.0933 43.4981 51.0798 47.5116 46.1289 47.5116H9.37458C4.42367 47.5116 0.410156 43.4981 0.410156 38.5472V8.96442Z"/>
</mask>
<path d="M0.410156 8.96442C0.410156 4.01351 4.42366 0 9.37458 0H46.1289C51.0798 0 55.0933 4.01351 55.0933 8.96442V38.5472C55.0933 43.4981 51.0798 47.5116 46.1289 47.5116H9.37458C4.42367 47.5116 0.410156 43.4981 0.410156 38.5472V8.96442Z" fill="white"/>
<path d="M0.410156 0H55.0933H0.410156ZM55.9897 38.5472C55.9897 43.9932 51.5749 48.408 46.1289 48.408H9.37458C3.92857 48.408 -0.486286 43.9932 -0.486286 38.5472H1.3066C1.3066 43.003 4.91876 46.6152 9.37458 46.6152H46.1289C50.5847 46.6152 54.1969 43.003 54.1969 38.5472H55.9897ZM9.37458 48.408C3.92857 48.408 -0.486286 43.9932 -0.486286 38.5472V9.86086C-0.486286 4.41486 3.92857 0 9.37458 0C4.91876 0 1.3066 4.01351 1.3066 8.96442V38.5472C1.3066 43.003 4.91876 46.6152 9.37458 46.6152V48.408ZM46.1289 0C51.5749 0 55.9897 4.41486 55.9897 9.86086V38.5472C55.9897 43.9932 51.5749 48.408 46.1289 48.408V46.6152C50.5847 46.6152 54.1969 43.003 54.1969 38.5472V8.96442C54.1969 4.01351 50.5847 0 46.1289 0Z" fill="#0D1118" mask="url(#path-1-inside-1_3448_1762)"/>
<path d="M0.410156 0H55.0933H0.410156ZM55.9897 38.5472C55.9897 43.9932 51.5749 48.408 46.1289 48.408H9.37458C3.92857 48.408 -0.486286 43.9932 -0.486286 38.5472H1.3066C1.3066 43.003 4.91876 46.6152 9.37458 46.6152H46.1289C50.5847 46.6152 54.1969 43.003 54.1969 38.5472H55.9897ZM9.37458 48.408C3.92857 48.408 -0.486286 43.9932 -0.486286 38.5472V9.86086C-0.486286 4.41486 3.92857 0 9.37458 0C4.91876 0 1.3066 4.01351 1.3066 8.96442V38.5472C1.3066 43.003 4.91876 46.6152 9.37458 46.6152V48.408ZM46.1289 0C51.5749 0 55.9897 4.41486 55.9897 9.86086V38.5472C55.9897 43.9932 51.5749 48.408 46.1289 48.408V46.6152C50.5847 46.6152 54.1969 43.003 54.1969 38.5472V8.96442C54.1969 4.01351 50.5847 0 46.1289 0Z" fill="black" fill-opacity="0.2" mask="url(#path-1-inside-1_3448_1762)"/>
<path d="M0.410156 0H55.0933H0.410156ZM55.9897 38.5472C55.9897 43.9932 51.5749 48.408 46.1289 48.408H9.37458C3.92857 48.408 -0.486286 43.9932 -0.486286 38.5472H1.3066C1.3066 43.003 4.91876 46.6152 9.37458 46.6152H46.1289C50.5847 46.6152 54.1969 43.003 54.1969 38.5472H55.9897ZM9.37458 48.408C3.92857 48.408 -0.486286 43.9932 -0.486286 38.5472V9.86086C-0.486286 4.41486 3.92857 0 9.37458 0C4.91876 0 1.3066 4.01351 1.3066 8.96442V38.5472C1.3066 43.003 4.91876 46.6152 9.37458 46.6152V48.408ZM46.1289 0C51.5749 0 55.9897 4.41486 55.9897 9.86086V38.5472C55.9897 43.9932 51.5749 48.408 46.1289 48.408V46.6152C50.5847 46.6152 54.1969 43.003 54.1969 38.5472V8.96442C54.1969 4.01351 50.5847 0 46.1289 0Z" fill="black" fill-opacity="0.2" mask="url(#path-1-inside-1_3448_1762)"/>
<path d="M0.410156 0H55.0933H0.410156ZM55.9897 38.5472C55.9897 43.9932 51.5749 48.408 46.1289 48.408H9.37458C3.92857 48.408 -0.486286 43.9932 -0.486286 38.5472H1.3066C1.3066 43.003 4.91876 46.6152 9.37458 46.6152H46.1289C50.5847 46.6152 54.1969 43.003 54.1969 38.5472H55.9897ZM9.37458 48.408C3.92857 48.408 -0.486286 43.9932 -0.486286 38.5472V9.86086C-0.486286 4.41486 3.92857 0 9.37458 0C4.91876 0 1.3066 4.01351 1.3066 8.96442V38.5472C1.3066 43.003 4.91876 46.6152 9.37458 46.6152V48.408ZM46.1289 0C51.5749 0 55.9897 4.41486 55.9897 9.86086V38.5472C55.9897 43.9932 51.5749 48.408 46.1289 48.408V46.6152C50.5847 46.6152 54.1969 43.003 54.1969 38.5472V8.96442C54.1969 4.01351 50.5847 0 46.1289 0Z" fill="black" fill-opacity="0.2" mask="url(#path-1-inside-1_3448_1762)"/>
<path d="M0.410156 0H55.0933H0.410156ZM55.9897 38.5472C55.9897 43.9932 51.5749 48.408 46.1289 48.408H9.37458C3.92857 48.408 -0.486286 43.9932 -0.486286 38.5472H1.3066C1.3066 43.003 4.91876 46.6152 9.37458 46.6152H46.1289C50.5847 46.6152 54.1969 43.003 54.1969 38.5472H55.9897ZM9.37458 48.408C3.92857 48.408 -0.486286 43.9932 -0.486286 38.5472V9.86086C-0.486286 4.41486 3.92857 0 9.37458 0C4.91876 0 1.3066 4.01351 1.3066 8.96442V38.5472C1.3066 43.003 4.91876 46.6152 9.37458 46.6152V48.408ZM46.1289 0C51.5749 0 55.9897 4.41486 55.9897 9.86086V38.5472C55.9897 43.9932 51.5749 48.408 46.1289 48.408V46.6152C50.5847 46.6152 54.1969 43.003 54.1969 38.5472V8.96442C54.1969 4.01351 50.5847 0 46.1289 0Z" fill="black" fill-opacity="0.2" mask="url(#path-1-inside-1_3448_1762)"/>
<path d="M0.410156 0H55.0933H0.410156ZM55.9897 38.5472C55.9897 43.9932 51.5749 48.408 46.1289 48.408H9.37458C3.92857 48.408 -0.486286 43.9932 -0.486286 38.5472H1.3066C1.3066 43.003 4.91876 46.6152 9.37458 46.6152H46.1289C50.5847 46.6152 54.1969 43.003 54.1969 38.5472H55.9897ZM9.37458 48.408C3.92857 48.408 -0.486286 43.9932 -0.486286 38.5472V9.86086C-0.486286 4.41486 3.92857 0 9.37458 0C4.91876 0 1.3066 4.01351 1.3066 8.96442V38.5472C1.3066 43.003 4.91876 46.6152 9.37458 46.6152V48.408ZM46.1289 0C51.5749 0 55.9897 4.41486 55.9897 9.86086V38.5472C55.9897 43.9932 51.5749 48.408 46.1289 48.408V46.6152C50.5847 46.6152 54.1969 43.003 54.1969 38.5472V8.96442C54.1969 4.01351 50.5847 0 46.1289 0Z" fill="black" fill-opacity="0.2" mask="url(#path-1-inside-1_3448_1762)"/>
<path d="M0.410156 0H55.0933H0.410156ZM55.9897 38.5472C55.9897 43.9932 51.5749 48.408 46.1289 48.408H9.37458C3.92857 48.408 -0.486286 43.9932 -0.486286 38.5472H1.3066C1.3066 43.003 4.91876 46.6152 9.37458 46.6152H46.1289C50.5847 46.6152 54.1969 43.003 54.1969 38.5472H55.9897ZM9.37458 48.408C3.92857 48.408 -0.486286 43.9932 -0.486286 38.5472V9.86086C-0.486286 4.41486 3.92857 0 9.37458 0C4.91876 0 1.3066 4.01351 1.3066 8.96442V38.5472C1.3066 43.003 4.91876 46.6152 9.37458 46.6152V48.408ZM46.1289 0C51.5749 0 55.9897 4.41486 55.9897 9.86086V38.5472C55.9897 43.9932 51.5749 48.408 46.1289 48.408V46.6152C50.5847 46.6152 54.1969 43.003 54.1969 38.5472V8.96442C54.1969 4.01351 50.5847 0 46.1289 0Z" fill="black" fill-opacity="0.2" mask="url(#path-1-inside-1_3448_1762)"/>
<path d="M40 19.8516V30.375C40 30.7734 39.9141 31.1328 39.7422 31.4531C39.5703 31.7734 39.3398 32.0469 39.0508 32.2734C38.7617 32.5 38.4414 32.6797 38.0898 32.8125C37.7383 32.9453 37.375 33.0078 37 33C36.6328 33 36.2695 32.9375 35.9102 32.8125C35.5508 32.6875 35.2305 32.5117 34.9492 32.2852C34.668 32.0586 34.4414 31.7812 34.2695 31.4531C34.0977 31.125 34.0078 30.7656 34 30.375C34 29.9766 34.0859 29.6172 34.2578 29.2969C34.4297 28.9766 34.6602 28.6992 34.9492 28.4648C35.2383 28.2305 35.5586 28.0547 35.9102 27.9375C36.2617 27.8203 36.625 27.7578 37 27.75C37.5156 27.75 38.0156 27.8711 38.5 28.1133V21.7734L31 23.6484V31.875C31 32.2734 30.9141 32.6328 30.7422 32.9531C30.5703 33.2734 30.3398 33.5469 30.0508 33.7734C29.7617 34 29.4414 34.1797 29.0898 34.3125C28.7383 34.4453 28.375 34.5078 28 34.5C27.6328 34.5 27.2695 34.4375 26.9102 34.3125C26.5508 34.1875 26.2305 34.0117 25.9492 33.7852C25.668 33.5586 25.4414 33.2812 25.2695 32.9531C25.0977 32.625 25.0078 32.2656 25 31.875C25 31.4766 25.0859 31.1172 25.2578 30.7969C25.4297 30.4766 25.6602 30.1992 25.9492 29.9648C26.2383 29.7305 26.5586 29.5547 26.9102 29.4375C27.2617 29.3203 27.625 29.2578 28 29.25C28.5156 29.25 29.0156 29.3711 29.5 29.6133V22.4766L40 19.8516ZM28 33C28.1562 33 28.3203 32.9766 28.4922 32.9297C28.6641 32.8828 28.8281 32.8125 28.9844 32.7188C29.1406 32.625 29.2617 32.5078 29.3477 32.3672C29.4336 32.2266 29.4844 32.0625 29.5 31.875C29.5 31.6875 29.4531 31.5234 29.3594 31.3828C29.2656 31.2422 29.1406 31.125 28.9844 31.0312C28.8281 30.9375 28.668 30.8672 28.5039 30.8203C28.3398 30.7734 28.1719 30.75 28 30.75C27.8438 30.75 27.6797 30.7734 27.5078 30.8203C27.3359 30.8672 27.1719 30.9375 27.0156 31.0312C26.8594 31.125 26.7383 31.2422 26.6523 31.3828C26.5664 31.5234 26.5156 31.6875 26.5 31.875C26.5 32.0625 26.5469 32.2266 26.6406 32.3672C26.7344 32.5078 26.8594 32.625 27.0156 32.7188C27.1719 32.8125 27.332 32.8828 27.4961 32.9297C27.6602 32.9766 27.8281 33 28 33ZM37 31.5C37.1562 31.5 37.3203 31.4766 37.4922 31.4297C37.6641 31.3828 37.8281 31.3125 37.9844 31.2188C38.1406 31.125 38.2617 31.0078 38.3477 30.8672C38.4336 30.7266 38.4844 30.5625 38.5 30.375C38.5 30.1875 38.4531 30.0234 38.3594 29.8828C38.2656 29.7422 38.1406 29.625 37.9844 29.5312C37.8281 29.4375 37.668 29.3672 37.5039 29.3203C37.3398 29.2734 37.1719 29.25 37 29.25C36.8438 29.25 36.6797 29.2734 36.5078 29.3203C36.3359 29.3672 36.1719 29.4375 36.0156 29.5312C35.8594 29.625 35.7383 29.7422 35.6523 29.8828C35.5664 30.0234 35.5156 30.1875 35.5 30.375C35.5 30.5625 35.5469 30.7266 35.6406 30.8672C35.7344 31.0078 35.8594 31.125 36.0156 31.2188C36.1719 31.3125 36.332 31.3828 36.4961 31.4297C36.6602 31.4766 36.8281 31.5 37 31.5ZM20.5 19.5H19V18H20.5V19.5ZM19 21H20.5V22.5H19V21ZM29.5 18H31V19.5H29.5V18ZM28 27H16V13.5H34V19.5L32.5 19.875V15H31V16.5H29.5V15H20.5V16.5H19V15H17.5V25.5H19V24H20.5V25.5H28V27Z" fill="#134574"/>
</svg>
