<svg width="44" height="21" viewBox="0 0 44 21" fill="none" xmlns="http://www.w3.org/2000/svg">
<path d="M5.2244 6.90189C4.80589 6.90189 4.38789 6.95188 4.17942 7.05185C4.64448 5.26909 6.40751 3.26955 8.06603 2.40589C8.06965 2.4044 8.07224 2.40193 8.07534 2.40044C8.08776 2.39401 8.10017 2.3851 8.11207 2.37866L8.11052 2.37767C8.29417 2.28364 8.4235 2.10447 8.4235 1.89115C8.42225 1.80086 8.39775 1.71226 8.35219 1.63318C8.30662 1.55411 8.24138 1.487 8.16225 1.43779L8.17518 1.42591L6.00451 0.114331L5.99779 0.119775C5.8996 0.0444116 5.77808 0.0022925 5.65222 0C5.55703 0 5.47116 0.0267265 5.39149 0.0653316L5.38063 0.0559282C2.14222 2.25444 0 5.60218 0 9.35083C0 12.5986 2.19395 14.4472 4.64811 14.4472C6.8943 14.4472 8.77527 12.6486 8.77527 10.4991C8.77579 8.35106 7.20935 6.90189 5.2244 6.90189ZM15.8537 6.90189C15.4352 6.90189 15.0172 6.95188 14.8088 7.05185C15.2738 5.26909 17.0368 3.26955 18.6954 2.40589C18.699 2.4044 18.7016 2.40193 18.7047 2.40044C18.7171 2.39401 18.7295 2.3851 18.7414 2.37866L18.7399 2.37767C18.9235 2.28364 19.0528 2.10447 19.0528 1.89115C19.0516 1.80086 19.0271 1.71226 18.9815 1.63318C18.936 1.55411 18.8707 1.487 18.7916 1.43779L18.8045 1.42591L16.6339 0.114331L16.6271 0.119775C16.5289 0.0444116 16.4074 0.0022925 16.2816 0C16.1864 0 16.1005 0.0267265 16.0208 0.0653316L16.01 0.0559282C12.7716 2.25444 10.6293 5.60218 10.6293 9.35083C10.6293 12.5986 12.8233 14.4472 15.2774 14.4472C17.5236 14.4472 19.4046 12.6486 19.4046 10.4991C19.4051 8.35106 17.8387 6.90189 15.8537 6.90189ZM28.722 5.57942C26.4758 5.57942 24.5949 7.37802 24.5949 9.52752C24.5949 11.676 26.1613 13.1252 28.1463 13.1252C28.5648 13.1252 28.9828 13.0752 29.1912 12.9753C28.7262 14.758 26.9632 16.7576 25.3046 17.6212C25.301 17.6227 25.2984 17.6252 25.2953 17.6267C25.2829 17.6331 25.2705 17.642 25.2586 17.6484L25.2601 17.6494C25.0765 17.7435 24.9472 17.9226 24.9472 18.136C24.9472 18.328 25.0548 18.4888 25.2084 18.5893L25.1955 18.6012L27.3661 19.9128L27.3729 19.9073C27.4706 19.9781 27.5865 20.0271 27.7184 20.0271C27.8136 20.0271 27.8995 20.0004 27.9792 19.9618L27.99 19.9712C31.2284 17.7722 33.3707 14.4249 33.3707 10.6763C33.3701 7.428 31.1762 5.57942 28.722 5.57942ZM39.3514 5.57942C37.1052 5.57942 35.2242 7.37802 35.2242 9.52752C35.2242 11.676 36.7906 13.1252 38.7756 13.1252C39.1941 13.1252 39.6121 13.0752 39.8206 12.9753C39.3555 14.758 37.5925 16.7576 35.934 17.6212C35.9303 17.6227 35.9278 17.6252 35.9247 17.6267C35.9122 17.6331 35.8998 17.642 35.8879 17.6484L35.8895 17.6494C35.7058 17.7435 35.5765 17.9226 35.5765 18.136C35.5765 18.328 35.6841 18.4888 35.8377 18.5893L35.8248 18.6012L37.9955 19.9128L38.0022 19.9073C38.1 19.9781 38.2159 20.0271 38.3478 20.0271C38.443 20.0271 38.5288 20.0004 38.6085 19.9618L38.6194 19.9712C41.8578 17.7722 44 14.4249 44 10.6763C43.9995 7.428 41.8055 5.57942 39.3514 5.57942Z" fill="#D1D9E2"/>
</svg>
