<svg width="56" height="48" viewBox="0 0 56 48" fill="none" xmlns="http://www.w3.org/2000/svg">
<mask id="path-1-inside-1_3448_1717" fill="white">
<path d="M0.410156 8.96442C0.410156 4.01351 4.42366 0 9.37458 0H46.1289C51.0798 0 55.0933 4.01351 55.0933 8.96442V38.5472C55.0933 43.4981 51.0798 47.5116 46.1289 47.5116H9.37458C4.42367 47.5116 0.410156 43.4981 0.410156 38.5472V8.96442Z"/>
</mask>
<path d="M0.410156 8.96442C0.410156 4.01351 4.42366 0 9.37458 0H46.1289C51.0798 0 55.0933 4.01351 55.0933 8.96442V38.5472C55.0933 43.4981 51.0798 47.5116 46.1289 47.5116H9.37458C4.42367 47.5116 0.410156 43.4981 0.410156 38.5472V8.96442Z" fill="white"/>
<path d="M0.410156 0H55.0933H0.410156ZM55.9897 38.5472C55.9897 43.9932 51.5749 48.408 46.1289 48.408H9.37458C3.92857 48.408 -0.486286 43.9932 -0.486286 38.5472H1.3066C1.3066 43.003 4.91876 46.6152 9.37458 46.6152H46.1289C50.5847 46.6152 54.1969 43.003 54.1969 38.5472H55.9897ZM9.37458 48.408C3.92857 48.408 -0.486286 43.9932 -0.486286 38.5472V9.86086C-0.486286 4.41486 3.92857 0 9.37458 0C4.91876 0 1.3066 4.01351 1.3066 8.96442V38.5472C1.3066 43.003 4.91876 46.6152 9.37458 46.6152V48.408ZM46.1289 0C51.5749 0 55.9897 4.41486 55.9897 9.86086V38.5472C55.9897 43.9932 51.5749 48.408 46.1289 48.408V46.6152C50.5847 46.6152 54.1969 43.003 54.1969 38.5472V8.96442C54.1969 4.01351 50.5847 0 46.1289 0Z" fill="#0D1118" mask="url(#path-1-inside-1_3448_1717)"/>
<path d="M0.410156 0H55.0933H0.410156ZM55.9897 38.5472C55.9897 43.9932 51.5749 48.408 46.1289 48.408H9.37458C3.92857 48.408 -0.486286 43.9932 -0.486286 38.5472H1.3066C1.3066 43.003 4.91876 46.6152 9.37458 46.6152H46.1289C50.5847 46.6152 54.1969 43.003 54.1969 38.5472H55.9897ZM9.37458 48.408C3.92857 48.408 -0.486286 43.9932 -0.486286 38.5472V9.86086C-0.486286 4.41486 3.92857 0 9.37458 0C4.91876 0 1.3066 4.01351 1.3066 8.96442V38.5472C1.3066 43.003 4.91876 46.6152 9.37458 46.6152V48.408ZM46.1289 0C51.5749 0 55.9897 4.41486 55.9897 9.86086V38.5472C55.9897 43.9932 51.5749 48.408 46.1289 48.408V46.6152C50.5847 46.6152 54.1969 43.003 54.1969 38.5472V8.96442C54.1969 4.01351 50.5847 0 46.1289 0Z" fill="black" fill-opacity="0.2" mask="url(#path-1-inside-1_3448_1717)"/>
<path d="M0.410156 0H55.0933H0.410156ZM55.9897 38.5472C55.9897 43.9932 51.5749 48.408 46.1289 48.408H9.37458C3.92857 48.408 -0.486286 43.9932 -0.486286 38.5472H1.3066C1.3066 43.003 4.91876 46.6152 9.37458 46.6152H46.1289C50.5847 46.6152 54.1969 43.003 54.1969 38.5472H55.9897ZM9.37458 48.408C3.92857 48.408 -0.486286 43.9932 -0.486286 38.5472V9.86086C-0.486286 4.41486 3.92857 0 9.37458 0C4.91876 0 1.3066 4.01351 1.3066 8.96442V38.5472C1.3066 43.003 4.91876 46.6152 9.37458 46.6152V48.408ZM46.1289 0C51.5749 0 55.9897 4.41486 55.9897 9.86086V38.5472C55.9897 43.9932 51.5749 48.408 46.1289 48.408V46.6152C50.5847 46.6152 54.1969 43.003 54.1969 38.5472V8.96442C54.1969 4.01351 50.5847 0 46.1289 0Z" fill="black" fill-opacity="0.2" mask="url(#path-1-inside-1_3448_1717)"/>
<path d="M0.410156 0H55.0933H0.410156ZM55.9897 38.5472C55.9897 43.9932 51.5749 48.408 46.1289 48.408H9.37458C3.92857 48.408 -0.486286 43.9932 -0.486286 38.5472H1.3066C1.3066 43.003 4.91876 46.6152 9.37458 46.6152H46.1289C50.5847 46.6152 54.1969 43.003 54.1969 38.5472H55.9897ZM9.37458 48.408C3.92857 48.408 -0.486286 43.9932 -0.486286 38.5472V9.86086C-0.486286 4.41486 3.92857 0 9.37458 0C4.91876 0 1.3066 4.01351 1.3066 8.96442V38.5472C1.3066 43.003 4.91876 46.6152 9.37458 46.6152V48.408ZM46.1289 0C51.5749 0 55.9897 4.41486 55.9897 9.86086V38.5472C55.9897 43.9932 51.5749 48.408 46.1289 48.408V46.6152C50.5847 46.6152 54.1969 43.003 54.1969 38.5472V8.96442C54.1969 4.01351 50.5847 0 46.1289 0Z" fill="black" fill-opacity="0.2" mask="url(#path-1-inside-1_3448_1717)"/>
<path d="M0.410156 0H55.0933H0.410156ZM55.9897 38.5472C55.9897 43.9932 51.5749 48.408 46.1289 48.408H9.37458C3.92857 48.408 -0.486286 43.9932 -0.486286 38.5472H1.3066C1.3066 43.003 4.91876 46.6152 9.37458 46.6152H46.1289C50.5847 46.6152 54.1969 43.003 54.1969 38.5472H55.9897ZM9.37458 48.408C3.92857 48.408 -0.486286 43.9932 -0.486286 38.5472V9.86086C-0.486286 4.41486 3.92857 0 9.37458 0C4.91876 0 1.3066 4.01351 1.3066 8.96442V38.5472C1.3066 43.003 4.91876 46.6152 9.37458 46.6152V48.408ZM46.1289 0C51.5749 0 55.9897 4.41486 55.9897 9.86086V38.5472C55.9897 43.9932 51.5749 48.408 46.1289 48.408V46.6152C50.5847 46.6152 54.1969 43.003 54.1969 38.5472V8.96442C54.1969 4.01351 50.5847 0 46.1289 0Z" fill="black" fill-opacity="0.2" mask="url(#path-1-inside-1_3448_1717)"/>
<path d="M0.410156 0H55.0933H0.410156ZM55.9897 38.5472C55.9897 43.9932 51.5749 48.408 46.1289 48.408H9.37458C3.92857 48.408 -0.486286 43.9932 -0.486286 38.5472H1.3066C1.3066 43.003 4.91876 46.6152 9.37458 46.6152H46.1289C50.5847 46.6152 54.1969 43.003 54.1969 38.5472H55.9897ZM9.37458 48.408C3.92857 48.408 -0.486286 43.9932 -0.486286 38.5472V9.86086C-0.486286 4.41486 3.92857 0 9.37458 0C4.91876 0 1.3066 4.01351 1.3066 8.96442V38.5472C1.3066 43.003 4.91876 46.6152 9.37458 46.6152V48.408ZM46.1289 0C51.5749 0 55.9897 4.41486 55.9897 9.86086V38.5472C55.9897 43.9932 51.5749 48.408 46.1289 48.408V46.6152C50.5847 46.6152 54.1969 43.003 54.1969 38.5472V8.96442C54.1969 4.01351 50.5847 0 46.1289 0Z" fill="black" fill-opacity="0.2" mask="url(#path-1-inside-1_3448_1717)"/>
<path d="M0.410156 0H55.0933H0.410156ZM55.9897 38.5472C55.9897 43.9932 51.5749 48.408 46.1289 48.408H9.37458C3.92857 48.408 -0.486286 43.9932 -0.486286 38.5472H1.3066C1.3066 43.003 4.91876 46.6152 9.37458 46.6152H46.1289C50.5847 46.6152 54.1969 43.003 54.1969 38.5472H55.9897ZM9.37458 48.408C3.92857 48.408 -0.486286 43.9932 -0.486286 38.5472V9.86086C-0.486286 4.41486 3.92857 0 9.37458 0C4.91876 0 1.3066 4.01351 1.3066 8.96442V38.5472C1.3066 43.003 4.91876 46.6152 9.37458 46.6152V48.408ZM46.1289 0C51.5749 0 55.9897 4.41486 55.9897 9.86086V38.5472C55.9897 43.9932 51.5749 48.408 46.1289 48.408V46.6152C50.5847 46.6152 54.1969 43.003 54.1969 38.5472V8.96442C54.1969 4.01351 50.5847 0 46.1289 0Z" fill="black" fill-opacity="0.2" mask="url(#path-1-inside-1_3448_1717)"/>
<path d="M21.483 22.616C21.5623 22.0667 21.529 21.5653 21.383 21.112C21.237 20.6587 20.954 20.1213 20.534 19.5C20.086 18.8467 19.7843 18.259 19.629 17.737C19.4723 17.217 19.4203 16.638 19.473 16H20.481C20.4243 16.5567 20.461 17.054 20.591 17.492C20.7217 17.9307 20.9977 18.4603 21.419 19.081C21.8857 19.7577 22.197 20.3567 22.353 20.878C22.509 21.3993 22.555 21.9787 22.491 22.616H21.483ZM25.406 22.616C25.4853 22.0667 25.4533 21.5653 25.31 21.112C25.166 20.658 24.8833 20.1207 24.462 19.5C24.0147 18.8467 23.712 18.2593 23.554 17.738C23.396 17.2167 23.3433 16.6373 23.396 16H24.404C24.3473 16.5567 24.384 17.054 24.514 17.492C24.6447 17.9307 24.9207 18.4603 25.342 19.081C25.8087 19.7577 26.12 20.3567 26.276 20.878C26.432 21.3993 26.478 21.9787 26.414 22.616H25.406ZM29.406 22.616C29.4853 22.0667 29.45 21.5653 29.3 21.112C29.15 20.6587 28.864 20.1213 28.442 19.5C27.9953 18.8467 27.696 18.259 27.544 17.737C27.392 17.215 27.3427 16.636 27.396 16H28.404C28.3473 16.5567 28.384 17.054 28.514 17.492C28.6447 17.9307 28.9207 18.4603 29.342 19.081C29.8087 19.7577 30.12 20.3567 30.276 20.878C30.432 21.3993 30.478 21.9787 30.414 22.616H29.406ZM21 31C20.436 31 19.9617 30.8077 19.577 30.423C19.1923 30.0383 19 29.564 19 29V25H32.006C32.0247 24.4973 32.1823 24.0463 32.479 23.647C32.7757 23.2477 33.1647 22.969 33.646 22.811L37.848 21.396L38.166 22.334L33.963 23.75C33.6737 23.8427 33.4407 24.0147 33.264 24.266C33.088 24.518 33 24.7973 33 25.104V29C33 29.5513 32.8077 30.0227 32.423 30.414C32.0383 30.8047 31.564 31 31 31H21ZM21 30H31C31.2833 30 31.521 29.904 31.713 29.712C31.905 29.52 32.0007 29.2827 32 29V26H20V29C20 29.2833 20.096 29.521 20.288 29.713C20.48 29.905 20.7173 30.0007 21 30Z" fill="#134574"/>
</svg>
