<svg width="98" height="98" viewBox="0 0 98 98" fill="none" xmlns="http://www.w3.org/2000/svg">
<mask id="mask0_996_159" style="mask-type:luminance" maskUnits="userSpaceOnUse" x="0" y="0" width="98" height="98">
<path d="M98 0H0V98H98V0Z" fill="white"/>
</mask>
<g mask="url(#mask0_996_159)">
<path fill-rule="evenodd" clip-rule="evenodd" d="M6.125 42.875C6.125 34.4182 6.125 41.3438 6.125 36.75H91.875C91.875 44.4062 91.875 34.4182 91.875 42.875V45.9375C91.875 51.0118 87.7618 55.125 82.6875 55.125H66.3243C63.8874 55.125 61.5504 56.0931 59.8275 57.816L51.2837 66.3598C48.4873 69.1562 47.7943 73.428 49.5629 76.9652L51.7391 81.3179C52.2138 82.2673 52.1633 83.3946 51.605 84.2975C51.047 85.2003 50.0615 85.75 49 85.75H21.4375C12.9807 85.75 6.125 78.8943 6.125 70.4375V42.875Z" fill="url(#paint0_linear_996_159)"/>
<path fill-rule="evenodd" clip-rule="evenodd" d="M68.9499 80.4594C70.11 81.6899 70.11 83.6854 68.9499 84.9159C67.7895 86.1464 65.9082 86.1464 64.7482 84.9159L56.0859 75.7284C54.9258 74.4979 54.9258 72.5024 56.0859 71.2719L64.7482 62.0844C65.9082 60.8536 67.7895 60.8536 68.9496 62.0844C70.11 63.3149 70.11 65.3104 68.9499 66.5409L62.3885 73.5001L68.9499 80.4594ZM76.9982 66.5409C75.8378 65.3104 75.8378 63.3152 76.9982 62.0844C78.1582 60.8539 80.0395 60.8539 81.1999 62.0844L89.8619 71.2719C91.022 72.5027 91.022 74.4979 89.8619 75.7284L81.1999 84.9159C80.0395 86.1467 78.1582 86.1467 76.9982 84.9159C75.8378 83.6854 75.8378 81.6899 76.9982 80.4594L83.5593 73.5001L76.9982 66.5409Z" fill="white"/>
<path fill-rule="evenodd" clip-rule="evenodd" d="M21.4375 12.25C12.9807 12.25 6.125 19.1057 6.125 27.5625V30.625H91.875V27.5625C91.875 19.1057 85.0193 12.25 76.5625 12.25H21.4375ZM18.375 24.5C20.0664 24.5 21.4375 23.1289 21.4375 21.4375C21.4375 19.7461 20.0664 18.375 18.375 18.375C16.6836 18.375 15.3125 19.7461 15.3125 21.4375C15.3125 23.1289 16.6836 24.5 18.375 24.5ZM27.5625 24.5C29.2539 24.5 30.625 23.1289 30.625 21.4375C30.625 19.7461 29.2539 18.375 27.5625 18.375C25.8711 18.375 24.5 19.7461 24.5 21.4375C24.5 23.1289 25.8711 24.5 27.5625 24.5ZM39.8125 21.4375C39.8125 23.1289 38.4414 24.5 36.75 24.5C35.0586 24.5 33.6875 23.1289 33.6875 21.4375C33.6875 19.7461 35.0586 18.375 36.75 18.375C38.4414 18.375 39.8125 19.7461 39.8125 21.4375Z" fill="url(#paint1_linear_996_159)"/>
</g>
<defs>
<linearGradient id="paint0_linear_996_159" x1="67.6242" y1="47.7931" x2="50.0842" y2="87.355" gradientUnits="userSpaceOnUse">
<stop stop-color="#9DE8EE"/>
<stop offset="0.0001" stop-color="#9DE8EE"/>
<stop offset="0.490049" stop-color="#FA7C0B"/>
<stop offset="1" stop-color="#9F8CED"/>
</linearGradient>
<linearGradient id="paint1_linear_996_159" x1="67.6242" y1="16.3912" x2="64.7522" y2="33.6655" gradientUnits="userSpaceOnUse">
<stop stop-color="#9DE8EE"/>
<stop offset="0.0001" stop-color="#9DE8EE"/>
<stop offset="0.490049" stop-color="#FA7C0B"/>
<stop offset="1" stop-color="#9F8CED"/>
</linearGradient>
</defs>
</svg>
