<svg width="98" height="98" viewBox="0 0 98 98" fill="none" xmlns="http://www.w3.org/2000/svg">
<path fill-rule="evenodd" clip-rule="evenodd" d="M65.8884 83.5215C67.0485 84.752 67.0485 86.7475 65.8884 87.9781C64.728 89.2086 62.8467 89.2086 61.6866 87.9781L53.0244 78.7906C51.8643 77.56 51.8643 75.5645 53.0244 74.334L61.6866 65.1465C62.8467 63.9157 64.728 63.9157 65.8881 65.1465C67.0485 66.377 67.0485 68.3725 65.8884 69.6031L59.327 76.5623L65.8884 83.5215ZM73.9366 69.6031C72.7763 68.3725 72.7763 66.3773 73.9366 65.1465C75.0967 63.916 76.978 63.916 78.1384 65.1465L86.8004 74.334C87.9604 75.5648 87.9604 77.56 86.8004 78.7906L78.1384 87.9781C76.978 89.2089 75.0967 89.2089 73.9366 87.9781C72.7763 86.7475 72.7763 84.752 73.9366 83.5215L80.4977 76.5623L73.9366 69.6031Z" fill="white"/>
<path fill-rule="evenodd" clip-rule="evenodd" d="M21.4375 18.3748C21.4375 13.3006 25.5509 9.18726 30.625 9.18726H67.375C72.4493 9.18726 76.5625 13.3007 76.5625 18.3748V55.1248C76.5625 56.8162 75.1914 58.1873 73.5 58.1873H60.7245C59.9123 58.1873 59.1335 58.51 58.559 59.0843L45.0996 72.5436C44.1677 73.4759 43.9365 74.8996 44.526 76.0787L48.6766 84.3802C49.1513 85.3296 49.1008 86.4569 48.5428 87.3597C47.9845 88.2625 46.999 88.8123 45.9375 88.8123H30.625C25.5509 88.8123 21.4375 84.699 21.4375 79.6248V18.3748ZM39.8125 15.3123C38.1211 15.3123 36.75 16.6834 36.75 18.3748C36.75 20.0661 38.1211 21.4373 39.8125 21.4373H58.1875C59.8789 21.4373 61.25 20.0661 61.25 18.3748C61.25 16.6834 59.8789 15.3123 58.1875 15.3123H39.8125Z" fill="url(#paint0_linear_996_918)"/>
<defs>
<linearGradient id="paint0_linear_996_918" x1="60.9727" y1="27.1323" x2="22.7587" y2="61.2305" gradientUnits="userSpaceOnUse">
<stop stop-color="#9DE8EE"/>
<stop offset="0.0001" stop-color="#9DE8EE"/>
<stop offset="0.490049" stop-color="#FA7C0B"/>
<stop offset="1" stop-color="#9F8CED"/>
</linearGradient>
</defs>
</svg>
