<svg width="98" height="98" viewBox="0 0 98 98" fill="none" xmlns="http://www.w3.org/2000/svg">
<g clip-path="url(#clip0_996_619)">
<path d="M41.2441 46.5835V49.1154C42.2816 49.1154 42.4477 48.7701 42.4477 47.8429C42.4477 46.9288 42.2961 46.5835 41.2441 46.5835Z" fill="white"/>
<path d="M49.0006 25.7471C36.1825 25.7471 25.7539 36.1779 25.7539 48.9999C25.7539 61.8203 36.1825 72.2511 49.0006 72.2511C61.8194 72.2511 72.2472 61.8203 72.2472 48.9999C72.2472 36.1779 61.8194 25.7471 49.0006 25.7471ZM37.6777 52.2147C37.6777 54.9273 36.6265 55.0246 34.1919 55.0246H32.1568V45.1717H34.1919C36.1427 45.1717 37.6777 45.1993 37.6777 47.5658C37.6777 48.6592 37.36 49.6415 36.0462 49.7663V49.8627C37.5124 49.8627 37.6777 50.9423 37.6777 52.2147ZM42.7806 55.0246C42.5042 54.6226 42.4484 54.0423 42.4484 53.6549V51.5655C42.4484 50.8741 42.0334 50.5281 41.6184 50.5281H41.2448V55.0253H39.0475V45.1717H41.2593C43.4444 45.1717 44.746 45.3938 44.746 47.4686C44.746 48.7005 44.2338 49.5021 42.9881 49.7104V49.7387C44.096 49.7663 44.746 50.1812 44.746 51.593V53.6549C44.746 54.0423 44.8149 54.6226 45.0913 55.0246H42.7806ZM49.7509 55.0246L49.4868 52.6021H48.2426L47.869 55.0246H45.9327L47.6071 45.1717H50.7615L52.034 55.0246H49.7509ZM59.5853 55.0246H56.6385L54.9357 46.791H54.9081V55.0246H52.8287V45.1717H56.2916L57.7586 52.3388H57.7854V45.1717H59.5853V55.0246ZM63.1654 55.0246H60.485V45.1717H63.1654C65.7379 45.1717 66.61 45.5875 66.61 48.5351V52.0486C66.61 53.9175 66.0564 55.0246 63.1654 55.0246Z" fill="white"/>
<path d="M63.0955 46.5836V53.6136C64.2164 53.6136 64.3136 53.1841 64.3136 52.2439V48.1883C64.3136 46.8738 64.2593 46.5836 63.0955 46.5836ZM48.8924 46.7222L48.492 51.1084H49.3219L48.9207 46.7222H48.8924ZM34.1641 46.5836V49.1714C34.883 49.1301 35.3814 49.3651 35.3814 47.8844C35.3814 46.9151 35.2987 46.5147 34.1641 46.5836ZM34.1641 50.5817V53.6128C35.3944 53.7238 35.3814 53.0179 35.3814 51.9935C35.3814 50.5962 35.1326 50.5817 34.1641 50.5817Z" fill="white"/>
<path d="M93.7041 39.5107C92.5396 37.9702 91.4371 36.5155 91.0275 35.2446C90.5819 33.8642 90.6178 31.9631 90.6569 29.9488C90.7197 26.6673 90.7893 22.9471 88.6571 19.9834C86.485 16.9776 82.9233 15.8919 79.7797 14.9349C77.8893 14.3599 76.1054 13.8171 74.9746 12.9871C73.8721 12.1786 72.8224 10.6489 71.7115 9.02961C69.8334 6.2925 67.7065 3.19172 64.154 2.0272C63.2399 1.72708 62.2844 1.58084 61.2347 1.58084C58.7992 1.58084 56.4587 2.39777 54.194 3.18942C52.2815 3.85475 50.4777 4.48486 49 4.48486C47.5216 4.48486 45.7178 3.85398 43.8068 3.18713C41.5443 2.397 39.2054 1.58008 36.773 1.58008C35.7241 1.58008 34.7678 1.72478 33.849 2.02491C30.292 3.19019 28.1635 6.2925 26.2854 9.02961C25.1737 10.6489 24.1233 12.1794 23.0185 12.9902C21.89 13.8178 20.1061 14.3607 18.2173 14.9364C15.0767 15.8934 11.5181 16.9776 9.34905 19.9765C7.20759 22.9464 7.27803 26.6681 7.34158 29.9518C7.37986 31.9647 7.41738 33.865 6.97255 35.2454C6.56294 36.5155 5.4612 37.971 4.29592 39.5099C2.28156 42.1727 0 45.1878 0 48.9998C0 52.8103 2.28309 55.8269 4.29669 58.4897C5.46197 60.0302 6.56294 61.4849 6.97255 62.7535C7.41508 64.1301 7.37833 66.0304 7.34005 68.0417C7.27727 71.3262 7.20606 75.0487 9.34598 78.017C11.5135 81.0213 15.0752 82.1039 18.2165 83.0594C20.1061 83.6336 21.8915 84.1765 23.0185 85.0049C24.1225 85.8157 25.1722 87.3462 26.2847 88.9662C28.1628 91.7041 30.2912 94.8095 33.8445 95.9717C34.7647 96.2733 35.7202 96.4188 36.7661 96.4188C39.1962 96.4188 41.5352 95.6027 43.7976 94.8118C45.7109 94.1441 47.517 93.5148 49 93.5148C50.4777 93.5148 52.2799 94.1426 54.1886 94.8095C56.4526 95.5996 58.7954 96.4188 61.2332 96.4188C62.2828 96.4188 63.2399 96.2726 64.1563 95.9686C67.7035 94.8079 69.8319 91.7041 71.7107 88.9647C72.8217 87.3462 73.8713 85.8157 74.9769 85.0018C76.1016 84.1788 77.887 83.6367 79.7774 83.0625C82.9202 82.107 86.4835 81.0236 88.6517 78.0216C90.7878 75.0502 90.7174 71.3323 90.6554 68.0509C90.6155 66.0365 90.5811 64.1347 91.0267 62.7527C91.4348 61.4879 92.5357 60.034 93.698 58.4951C95.7169 55.833 98 52.8126 98 48.9998C98 45.1885 95.7184 42.1727 93.7041 39.5107ZM73.7075 31.8253L76.2509 30.8851L76.9201 28.2598C77.0318 27.8234 77.3473 27.7568 77.6237 28.1098L79.3019 30.2367L82.0061 30.0598C82.457 30.0292 82.6171 30.3086 82.3682 30.6823L80.8623 32.9378L81.8652 35.4559C82.0306 35.8724 81.8155 36.1113 81.3844 35.9903L78.7736 35.2569L76.6881 36.9902C76.3435 37.2758 76.0488 37.1464 76.0312 36.697L75.9224 33.9882L73.6317 32.5404C73.255 32.3023 73.2879 31.9815 73.7075 31.8253ZM61.4376 21.5392L63.1702 19.4521L62.4375 16.8436C62.3165 16.4102 62.5554 16.1951 62.9719 16.3612L65.4877 17.365L67.7425 15.859C68.1161 15.6071 68.3963 15.7694 68.365 16.2173L68.1896 18.923L70.3158 20.6028C70.6672 20.8807 70.5998 21.1954 70.168 21.3064L67.5396 21.9763L66.5987 24.5197C66.444 24.9393 66.124 24.9753 65.8828 24.5955L64.435 22.3025L61.727 22.1953C61.2814 22.1785 61.1512 21.8837 61.4376 21.5392ZM44.4085 13.5154L47.0898 13.1249L48.2887 10.6933C48.4886 10.2891 48.8094 10.2891 49.0077 10.6933L50.2082 13.1249L52.8886 13.5154C53.3334 13.579 53.4322 13.8852 53.1114 14.1991L51.1713 16.0933L51.6292 18.7661C51.7057 19.2086 51.4454 19.3985 51.0465 19.1895L48.6486 17.9277L46.2499 19.1895C45.8517 19.3985 45.5914 19.2086 45.6672 18.7661L46.1258 16.0933L44.1858 14.1991C43.8642 13.886 43.9645 13.579 44.4085 13.5154ZM26.9094 20.3341L29.0363 18.6566L28.8595 15.9509C28.8296 15.5007 29.1083 15.3399 29.4819 15.591L31.7359 17.097L34.2533 16.0933C34.6713 15.9264 34.9102 16.1423 34.7885 16.5748L34.0542 19.1841L35.7876 21.2704C36.074 21.6157 35.943 21.9105 35.4944 21.9289L32.7864 22.0353L31.3401 24.3276C31.1005 24.7073 30.7804 24.6729 30.6235 24.2518L29.684 21.7076L27.058 21.0384C26.6238 20.9282 26.558 20.6128 26.9094 20.3341ZM15.0208 29.5958L17.7257 29.7712L19.4032 27.6435C19.6819 27.2913 19.9966 27.3587 20.1076 27.7928L20.776 30.4196L23.3202 31.3606C23.7413 31.516 23.7757 31.836 23.3952 32.0772L21.1037 33.5243L20.9973 36.2323C20.9797 36.6817 20.6849 36.8126 20.3396 36.5263L18.254 34.7914L15.6463 35.5256C15.213 35.6473 14.9971 35.4085 15.1632 34.9904L16.1669 32.4738L14.661 30.219C14.4098 29.8439 14.5714 29.566 15.0208 29.5958ZM12.3181 53.5591L11.9292 50.8764L9.49834 49.6774C9.09409 49.4791 9.09409 49.1575 9.49834 48.9585L11.9292 47.7595L12.3181 45.0768C12.3832 44.6319 12.6902 44.5316 13.0034 44.854L14.8952 46.7948L17.5673 46.3362C18.0098 46.2597 18.1997 46.5207 17.9907 46.9196L16.7297 49.3183L17.9914 51.7178C18.1997 52.1152 18.0098 52.3755 17.5673 52.3004L14.8952 51.8426L13.0034 53.7812C12.6895 54.1027 12.3832 54.0032 12.3181 53.5591ZM23.0514 67.3457L20.5088 68.2859L19.8396 70.9128C19.7286 71.3484 19.414 71.4158 19.136 71.0628L17.4585 68.9359L14.7528 69.1128C14.3034 69.1427 14.1426 68.8632 14.3937 68.4903L15.8997 66.2348L14.8952 63.7182C14.7291 63.2994 14.945 63.0605 15.3768 63.183L17.9853 63.9157L20.0716 62.1824C20.4162 61.896 20.7117 62.0254 20.7285 62.4756L20.8365 65.1836L23.1288 66.6314C23.5077 66.8695 23.4725 67.1895 23.0514 67.3457ZM35.3236 77.6327L33.591 79.7205L34.3237 82.3275C34.4455 82.7601 34.2066 82.976 33.7893 82.8106L31.2727 81.8061L29.0187 83.3121C28.6451 83.5647 28.3656 83.4032 28.3963 82.953L28.5724 80.248L26.4447 78.5698C26.0925 78.2911 26.1599 77.9749 26.5947 77.8647L29.2201 77.1955L30.161 74.6521C30.3165 74.2318 30.6357 74.1958 30.8761 74.5771L32.3247 76.8671L35.0319 76.9742C35.4791 76.9934 35.61 77.2874 35.3236 77.6327ZM52.3519 85.6572L49.6715 86.0461L48.4725 88.4793C48.275 88.8835 47.9511 88.8828 47.7543 88.4793L46.5554 86.0477L43.8734 85.6572C43.4285 85.5913 43.329 85.2851 43.6506 84.972L45.5891 83.0778L45.1313 80.405C45.0563 79.964 45.3158 79.7726 45.7147 79.9816L48.1142 81.2426L50.5121 79.9801C50.9102 79.7726 51.1698 79.9625 51.094 80.405L50.6377 83.0778L52.5739 84.9704C52.897 85.2866 52.7967 85.5913 52.3519 85.6572ZM69.8495 78.8385L67.7249 80.5153L67.901 83.221C67.9324 83.6719 67.6514 83.8327 67.2785 83.5823L65.0238 82.0756L62.5072 83.0793C62.0884 83.2455 61.8503 83.0288 61.972 82.5977L62.7047 79.9885L60.9713 77.9022C60.6857 77.5576 60.8159 77.2613 61.2645 77.246L63.9741 77.1365L65.4188 74.8427C65.6585 74.4653 65.9793 74.5005 66.1355 74.9208L67.0764 77.4642L69.701 78.1342C70.1366 78.2444 70.2025 78.5583 69.8495 78.8385ZM49 75.4246C34.408 75.4246 22.5806 63.5949 22.5806 48.9998C22.5806 34.4047 34.408 22.5728 49 22.5728C63.5905 22.5728 75.4194 34.404 75.4194 48.9998C75.4194 63.5949 63.5905 75.4246 49 75.4246ZM81.7427 69.576L79.0362 69.3999L77.3587 71.5276C77.0801 71.879 76.7654 71.8109 76.6551 71.3783L75.9852 68.7514L73.4426 67.8105C73.0223 67.6558 72.9863 67.3358 73.366 67.0946L75.6583 65.6468L75.7647 62.9373C75.7823 62.4909 76.0779 62.3592 76.4209 62.6456L78.5087 64.3789L81.1149 63.6462C81.5482 63.5237 81.7649 63.7641 81.598 64.1814L80.5958 66.698L82.1003 68.952C82.3529 69.3279 82.1898 69.6059 81.7427 69.576ZM87.2652 50.2133L84.8351 51.4131L84.4431 54.0966C84.378 54.5399 84.071 54.6387 83.7594 54.3186L81.8645 52.3778L79.1924 52.8356C78.7499 52.9122 78.56 52.6534 78.7683 52.2537L80.0293 49.8535L78.7675 47.4533C78.56 47.0574 78.7499 46.7971 79.1924 46.8722L81.8645 47.3292L83.7563 45.3914C84.0702 45.0683 84.3788 45.1694 84.4423 45.6127L84.8328 48.2947L87.2636 49.4944C87.6694 49.6927 87.6679 50.015 87.2652 50.2133Z" fill="url(#paint0_linear_996_619)"/>
</g>
<defs>
<linearGradient id="paint0_linear_996_619" x1="70.2848" y1="22.9539" x2="26.2922" y2="81.5448" gradientUnits="userSpaceOnUse">
<stop stop-color="#9DE8EE"/>
<stop offset="0.0001" stop-color="#9DE8EE"/>
<stop offset="0.490049" stop-color="#FA7C0B"/>
<stop offset="1" stop-color="#9F8CED"/>
</linearGradient>
<clipPath id="clip0_996_619">
<rect width="98" height="98" fill="white"/>
</clipPath>
</defs>
</svg>
