<svg width="98" height="98" viewBox="0 0 98 98" fill="none" xmlns="http://www.w3.org/2000/svg">
<path fill-rule="evenodd" clip-rule="evenodd" d="M21.4375 12.2498C17.3764 12.2498 13.4816 13.863 10.6099 16.7347C7.73828 19.6063 6.125 23.5011 6.125 27.5623V70.4373C6.125 74.4984 7.73828 78.3932 10.6099 81.2648C13.4816 84.1365 17.3764 85.7498 21.4375 85.7498H49C49.8122 85.7498 50.5912 85.4271 51.1655 84.8528C51.7398 84.2784 52.0625 83.4995 52.0625 82.6873C52.0625 81.875 51.7398 81.0961 51.1655 80.5217C50.5912 79.9474 49.8122 79.6248 49 79.6248H21.4375C19.0008 79.6248 16.6639 78.6568 14.941 76.9338C13.218 75.2108 12.25 72.8739 12.25 70.4373V36.7498H85.75V52.0623C85.75 52.8745 86.0727 53.6534 86.647 54.2278C87.2213 54.8021 88.0003 55.1248 88.8125 55.1248C89.6247 55.1248 90.4037 54.8021 90.978 54.2278C91.5523 53.6534 91.875 52.8745 91.875 52.0623V27.5623C91.875 23.5011 90.2617 19.6063 87.3901 16.7347C84.5184 13.863 80.6236 12.2498 76.5625 12.2498H21.4375ZM21.4375 27.5623C22.2497 27.5623 23.0287 27.2396 23.603 26.6653C24.1773 26.0909 24.5 25.312 24.5 24.4998C24.5 23.6875 24.1773 22.9086 23.603 22.3342C23.0287 21.7599 22.2497 21.4373 21.4375 21.4373C20.6253 21.4373 19.8463 21.7599 19.272 22.3342C18.6977 22.9086 18.375 23.6875 18.375 24.4998C18.375 25.312 18.6977 26.0909 19.272 26.6653C19.8463 27.2396 20.6253 27.5623 21.4375 27.5623ZM30.625 27.5623C31.4372 27.5623 32.2162 27.2396 32.7905 26.6653C33.3648 26.0909 33.6875 25.312 33.6875 24.4998C33.6875 23.6875 33.3648 22.9086 32.7905 22.3342C32.2162 21.7599 31.4372 21.4373 30.625 21.4373C29.8128 21.4373 29.0338 21.7599 28.4595 22.3342C27.8852 22.9086 27.5625 23.6875 27.5625 24.4998C27.5625 25.312 27.8852 26.0909 28.4595 26.6653C29.0338 27.2396 29.8128 27.5623 30.625 27.5623ZM42.875 24.4998C42.875 25.312 42.5523 26.0909 41.978 26.6653C41.4037 27.2396 40.6247 27.5623 39.8125 27.5623C39.0003 27.5623 38.2213 27.2396 37.647 26.6653C37.0727 26.0909 36.75 25.312 36.75 24.4998C36.75 23.6875 37.0727 22.9086 37.647 22.3342C38.2213 21.7599 39.0003 21.4373 39.8125 21.4373C40.6247 21.4373 41.4037 21.7599 41.978 22.3342C42.5523 22.9086 42.875 23.6875 42.875 24.4998Z" fill="url(#paint0_linear_996_247)"/>
<path fill-rule="evenodd" clip-rule="evenodd" d="M76.562 61.2498C75.7498 61.2498 74.9708 61.5724 74.3965 62.1467C73.8221 62.7211 73.4995 63.5 73.4995 64.3123C73.4995 65.1245 73.8221 65.9034 74.3965 66.4778C74.9708 67.0521 75.7498 67.3748 76.562 67.3748H82.442L75.5054 76.0416L68.3422 73.6559C67.8027 73.4765 67.2239 73.4507 66.6705 73.5816C66.1172 73.7125 65.6112 73.9949 65.2093 74.3971L59.0843 80.5221C58.5264 81.0997 58.2177 81.8733 58.2247 82.6762C58.2317 83.4792 58.5538 84.2473 59.1216 84.8151C59.6894 85.3829 60.4575 85.705 61.2605 85.712C62.0635 85.719 62.8371 85.4103 63.4147 84.8524L68.2014 80.0658L75.5942 82.5311C76.1885 82.7291 76.8292 82.7401 77.4299 82.5627C78.0306 82.3853 78.5625 82.0279 78.9538 81.5388L85.7495 72.9485V76.5623C85.7495 77.3745 86.0721 78.1534 86.6465 78.7278C87.2208 79.3021 87.9998 79.6248 88.812 79.6248C89.6242 79.6248 90.4032 79.3021 90.9775 78.7278C91.5518 78.1534 91.8745 77.3745 91.8745 76.5623V64.3123C91.8745 63.5 91.5518 62.7211 90.9775 62.1467C90.4032 61.5724 89.6242 61.2498 88.812 61.2498H76.562Z" fill="white"/>
<defs>
<linearGradient id="paint0_linear_996_247" x1="67.6242" y1="28.8145" x2="34.8825" y2="78.0476" gradientUnits="userSpaceOnUse">
<stop stop-color="#9DE8EE"/>
<stop offset="0.0001" stop-color="#9DE8EE"/>
<stop offset="0.490049" stop-color="#FA7C0B"/>
<stop offset="1" stop-color="#9F8CED"/>
</linearGradient>
</defs>
</svg>
