<svg width="40" height="40" viewBox="0 0 40 40" fill="none" xmlns="http://www.w3.org/2000/svg">
<circle cx="20" cy="20" r="20" fill="#134574"/>
<path d="M25.303 10.25H14.697C13.5176 10.25 12.3865 10.7185 11.5525 11.5525C10.7185 12.3865 10.25 13.5176 10.25 14.697V25.303C10.25 26.4824 10.7185 27.6135 11.5525 28.4475C12.3865 29.2815 13.5176 29.75 14.697 29.75H25.303C26.4824 29.75 27.6135 29.2815 28.4475 28.4475C29.2815 27.6135 29.75 26.4824 29.75 25.303V14.697C29.75 13.5176 29.2815 12.3865 28.4475 11.5525C27.6135 10.7185 26.4824 10.25 25.303 10.25ZM16.843 25.992C16.8461 26.0464 16.8381 26.1009 16.8194 26.1521C16.8007 26.2034 16.7718 26.2502 16.7343 26.2898C16.6968 26.3294 16.6517 26.361 16.6016 26.3825C16.5515 26.404 16.4975 26.4151 16.443 26.415H14.663C14.5557 26.4121 14.4539 26.3674 14.3791 26.2904C14.3044 26.2135 14.2627 26.1103 14.263 26.003V18.6C14.2615 18.5466 14.2708 18.4934 14.2902 18.4435C14.3097 18.3937 14.3389 18.3483 14.3762 18.31C14.4135 18.2717 14.4581 18.2413 14.5073 18.2205C14.5566 18.1997 14.6095 18.189 14.663 18.189H16.443C16.4965 18.1888 16.5495 18.1994 16.5988 18.2202C16.6481 18.2409 16.6928 18.2714 16.7301 18.3097C16.7674 18.3481 16.7967 18.3935 16.8161 18.4434C16.8354 18.4933 16.8446 18.5465 16.843 18.6V25.992ZM15.52 16.632C15.3273 16.6306 15.1367 16.5912 14.9592 16.5161C14.7818 16.441 14.6208 16.3317 14.4855 16.1944C14.3503 16.0571 14.2434 15.8945 14.171 15.7159C14.0986 15.5373 14.0621 15.3462 14.0635 15.1535C14.0649 14.9608 14.1043 14.7702 14.1794 14.5927C14.2545 14.4153 14.3638 14.2543 14.5011 14.119C14.6384 13.9838 14.801 13.8769 14.9796 13.8045C15.1582 13.7321 15.3493 13.6956 15.542 13.697C15.9245 13.7094 16.287 13.8709 16.5522 14.1469C16.8173 14.4228 16.9641 14.7915 16.9613 15.1742C16.9584 15.5569 16.8061 15.9234 16.5368 16.1953C16.2676 16.4673 15.9027 16.6233 15.52 16.63M26.337 25.98C26.3368 26.0811 26.2972 26.1782 26.2266 26.2506C26.1561 26.323 26.0601 26.3651 25.959 26.368H24.08C23.9788 26.3649 23.8828 26.3226 23.8123 26.25C23.7418 26.1774 23.7022 26.0802 23.702 25.979V22.555C23.702 22.044 23.858 20.332 22.346 20.332C21.167 20.332 20.934 21.532 20.889 22.066V26.057C20.889 26.1584 20.8496 26.2558 20.779 26.3286C20.7085 26.4014 20.6123 26.4439 20.511 26.447H18.688C18.6368 26.447 18.5862 26.4369 18.5389 26.4173C18.4916 26.3977 18.4487 26.3689 18.4126 26.3327C18.3764 26.2965 18.3478 26.2535 18.3283 26.2062C18.3088 26.1589 18.2989 26.1082 18.299 26.057V18.564C18.3019 18.4626 18.3443 18.3663 18.4171 18.2957C18.49 18.2251 18.5875 18.1857 18.689 18.186H20.511C20.6125 18.1857 20.71 18.2251 20.7829 18.2957C20.8557 18.3663 20.8981 18.4626 20.901 18.564V19.209C21.167 18.8196 21.5343 18.5103 21.9633 18.3143C22.3922 18.1183 22.8665 18.0432 23.335 18.097C26.37 18.097 26.359 20.932 26.359 22.544L26.337 25.98Z" fill="white"/>
</svg>
