<svg width="40" height="40" viewBox="0 0 40 40" fill="none" xmlns="http://www.w3.org/2000/svg">
<circle cx="20" cy="20" r="20" fill="#134574"/>
<path d="M26.4375 28.9375H13.5635C12.9004 28.9375 12.2646 28.6741 11.7957 28.2052C11.3269 27.7364 11.0635 27.1005 11.0635 26.4375V13.5635C11.0635 12.9004 11.3269 12.2646 11.7957 11.7957C12.2646 11.3269 12.9004 11.0635 13.5635 11.0635H26.4375C27.1005 11.0635 27.7364 11.3269 28.2052 11.7957C28.6741 12.2646 28.9375 12.9004 28.9375 13.5635V26.4375C28.9375 27.1005 28.6741 27.7364 28.2052 28.2052C27.7364 28.6741 27.1005 28.9375 26.4375 28.9375ZM13.5635 12.0635C13.1657 12.0635 12.7841 12.2215 12.5028 12.5028C12.2215 12.7841 12.0635 13.1657 12.0635 13.5635V26.4375C12.0635 26.8353 12.2215 27.2168 12.5028 27.4981C12.7841 27.7794 13.1657 27.9375 13.5635 27.9375H26.4375C26.8353 27.9375 27.2168 27.7794 27.4981 27.4981C27.7794 27.2168 27.9375 26.8353 27.9375 26.4375V13.5635C27.9375 13.1657 27.7794 12.7841 27.4981 12.5028C27.2168 12.2215 26.8353 12.0635 26.4375 12.0635H13.5635Z" fill="white"/>
<path d="M20.0002 24.5943C19.0915 24.5933 18.2036 24.323 17.4486 23.8174C16.6936 23.3119 16.1054 22.5938 15.7584 21.754C15.4114 20.9143 15.3212 19.9905 15.4991 19.0994C15.6771 18.2084 16.1152 17.3901 16.7581 16.748C17.401 16.1059 18.2199 15.6689 19.1112 15.4921C20.0024 15.3153 20.9261 15.4068 21.7654 15.7548C22.6048 16.1029 23.322 16.692 23.8266 17.4477C24.3312 18.2034 24.6004 19.0917 24.6002 20.0003C24.5986 21.2193 24.1132 22.3877 23.2507 23.2491C22.3882 24.1105 21.2191 24.5943 20.0002 24.5943ZM20.0002 16.4003C19.2896 16.4013 18.5952 16.6128 18.0048 17.0082C17.4143 17.4036 16.9543 17.9652 16.6829 18.6219C16.4114 19.2786 16.3406 20.001 16.4795 20.6979C16.6184 21.3948 16.9606 22.0349 17.4631 22.5373C17.9656 23.0398 18.6057 23.3821 19.3026 23.521C19.9995 23.6598 20.7219 23.5891 21.3786 23.3176C22.0353 23.0461 22.5968 22.5861 22.9922 21.9957C23.3876 21.4053 23.5992 20.7109 23.6002 20.0003C23.6002 19.0455 23.2209 18.1298 22.5457 17.4547C21.8706 16.7796 20.9549 16.4003 20.0002 16.4003Z" fill="white"/>
<path d="M25.2 15.9049C25.7937 15.9049 26.275 15.4236 26.275 14.8299C26.275 14.2362 25.7937 13.7549 25.2 13.7549C24.6063 13.7549 24.125 14.2362 24.125 14.8299C24.125 15.4236 24.6063 15.9049 25.2 15.9049Z" fill="white"/>
</svg>
