<svg width="40" height="40" viewBox="0 0 40 40" fill="none" xmlns="http://www.w3.org/2000/svg">
<circle cx="20" cy="20" r="20" fill="#EF2689"/>
<path d="M20 10C15.038 10 11 14.038 11 19C11 23.962 15.038 28 20 28C24.962 28 29 23.962 29 19C29 14.038 24.962 10 20 10ZM20 11.5C24.1512 11.5 27.5 14.8488 27.5 19C27.5018 20.7955 26.858 22.5317 25.686 23.892C24.514 25.2522 22.892 26.1456 21.116 26.4093V21.187H23.252L23.5873 19.0173H21.116V17.8322C21.116 16.9323 21.4123 16.132 22.2545 16.132H23.6083V14.239C23.3705 14.2068 22.8673 14.137 21.9163 14.137C19.9303 14.137 18.7662 15.1855 18.7662 17.575V19.0173H16.7248V21.187H18.7662V26.3905C17.0148 26.1022 15.4229 25.2006 14.275 23.8468C13.1271 22.4929 12.498 20.775 12.5 19C12.5 14.8488 15.8488 11.5 20 11.5Z" fill="white"/>
</svg>
