<svg width="40" height="40" viewBox="0 0 40 40" fill="none" xmlns="http://www.w3.org/2000/svg">
<circle cx="20" cy="20" r="20" fill="#FF7A00"/>
<path d="M24.8201 28.768L11.7531 11.968C11.6842 11.8793 11.6416 11.7731 11.6301 11.6614C11.6186 11.5497 11.6387 11.437 11.6881 11.3361C11.7375 11.2353 11.8142 11.1503 11.9094 11.0909C12.0047 11.0315 12.1148 11 12.2271 11H14.7071C14.7984 11.0001 14.8884 11.0211 14.9704 11.0613C15.0524 11.1015 15.1241 11.1599 15.1801 11.232L28.2471 28.032C28.3159 28.1207 28.3585 28.2269 28.37 28.3386C28.3815 28.4503 28.3614 28.563 28.312 28.6639C28.2626 28.7647 28.186 28.8497 28.0907 28.9091C27.9954 28.9685 27.8854 29 27.7731 29H25.2931C25.2018 28.9999 25.1117 28.9789 25.0297 28.9387C24.9478 28.8985 24.8761 28.8401 24.8201 28.768Z" stroke="white" stroke-width="1.5"/>
<path d="M28 11L12 29" stroke="white" stroke-width="1.5" stroke-linecap="round"/>
</svg>
