<svg width="20" height="19" viewBox="0 0 20 19" fill="none" xmlns="http://www.w3.org/2000/svg">
<path d="M7.76894 4.23859C8.76239 2.45713 9.25872 1.56641 10.0012 1.56641C10.7438 1.56641 11.2401 2.45713 12.2336 4.23859L12.4907 4.69963C12.773 5.20616 12.9141 5.45942 13.1337 5.62643C13.3532 5.79344 13.6277 5.85538 14.1765 5.97927L14.6752 6.09218C16.6041 6.52892 17.5677 6.7469 17.7975 7.48472C18.0264 8.22177 17.3694 8.99096 16.0544 10.5286L15.7141 10.9261C15.3409 11.3628 15.1535 11.5816 15.0696 11.8513C14.9857 12.1218 15.0139 12.4135 15.0704 12.9961L15.1221 13.5269C15.3205 15.5789 15.4201 16.6045 14.8195 17.06C14.2189 17.5164 13.3156 17.1 11.5106 16.2689L11.0425 16.0541C10.5297 15.8173 10.2733 15.6996 10.0012 15.6996C9.72917 15.6996 9.47277 15.8173 8.95998 16.0541L8.49266 16.2689C6.6869 17.1 5.78362 17.5156 5.1838 17.0608C4.5824 16.6045 4.68198 15.5789 4.88035 13.5269L4.9321 12.9969C4.98856 12.4135 5.01678 12.1218 4.9321 11.8521C4.84899 11.5816 4.66159 11.3628 4.28836 10.9269L3.94807 10.5286C2.63315 8.99175 1.97608 8.22255 2.20503 7.48472C2.43477 6.7469 3.3992 6.52813 5.32807 6.09218L5.82675 5.97927C6.37483 5.85538 6.64848 5.79344 6.86881 5.62643C7.08835 5.45942 7.22949 5.20616 7.51176 4.69963L7.76894 4.23859Z" fill="#FAC036"/>
</svg>
