<svg width="56" height="48" viewBox="0 0 56 48" fill="none" xmlns="http://www.w3.org/2000/svg">
<mask id="path-1-inside-1_3448_1726" fill="white">
<path d="M0.414062 8.96448C0.414062 4.01354 4.42759 0 9.37853 0H46.1327C51.0837 0 55.0972 4.01353 55.0972 8.96447V38.5473C55.0972 43.4982 51.0837 47.5118 46.1328 47.5118H9.37854C4.4276 47.5118 0.414062 43.4982 0.414062 38.5473V8.96448Z"/>
</mask>
<path d="M0.414062 8.96448C0.414062 4.01354 4.42759 0 9.37853 0H46.1327C51.0837 0 55.0972 4.01353 55.0972 8.96447V38.5473C55.0972 43.4982 51.0837 47.5118 46.1328 47.5118H9.37854C4.4276 47.5118 0.414062 43.4982 0.414062 38.5473V8.96448Z" fill="white"/>
<path d="M0.414062 0H55.0972H0.414062ZM55.9937 38.5473C55.9937 43.9933 51.5788 48.4082 46.1327 48.4082H9.37853C3.9325 48.4082 -0.482384 43.9933 -0.482384 38.5473L1.31051 38.5473C1.31051 43.0032 4.92269 46.6153 9.37853 46.6153H46.1328C50.5886 46.6153 54.2008 43.0032 54.2008 38.5473L55.9937 38.5473ZM9.37853 48.4082C3.9325 48.4082 -0.482384 43.9933 -0.482384 38.5473V9.86092C-0.482384 4.41488 3.9325 0 9.37853 0C4.92269 0 1.31051 4.01353 1.31051 8.96447V38.5473C1.31051 43.0032 4.92269 46.6153 9.37853 46.6153V48.4082ZM46.1327 0C51.5788 0 55.9937 4.41488 55.9937 9.86092V38.5473C55.9937 43.9933 51.5788 48.4082 46.1327 48.4082L46.1328 46.6153C50.5886 46.6153 54.2008 43.0032 54.2008 38.5473V8.96447C54.2008 4.01353 50.5886 0 46.1328 0H46.1327Z" fill="#0D1118" mask="url(#path-1-inside-1_3448_1726)"/>
<path d="M0.414062 0H55.0972H0.414062ZM55.9937 38.5473C55.9937 43.9933 51.5788 48.4082 46.1327 48.4082H9.37853C3.9325 48.4082 -0.482384 43.9933 -0.482384 38.5473L1.31051 38.5473C1.31051 43.0032 4.92269 46.6153 9.37853 46.6153H46.1328C50.5886 46.6153 54.2008 43.0032 54.2008 38.5473L55.9937 38.5473ZM9.37853 48.4082C3.9325 48.4082 -0.482384 43.9933 -0.482384 38.5473V9.86092C-0.482384 4.41488 3.9325 0 9.37853 0C4.92269 0 1.31051 4.01353 1.31051 8.96447V38.5473C1.31051 43.0032 4.92269 46.6153 9.37853 46.6153V48.4082ZM46.1327 0C51.5788 0 55.9937 4.41488 55.9937 9.86092V38.5473C55.9937 43.9933 51.5788 48.4082 46.1327 48.4082L46.1328 46.6153C50.5886 46.6153 54.2008 43.0032 54.2008 38.5473V8.96447C54.2008 4.01353 50.5886 0 46.1328 0H46.1327Z" fill="black" fill-opacity="0.2" mask="url(#path-1-inside-1_3448_1726)"/>
<path d="M0.414062 0H55.0972H0.414062ZM55.9937 38.5473C55.9937 43.9933 51.5788 48.4082 46.1327 48.4082H9.37853C3.9325 48.4082 -0.482384 43.9933 -0.482384 38.5473L1.31051 38.5473C1.31051 43.0032 4.92269 46.6153 9.37853 46.6153H46.1328C50.5886 46.6153 54.2008 43.0032 54.2008 38.5473L55.9937 38.5473ZM9.37853 48.4082C3.9325 48.4082 -0.482384 43.9933 -0.482384 38.5473V9.86092C-0.482384 4.41488 3.9325 0 9.37853 0C4.92269 0 1.31051 4.01353 1.31051 8.96447V38.5473C1.31051 43.0032 4.92269 46.6153 9.37853 46.6153V48.4082ZM46.1327 0C51.5788 0 55.9937 4.41488 55.9937 9.86092V38.5473C55.9937 43.9933 51.5788 48.4082 46.1327 48.4082L46.1328 46.6153C50.5886 46.6153 54.2008 43.0032 54.2008 38.5473V8.96447C54.2008 4.01353 50.5886 0 46.1328 0H46.1327Z" fill="black" fill-opacity="0.2" mask="url(#path-1-inside-1_3448_1726)"/>
<path d="M0.414062 0H55.0972H0.414062ZM55.9937 38.5473C55.9937 43.9933 51.5788 48.4082 46.1327 48.4082H9.37853C3.9325 48.4082 -0.482384 43.9933 -0.482384 38.5473L1.31051 38.5473C1.31051 43.0032 4.92269 46.6153 9.37853 46.6153H46.1328C50.5886 46.6153 54.2008 43.0032 54.2008 38.5473L55.9937 38.5473ZM9.37853 48.4082C3.9325 48.4082 -0.482384 43.9933 -0.482384 38.5473V9.86092C-0.482384 4.41488 3.9325 0 9.37853 0C4.92269 0 1.31051 4.01353 1.31051 8.96447V38.5473C1.31051 43.0032 4.92269 46.6153 9.37853 46.6153V48.4082ZM46.1327 0C51.5788 0 55.9937 4.41488 55.9937 9.86092V38.5473C55.9937 43.9933 51.5788 48.4082 46.1327 48.4082L46.1328 46.6153C50.5886 46.6153 54.2008 43.0032 54.2008 38.5473V8.96447C54.2008 4.01353 50.5886 0 46.1328 0H46.1327Z" fill="black" fill-opacity="0.2" mask="url(#path-1-inside-1_3448_1726)"/>
<path d="M0.414062 0H55.0972H0.414062ZM55.9937 38.5473C55.9937 43.9933 51.5788 48.4082 46.1327 48.4082H9.37853C3.9325 48.4082 -0.482384 43.9933 -0.482384 38.5473L1.31051 38.5473C1.31051 43.0032 4.92269 46.6153 9.37853 46.6153H46.1328C50.5886 46.6153 54.2008 43.0032 54.2008 38.5473L55.9937 38.5473ZM9.37853 48.4082C3.9325 48.4082 -0.482384 43.9933 -0.482384 38.5473V9.86092C-0.482384 4.41488 3.9325 0 9.37853 0C4.92269 0 1.31051 4.01353 1.31051 8.96447V38.5473C1.31051 43.0032 4.92269 46.6153 9.37853 46.6153V48.4082ZM46.1327 0C51.5788 0 55.9937 4.41488 55.9937 9.86092V38.5473C55.9937 43.9933 51.5788 48.4082 46.1327 48.4082L46.1328 46.6153C50.5886 46.6153 54.2008 43.0032 54.2008 38.5473V8.96447C54.2008 4.01353 50.5886 0 46.1328 0H46.1327Z" fill="black" fill-opacity="0.2" mask="url(#path-1-inside-1_3448_1726)"/>
<path d="M0.414062 0H55.0972H0.414062ZM55.9937 38.5473C55.9937 43.9933 51.5788 48.4082 46.1327 48.4082H9.37853C3.9325 48.4082 -0.482384 43.9933 -0.482384 38.5473L1.31051 38.5473C1.31051 43.0032 4.92269 46.6153 9.37853 46.6153H46.1328C50.5886 46.6153 54.2008 43.0032 54.2008 38.5473L55.9937 38.5473ZM9.37853 48.4082C3.9325 48.4082 -0.482384 43.9933 -0.482384 38.5473V9.86092C-0.482384 4.41488 3.9325 0 9.37853 0C4.92269 0 1.31051 4.01353 1.31051 8.96447V38.5473C1.31051 43.0032 4.92269 46.6153 9.37853 46.6153V48.4082ZM46.1327 0C51.5788 0 55.9937 4.41488 55.9937 9.86092V38.5473C55.9937 43.9933 51.5788 48.4082 46.1327 48.4082L46.1328 46.6153C50.5886 46.6153 54.2008 43.0032 54.2008 38.5473V8.96447C54.2008 4.01353 50.5886 0 46.1328 0H46.1327Z" fill="black" fill-opacity="0.2" mask="url(#path-1-inside-1_3448_1726)"/>
<path d="M0.414062 0H55.0972H0.414062ZM55.9937 38.5473C55.9937 43.9933 51.5788 48.4082 46.1327 48.4082H9.37853C3.9325 48.4082 -0.482384 43.9933 -0.482384 38.5473L1.31051 38.5473C1.31051 43.0032 4.92269 46.6153 9.37853 46.6153H46.1328C50.5886 46.6153 54.2008 43.0032 54.2008 38.5473L55.9937 38.5473ZM9.37853 48.4082C3.9325 48.4082 -0.482384 43.9933 -0.482384 38.5473V9.86092C-0.482384 4.41488 3.9325 0 9.37853 0C4.92269 0 1.31051 4.01353 1.31051 8.96447V38.5473C1.31051 43.0032 4.92269 46.6153 9.37853 46.6153V48.4082ZM46.1327 0C51.5788 0 55.9937 4.41488 55.9937 9.86092V38.5473C55.9937 43.9933 51.5788 48.4082 46.1327 48.4082L46.1328 46.6153C50.5886 46.6153 54.2008 43.0032 54.2008 38.5473V8.96447C54.2008 4.01353 50.5886 0 46.1328 0H46.1327Z" fill="black" fill-opacity="0.2" mask="url(#path-1-inside-1_3448_1726)"/>
<path d="M37.0039 31.5V16.5C37.0039 16.1022 36.8459 15.7206 36.5646 15.4393C36.2833 15.158 35.9017 15 35.5039 15H20.5039C20.1061 15 19.7246 15.158 19.4432 15.4393C19.1619 15.7206 19.0039 16.1022 19.0039 16.5V31.5C19.0039 31.8978 19.1619 32.2794 19.4432 32.5607C19.7246 32.842 20.1061 33 20.5039 33H35.5039C35.9017 33 36.2833 32.842 36.5646 32.5607C36.8459 32.2794 37.0039 31.8978 37.0039 31.5Z" stroke="#134574" stroke-width="2" stroke-linejoin="round"/>
<path d="M28.0026 21.1562L26.5546 24.1112L23.2656 24.5883L25.6481 26.9172L25.0786 30.1563L28.0026 28.5978L30.9271 30.1563L30.3621 26.9172L32.7401 24.5883L29.4696 24.1112L28.0026 21.1562Z" stroke="#134574" stroke-width="2" stroke-linejoin="round"/>
<path d="M25.1641 18.3164H30.8481" stroke="#134574" stroke-width="2" stroke-linecap="round" stroke-linejoin="round"/>
</svg>
