<svg width="62" height="62" viewBox="0 0 62 62" fill="none" xmlns="http://www.w3.org/2000/svg">
<rect width="62" height="62" rx="12" fill="#134574"/>
<path d="M40.625 43.25H48.5M48.5 43.25L44.125 38.875M48.5 43.25L44.125 47.625M31 13.5L26.625 17.875L31 22.25" stroke="white" stroke-width="1.5" stroke-linecap="round" stroke-linejoin="round"/>
<path d="M28.375 17.875C31.856 17.875 35.1944 19.2578 37.6558 21.7192C40.1172 24.1806 41.5 27.519 41.5 31C41.5 34.481 40.1172 37.8194 37.6558 40.2808C35.1944 42.7422 31.856 44.125 28.375 44.125H13.5" stroke="white" stroke-width="1.5" stroke-linecap="round" stroke-linejoin="round"/>
<path d="M21.823 19.625C19.8246 20.7763 18.1648 22.434 17.0109 24.4309C15.8569 26.4279 15.2496 28.6936 15.25 31C15.25 33.954 16.2265 36.6805 17.875 38.875" stroke="white" stroke-width="1.5" stroke-linecap="round" stroke-linejoin="round"/>
</svg>
