<svg width="62" height="62" viewBox="0 0 62 62" fill="none" xmlns="http://www.w3.org/2000/svg">
<rect width="62" height="62" rx="12" fill="#134574"/>
<path d="M45.875 31C45.1458 31 44.5263 30.7451 44.0165 30.2353C43.5067 29.7254 43.2512 29.1053 43.25 28.375V17.875C43.25 17.1458 43.5055 16.5263 44.0165 16.0165C44.5275 15.5067 45.147 15.2512 45.875 15.25C46.603 15.2488 47.2231 15.5043 47.7353 16.0165C48.2474 16.5287 48.5023 17.1482 48.5 17.875V28.375C48.5 29.1042 48.2451 29.7243 47.7353 30.2353C47.2254 30.7463 46.6053 31.0012 45.875 31ZM27.5 31C25.575 31 23.9271 30.3146 22.5563 28.9438C21.1854 27.5729 20.5 25.925 20.5 24C20.5 22.075 21.1854 20.4271 22.5563 19.0563C23.9271 17.6854 25.575 17 27.5 17C29.425 17 31.0729 17.6854 32.4438 19.0563C33.8146 20.4271 34.5 22.075 34.5 24C34.5 25.925 33.8146 27.5729 32.4438 28.9438C31.0729 30.3146 29.425 31 27.5 31ZM13.5 45V40.1C13.5 39.1083 13.7479 38.1972 14.2437 37.3665C14.7396 36.5358 15.425 35.9012 16.3 35.4625C18.05 34.5875 19.8659 33.9167 21.7478 33.45C23.6296 32.9833 25.547 32.75 27.5 32.75C29.453 32.75 31.371 32.9833 33.254 33.45C35.137 33.9167 36.9523 34.5875 38.7 35.4625C39.575 35.9 40.2604 36.5347 40.7563 37.3665C41.2521 38.1983 41.5 39.1095 41.5 40.1V45H13.5ZM17 41.5H38V40.1C38 39.7792 37.9271 39.4875 37.7813 39.225C37.6354 38.9625 37.4167 38.7583 37.125 38.6125C35.6375 37.8542 34.0847 37.2708 32.4665 36.8625C30.8483 36.4542 29.1928 36.25 27.5 36.25C25.8072 36.25 24.1517 36.4542 22.5335 36.8625C20.9153 37.2708 19.3625 37.8542 17.875 38.6125C17.5833 38.7583 17.3646 38.9625 17.2188 39.225C17.0729 39.4875 17 39.7792 17 40.1V41.5ZM27.5 27.5C28.4625 27.5 29.2868 27.1576 29.9728 26.4728C30.6588 25.7879 31.0012 24.9637 31 24C30.9988 23.0363 30.6564 22.2127 29.9728 21.529C29.2891 20.8453 28.4648 20.5023 27.5 20.5C26.5352 20.4977 25.7115 20.8407 25.029 21.529C24.3465 22.2173 24.0035 23.041 24 24C23.9965 24.959 24.3395 25.7833 25.029 26.4728C25.7185 27.1623 26.5422 27.5047 27.5 27.5Z" fill="white"/>
</svg>
