<svg width="62" height="62" viewBox="0 0 62 62" fill="none" xmlns="http://www.w3.org/2000/svg">
<rect width="62" height="62" rx="12" fill="#134574"/>
<path d="M31.5 16.5625C31.0978 16.5625 30.6996 16.6417 30.328 16.7956C29.9565 16.9495 29.6189 17.1751 29.3345 17.4595C29.0501 17.7439 28.8245 18.0815 28.6706 18.453C28.5167 18.8246 28.4375 19.2228 28.4375 19.625C28.4375 20.0272 28.5167 20.4254 28.6706 20.797C28.8245 21.1685 29.0501 21.5061 29.3345 21.7905C29.6189 22.0749 29.9565 22.3005 30.328 22.4544C30.6996 22.6083 31.0978 22.6875 31.5 22.6875C32.3122 22.6875 33.0912 22.3648 33.6655 21.7905C34.2398 21.2162 34.5625 20.4372 34.5625 19.625C34.5625 18.8128 34.2398 18.0338 33.6655 17.4595C33.0912 16.8852 32.3122 16.5625 31.5 16.5625ZM26.25 19.625C26.25 18.2326 26.8031 16.8973 27.7877 15.9127C28.7723 14.9281 30.1076 14.375 31.5 14.375C32.8924 14.375 34.2277 14.9281 35.2123 15.9127C36.1969 16.8973 36.75 18.2326 36.75 19.625C36.75 21.0174 36.1969 22.3527 35.2123 23.3373C34.2277 24.3219 32.8924 24.875 31.5 24.875C30.1076 24.875 28.7723 24.3219 27.7877 23.3373C26.8031 22.3527 26.25 21.0174 26.25 19.625ZM42.875 18.3125C42.2948 18.3125 41.7384 18.543 41.3282 18.9532C40.918 19.3634 40.6875 19.9198 40.6875 20.5C40.6875 21.0802 40.918 21.6366 41.3282 22.0468C41.7384 22.457 42.2948 22.6875 42.875 22.6875C43.4552 22.6875 44.0116 22.457 44.4218 22.0468C44.832 21.6366 45.0625 21.0802 45.0625 20.5C45.0625 19.9198 44.832 19.3634 44.4218 18.9532C44.0116 18.543 43.4552 18.3125 42.875 18.3125ZM38.5 20.5C38.5 19.3397 38.9609 18.2269 39.7814 17.4064C40.6019 16.5859 41.7147 16.125 42.875 16.125C44.0353 16.125 45.1481 16.5859 45.9686 17.4064C46.7891 18.2269 47.25 19.3397 47.25 20.5C47.25 21.6603 46.7891 22.7731 45.9686 23.5936C45.1481 24.4141 44.0353 24.875 42.875 24.875C41.7147 24.875 40.6019 24.4141 39.7814 23.5936C38.9609 22.7731 38.5 21.6603 38.5 20.5ZM17.9375 20.5C17.9375 19.9198 18.168 19.3634 18.5782 18.9532C18.9884 18.543 19.5448 18.3125 20.125 18.3125C20.7052 18.3125 21.2616 18.543 21.6718 18.9532C22.082 19.3634 22.3125 19.9198 22.3125 20.5C22.3125 21.0802 22.082 21.6366 21.6718 22.0468C21.2616 22.457 20.7052 22.6875 20.125 22.6875C19.5448 22.6875 18.9884 22.457 18.5782 22.0468C18.168 21.6366 17.9375 21.0802 17.9375 20.5ZM20.125 16.125C18.9647 16.125 17.8519 16.5859 17.0314 17.4064C16.2109 18.2269 15.75 19.3397 15.75 20.5C15.75 21.6603 16.2109 22.7731 17.0314 23.5936C17.8519 24.4141 18.9647 24.875 20.125 24.875C21.2853 24.875 22.3981 24.4141 23.2186 23.5936C24.0391 22.7731 24.5 21.6603 24.5 20.5C24.5 19.3397 24.0391 18.2269 23.2186 17.4064C22.3981 16.5859 21.2853 16.125 20.125 16.125ZM23.625 30.3438C23.625 29.3575 24.0168 28.4116 24.7142 27.7142C25.4116 27.0168 26.3575 26.625 27.3438 26.625H35.6562C36.6425 26.625 37.5884 27.0168 38.2858 27.7142C38.9832 28.4116 39.375 29.3575 39.375 30.3438V39.75C39.375 41.8386 38.5453 43.8416 37.0685 45.3185C35.5916 46.7953 33.5886 47.625 31.5 47.625C29.4114 47.625 27.4084 46.7953 25.9315 45.3185C24.4547 43.8416 23.625 41.8386 23.625 39.75V30.3438ZM31.5 45.4375C33.0084 45.4375 34.4551 44.8383 35.5217 43.7717C36.5883 42.7051 37.1875 41.2584 37.1875 39.75V30.3438C37.1875 29.9376 37.0262 29.5482 36.739 29.261C36.4518 28.9738 36.0624 28.8125 35.6562 28.8125H27.3438C26.9376 28.8125 26.5482 28.9738 26.261 29.261C25.9738 29.5482 25.8125 29.9376 25.8125 30.3438V39.75C25.8125 41.2584 26.4117 42.7051 27.4783 43.7717C28.5449 44.8383 29.9916 45.4375 31.5 45.4375ZM20.125 42.8125C20.8566 42.8127 21.5738 42.6091 22.1961 42.2245C22.3877 42.9472 22.6616 43.6359 23.0064 44.2808C22.073 44.7783 21.0268 45.0257 19.9694 44.9988C18.9121 44.972 17.8798 44.6718 16.9729 44.1275C16.066 43.5832 15.3156 42.8133 14.7946 41.8928C14.2736 40.9724 13.9999 39.9327 14 38.875V30.3446C13.9999 29.8562 14.096 29.3725 14.2828 28.9213C14.4697 28.47 14.7436 28.0599 15.0889 27.7145C15.4342 27.3691 15.8442 27.0951 16.2954 26.9082C16.7467 26.7212 17.2303 26.625 17.7188 26.625H22.5312C22.7838 26.6256 23.0291 26.6498 23.2671 26.6976C22.7222 27.3058 22.3206 28.0285 22.092 28.8125H17.7188C17.3126 28.8125 16.9232 28.9738 16.636 29.261C16.3488 29.5482 16.1875 29.9376 16.1875 30.3438V38.875C16.1875 39.9193 16.6023 40.9208 17.3408 41.6592C18.0792 42.3977 19.0807 42.8125 20.125 42.8125ZM42.875 45C41.8702 45.0005 40.8806 44.7538 39.9936 44.2816C40.3384 43.6359 40.6122 42.9472 40.8039 42.2245C41.4004 42.5934 42.0846 42.7963 42.7857 42.8122C43.4869 42.8281 44.1796 42.6564 44.7922 42.3149C45.4048 41.9735 45.9151 41.4745 46.2702 40.8698C46.6254 40.265 46.8126 39.5764 46.8125 38.875V30.3438C46.8125 29.9376 46.6512 29.5482 46.364 29.261C46.0768 28.9738 45.6874 28.8125 45.2812 28.8125H40.908C40.6791 28.0285 40.2773 27.3057 39.732 26.6976C39.9712 26.6498 40.2167 26.6256 40.4688 26.625H45.2812C46.2675 26.625 47.2134 27.0168 47.9108 27.7142C48.6082 28.4116 49 29.3575 49 30.3438V38.875C49 40.4995 48.3547 42.0574 47.206 43.206C46.0574 44.3547 44.4995 45 42.875 45Z" fill="white"/>
</svg>
