<svg width="62" height="62" viewBox="0 0 62 62" fill="none" xmlns="http://www.w3.org/2000/svg">
<rect width="62" height="62" rx="12" fill="#134574"/>
<g clip-path="url(#clip0_2187_435)">
<path d="M29.25 15.25C29.696 15.2505 30.1251 15.4213 30.4494 15.7275C30.7737 16.0337 30.9689 16.4522 30.9951 16.8974C31.0212 17.3427 30.8763 17.7812 30.59 18.1232C30.3038 18.4652 29.8977 18.6851 29.4547 18.7378L29.25 18.75H18.75V43.25H43.25V32.75C43.2505 32.304 43.4213 31.8749 43.7275 31.5506C44.0337 31.2263 44.4522 31.0311 44.8974 31.0049C45.3427 30.9788 45.7812 31.1237 46.1232 31.41C46.4653 31.6962 46.6851 32.1023 46.7378 32.5452L46.75 32.75V43.25C46.7503 44.133 46.4168 44.9835 45.8164 45.631C45.216 46.2784 44.393 46.675 43.5125 46.7413L43.25 46.75H18.75C17.867 46.7503 17.0165 46.4168 16.369 45.8164C15.7216 45.216 15.325 44.393 15.2588 43.5125L15.25 43.25V18.75C15.2497 17.867 15.5832 17.0165 16.1836 16.369C16.784 15.7216 17.607 15.325 18.4875 15.2588L18.75 15.25H29.25ZM44.5625 15.25C45.77 15.25 46.75 16.23 46.75 17.4375V24C46.75 24.4641 46.5656 24.9092 46.2374 25.2374C45.9093 25.5656 45.4641 25.75 45 25.75C44.5359 25.75 44.0907 25.5656 43.7626 25.2374C43.4344 24.9092 43.25 24.4641 43.25 24V21.2245L31.7245 32.75H34.5C34.9641 32.75 35.4092 32.9344 35.7374 33.2626C36.0656 33.5908 36.25 34.0359 36.25 34.5C36.25 34.9641 36.0656 35.4092 35.7374 35.7374C35.4092 36.0656 34.9641 36.25 34.5 36.25H27.9375C26.73 36.25 25.75 35.27 25.75 34.0625V27.5C25.75 27.0359 25.9344 26.5908 26.2626 26.2626C26.5908 25.9344 27.0359 25.75 27.5 25.75C27.9641 25.75 28.4092 25.9344 28.7374 26.2626C29.0656 26.5908 29.25 27.0359 29.25 27.5V30.2755L40.7755 18.75H38C37.5359 18.75 37.0908 18.5656 36.7626 18.2374C36.4344 17.9092 36.25 17.4641 36.25 17C36.25 16.5359 36.4344 16.0908 36.7626 15.7626C37.0908 15.4344 37.5359 15.25 38 15.25H44.5625Z" fill="white"/>
</g>
<defs>
<clipPath id="clip0_2187_435">
<rect width="42" height="42" fill="white" transform="translate(10 10)"/>
</clipPath>
</defs>
</svg>
